<svg width="30" height="30" viewBox="0 0 30 30" fill="none" xmlns="http://www.w3.org/2000/svg">
<path d="M15 30C6.7297 30 0 23.2703 0 15C0 6.7297 6.7297 0 15 0C23.2703 0 30 6.7297 30 15C30 23.2703 23.2703 30 15 30ZM27.0022 15C27.0022 8.38154 21.6185 3.00334 15 3.00334C8.38154 3.00334 2.99778 8.38154 2.99778 15C2.99778 21.6185 8.38154 26.9967 15 26.9967C21.6185 26.9967 27.0022 21.6129 27.0022 15Z" fill="#F39800"/>
<path d="M15.0008 23.9988C10.0398 23.9988 6.00195 19.9609 6.00195 14.9999C6.00195 10.0388 10.0398 6.00098 15.0008 6.00098C19.9619 6.00098 23.9997 10.0388 23.9997 14.9999C23.9997 19.9609 19.9619 23.9988 15.0008 23.9988ZM21.002 14.9999C21.002 11.6906 18.3101 8.99875 15.0008 8.99875C11.6916 8.99875 8.99973 11.6906 8.99973 14.9999C8.99973 18.3091 11.6916 21.001 15.0008 21.001C18.3101 21.001 21.002 18.3091 21.002 14.9999Z" fill="#F39800"/>
<path d="M17.9975 14.9997C17.9975 16.6571 16.6516 17.9975 14.9997 17.9975C13.3479 17.9975 12.002 16.6571 12.002 14.9997C12.002 13.3423 13.3479 12.002 14.9997 12.002C16.6516 12.002 17.9975 13.3423 17.9975 14.9997Z" fill="#F39800"/>
</svg>
