<svg width="240" height="61" viewBox="0 0 240 61" fill="none" xmlns="http://www.w3.org/2000/svg">
<path d="M0.6 60L25.8 4H36.04L61.32 60H50.44L28.76 9.52H32.92L11.32 60H0.6ZM12.2 47.04L15 38.88H45.24L48.04 47.04H12.2ZM87.5619 60.56C83.9352 60.56 80.7085 59.76 77.8819 58.16C75.0552 56.56 72.8152 54.16 71.1619 50.96C69.5619 47.7067 68.7619 43.6 68.7619 38.64C68.7619 33.6267 69.5885 29.52 71.2419 26.32C72.9485 23.12 75.2152 20.7467 78.0419 19.2C80.9219 17.6 84.0952 16.8 87.5619 16.8C91.7752 16.8 95.4819 17.7067 98.6819 19.52C101.935 21.3333 104.495 23.8667 106.362 27.12C108.282 30.3733 109.242 34.2133 109.242 38.64C109.242 43.0667 108.282 46.9067 106.362 50.16C104.495 53.4133 101.935 55.9733 98.6819 57.84C95.4819 59.6533 91.7752 60.56 87.5619 60.56ZM63.8819 60V0.639997H73.8819V27.2L73.0819 38.56L73.4019 49.92V60H63.8819ZM86.4419 52C88.8419 52 90.9752 51.4667 92.8419 50.4C94.7619 49.3333 96.2819 47.7867 97.4019 45.76C98.5219 43.7333 99.0819 41.36 99.0819 38.64C99.0819 35.8667 98.5219 33.4933 97.4019 31.52C96.2819 29.4933 94.7619 27.9467 92.8419 26.88C90.9752 25.8133 88.8419 25.28 86.4419 25.28C84.0419 25.28 81.8819 25.8133 79.9619 26.88C78.0419 27.9467 76.5219 29.4933 75.4019 31.52C74.2819 33.4933 73.7219 35.8667 73.7219 38.64C73.7219 41.36 74.2819 43.7333 75.4019 45.76C76.5219 47.7867 78.0419 49.3333 79.9619 50.4C81.8819 51.4667 84.0419 52 86.4419 52ZM134.326 60.56C129.952 60.56 126.059 59.6267 122.646 57.76C119.232 55.84 116.539 53.2267 114.566 49.92C112.592 46.6133 111.606 42.8533 111.606 38.64C111.606 34.3733 112.592 30.6133 114.566 27.36C116.539 24.0533 119.232 21.4667 122.646 19.6C126.059 17.7333 129.952 16.8 134.326 16.8C138.752 16.8 142.672 17.7333 146.086 19.6C149.552 21.4667 152.246 24.0267 154.166 27.28C156.139 30.5333 157.126 34.32 157.126 38.64C157.126 42.8533 156.139 46.6133 154.166 49.92C152.246 53.2267 149.552 55.84 146.086 57.76C142.672 59.6267 138.752 60.56 134.326 60.56ZM134.326 52C136.779 52 138.966 51.4667 140.886 50.4C142.806 49.3333 144.299 47.7867 145.366 45.76C146.486 43.7333 147.046 41.36 147.046 38.64C147.046 35.8667 146.486 33.4933 145.366 31.52C144.299 29.4933 142.806 27.9467 140.886 26.88C138.966 25.8133 136.806 25.28 134.406 25.28C131.952 25.28 129.766 25.8133 127.846 26.88C125.979 27.9467 124.486 29.4933 123.366 31.52C122.246 33.4933 121.686 35.8667 121.686 38.64C121.686 41.36 122.246 43.7333 123.366 45.76C124.486 47.7867 125.979 49.3333 127.846 50.4C129.766 51.4667 131.926 52 134.326 52ZM181.168 60.56C177.541 60.56 174.341 59.8933 171.568 58.56C168.795 57.1733 166.635 55.0933 165.088 52.32C163.541 49.4933 162.768 45.9467 162.768 41.68V17.28H172.768V40.32C172.768 44.16 173.621 47.04 175.328 48.96C177.088 50.8267 179.568 51.76 182.768 51.76C185.115 51.76 187.141 51.28 188.848 50.32C190.608 49.36 191.968 47.92 192.928 46C193.941 44.08 194.448 41.7067 194.448 38.88V17.28H204.448V60H194.928V48.48L196.608 52C195.168 54.7733 193.061 56.9067 190.288 58.4C187.515 59.84 184.475 60.56 181.168 60.56ZM230.021 60.56C225.328 60.56 221.701 59.36 219.141 56.96C216.581 54.5067 215.301 50.9067 215.301 46.16V7.84H225.301V45.92C225.301 47.9467 225.808 49.52 226.821 50.64C227.888 51.76 229.355 52.32 231.221 52.32C233.461 52.32 235.328 51.7333 236.821 50.56L239.621 57.68C238.448 58.64 237.008 59.36 235.301 59.84C233.595 60.32 231.835 60.56 230.021 60.56ZM208.261 25.6V17.6H236.741V25.6H208.261Z" fill="#E6EEF5"/>
</svg>
