<svg width="372" height="74" viewBox="0 0 372 74" fill="none" xmlns="http://www.w3.org/2000/svg">
<g style="mix-blend-mode:multiply">
<path d="M30.44 57.8C26.1733 57.8 22.2 57.1067 18.52 55.72C14.8933 54.28 11.72 52.28 9 49.72C6.33333 47.1067 4.25333 44.04 2.76 40.52C1.26667 37 0.52 33.16 0.52 29C0.52 24.84 1.26667 21 2.76 17.48C4.25333 13.96 6.36 10.92 9.08 8.36C11.8 5.74667 14.9733 3.74667 18.6 2.36C22.2267 0.919997 26.2 0.199997 30.52 0.199997C35.1067 0.199997 39.2933 0.999998 43.08 2.6C46.8667 4.14667 50.0667 6.46666 52.68 9.56L45.96 15.88C43.9333 13.6933 41.6667 12.0667 39.16 11C36.6533 9.88 33.9333 9.32 31 9.32C28.0667 9.32 25.3733 9.8 22.92 10.76C20.52 11.72 18.4133 13.08 16.6 14.84C14.84 16.6 13.4533 18.68 12.44 21.08C11.48 23.48 11 26.12 11 29C11 31.88 11.48 34.52 12.44 36.92C13.4533 39.32 14.84 41.4 16.6 43.16C18.4133 44.92 20.52 46.28 22.92 47.24C25.3733 48.2 28.0667 48.68 31 48.68C33.9333 48.68 36.6533 48.1467 39.16 47.08C41.6667 45.96 43.9333 44.28 45.96 42.04L52.68 48.44C50.0667 51.48 46.8667 53.8 43.08 55.4C39.2933 57 35.08 57.8 30.44 57.8ZM75.6444 57.56C71.271 57.56 67.3777 56.6267 63.9644 54.76C60.551 52.84 57.8577 50.2267 55.8844 46.92C53.911 43.6133 52.9244 39.8533 52.9244 35.64C52.9244 31.3733 53.911 27.6133 55.8844 24.36C57.8577 21.0533 60.551 18.4667 63.9644 16.6C67.3777 14.7333 71.271 13.8 75.6444 13.8C80.071 13.8 83.991 14.7333 87.4044 16.6C90.871 18.4667 93.5644 21.0267 95.4844 24.28C97.4577 27.5333 98.4444 31.32 98.4444 35.64C98.4444 39.8533 97.4577 43.6133 95.4844 46.92C93.5644 50.2267 90.871 52.84 87.4044 54.76C83.991 56.6267 80.071 57.56 75.6444 57.56ZM75.6444 49C78.0977 49 80.2844 48.4667 82.2044 47.4C84.1244 46.3333 85.6177 44.7867 86.6844 42.76C87.8044 40.7333 88.3644 38.36 88.3644 35.64C88.3644 32.8667 87.8044 30.4933 86.6844 28.52C85.6177 26.4933 84.1244 24.9467 82.2044 23.88C80.2844 22.8133 78.1244 22.28 75.7244 22.28C73.271 22.28 71.0844 22.8133 69.1644 23.88C67.2977 24.9467 65.8044 26.4933 64.6844 28.52C63.5644 30.4933 63.0044 32.8667 63.0044 35.64C63.0044 38.36 63.5644 40.7333 64.6844 42.76C65.8044 44.7867 67.2977 46.3333 69.1644 47.4C71.0844 48.4667 73.2444 49 75.6444 49ZM158.327 13.8C161.74 13.8 164.754 14.4667 167.367 15.8C170.034 17.1333 172.114 19.1867 173.607 21.96C175.1 24.68 175.847 28.2 175.847 32.52V57H165.847V33.8C165.847 30.0133 165.02 27.1867 163.367 25.32C161.714 23.4533 159.34 22.52 156.247 22.52C154.06 22.52 152.114 23 150.407 23.96C148.754 24.92 147.447 26.3333 146.487 28.2C145.58 30.0667 145.127 32.44 145.127 35.32V57H135.127V33.8C135.127 30.0133 134.3 27.1867 132.647 25.32C130.994 23.4533 128.62 22.52 125.527 22.52C123.34 22.52 121.394 23 119.687 23.96C118.034 24.92 116.727 26.3333 115.767 28.2C114.86 30.0667 114.407 32.44 114.407 35.32V57H104.407V14.28H113.927V25.64L112.247 22.28C113.687 19.5067 115.767 17.4 118.487 15.96C121.26 14.52 124.407 13.8 127.927 13.8C131.927 13.8 135.394 14.7867 138.327 16.76C141.314 18.7333 143.287 21.72 144.247 25.72L140.327 24.36C141.714 21.16 144.007 18.6 147.207 16.68C150.407 14.76 154.114 13.8 158.327 13.8ZM208.706 57.56C205.239 57.56 202.066 56.76 199.186 55.16C196.359 53.56 194.092 51.16 192.386 47.96C190.732 44.7067 189.906 40.6 189.906 35.64C189.906 30.6267 190.706 26.52 192.306 23.32C193.959 20.12 196.199 17.7467 199.026 16.2C201.852 14.6 205.079 13.8 208.706 13.8C212.919 13.8 216.626 14.7067 219.826 16.52C223.079 18.3333 225.639 20.8667 227.506 24.12C229.426 27.3733 230.386 31.2133 230.386 35.64C230.386 40.0667 229.426 43.9333 227.506 47.24C225.639 50.4933 223.079 53.0267 219.826 54.84C216.626 56.6533 212.919 57.56 208.706 57.56ZM185.026 72.52V14.28H194.546V24.36L194.226 35.72L195.026 47.08V72.52H185.026ZM207.586 49C209.986 49 212.119 48.4667 213.986 47.4C215.906 46.3333 217.426 44.7867 218.546 42.76C219.666 40.7333 220.226 38.36 220.226 35.64C220.226 32.8667 219.666 30.4933 218.546 28.52C217.426 26.4933 215.906 24.9467 213.986 23.88C212.119 22.8133 209.986 22.28 207.586 22.28C205.186 22.28 203.026 22.8133 201.106 23.88C199.186 24.9467 197.666 26.4933 196.546 28.52C195.426 30.4933 194.866 32.8667 194.866 35.64C194.866 38.36 195.426 40.7333 196.546 42.76C197.666 44.7867 199.186 46.3333 201.106 47.4C203.026 48.4667 205.186 49 207.586 49ZM262.043 57V48.36L261.483 46.52V31.4C261.483 28.4667 260.603 26.2 258.843 24.6C257.083 22.9467 254.416 22.12 250.843 22.12C248.443 22.12 246.069 22.4933 243.723 23.24C241.429 23.9867 239.483 25.0267 237.883 26.36L233.963 19.08C236.256 17.32 238.976 16.0133 242.123 15.16C245.323 14.2533 248.629 13.8 252.043 13.8C258.229 13.8 263.003 15.2933 266.363 18.28C269.776 21.2133 271.483 25.7733 271.483 31.96V57H262.043ZM248.603 57.56C245.403 57.56 242.603 57.0267 240.203 55.96C237.803 54.84 235.936 53.32 234.603 51.4C233.323 49.4267 232.683 47.2133 232.683 44.76C232.683 42.36 233.243 40.2 234.363 38.28C235.536 36.36 237.429 34.84 240.043 33.72C242.656 32.6 246.123 32.04 250.443 32.04H262.843V38.68H251.163C247.749 38.68 245.456 39.24 244.283 40.36C243.109 41.4267 242.523 42.76 242.523 44.36C242.523 46.1733 243.243 47.6133 244.683 48.68C246.123 49.7467 248.123 50.28 250.683 50.28C253.136 50.28 255.323 49.72 257.243 48.6C259.216 47.48 260.629 45.8267 261.483 43.64L263.163 49.64C262.203 52.1467 260.469 54.0933 257.963 55.48C255.509 56.8667 252.389 57.56 248.603 57.56ZM304.956 13.8C308.37 13.8 311.41 14.4667 314.076 15.8C316.796 17.1333 318.93 19.1867 320.476 21.96C322.023 24.68 322.796 28.2 322.796 32.52V57H312.796V33.8C312.796 30.0133 311.89 27.1867 310.076 25.32C308.316 23.4533 305.836 22.52 302.636 22.52C300.29 22.52 298.21 23 296.396 23.96C294.583 24.92 293.17 26.36 292.156 28.28C291.196 30.1467 290.716 32.52 290.716 35.4V57H280.716V14.28H290.236V25.8L288.556 22.28C290.05 19.56 292.21 17.48 295.036 16.04C297.916 14.5467 301.223 13.8 304.956 13.8ZM334.621 73.08C332.541 73.08 330.461 72.7333 328.381 72.04C326.301 71.3467 324.567 70.3867 323.181 69.16L327.181 61.8C328.194 62.7067 329.341 63.4267 330.621 63.96C331.901 64.4933 333.207 64.76 334.541 64.76C336.354 64.76 337.821 64.3067 338.941 63.4C340.061 62.4933 341.101 60.9733 342.061 58.84L344.541 53.24L345.341 52.04L361.501 14.28H371.101L351.101 60.44C349.767 63.64 348.274 66.1733 346.621 68.04C345.021 69.9067 343.207 71.2133 341.181 71.96C339.207 72.7067 337.021 73.08 334.621 73.08ZM343.421 58.52L324.141 14.28H334.541L350.221 51.16L343.421 58.52Z" fill="#F5F5F5"/>
</g>
</svg>
