<svg width="287" height="57" viewBox="0 0 287 57" fill="none" xmlns="http://www.w3.org/2000/svg">
<g style="mix-blend-mode:multiply">
<path d="M10.04 25.76H37.96V34.56H10.04V25.76ZM10.92 56H0.52V-3.8147e-06H41.4V8.72H10.92V56ZM65.8056 56.56C61.059 56.56 56.899 55.6267 53.3256 53.76C49.8056 51.84 47.059 49.2267 45.0856 45.92C43.1656 42.6133 42.2056 38.8533 42.2056 34.64C42.2056 30.3733 43.139 26.6133 45.0056 23.36C46.9256 20.0533 49.539 17.4667 52.8456 15.6C56.2056 13.7333 60.019 12.8 64.2856 12.8C68.4456 12.8 72.1523 13.7067 75.4056 15.52C78.659 17.3333 81.219 19.8933 83.0856 23.2C84.9523 26.5067 85.8856 30.4 85.8856 34.88C85.8856 35.3067 85.859 35.7867 85.8056 36.32C85.8056 36.8533 85.779 37.36 85.7256 37.84H50.1256V31.2H80.4456L76.5256 33.28C76.579 30.8267 76.0723 28.6667 75.0056 26.8C73.939 24.9333 72.4723 23.4667 70.6056 22.4C68.7923 21.3333 66.6856 20.8 64.2856 20.8C61.8323 20.8 59.6723 21.3333 57.8056 22.4C55.9923 23.4667 54.5523 24.96 53.4856 26.88C52.4723 28.7467 51.9656 30.96 51.9656 33.52V35.12C51.9656 37.68 52.5523 39.9467 53.7256 41.92C54.899 43.8933 56.5523 45.4133 58.6856 46.48C60.819 47.5467 63.2723 48.08 66.0456 48.08C68.4456 48.08 70.6056 47.7067 72.5256 46.96C74.4456 46.2133 76.1523 45.04 77.6456 43.44L83.0056 49.6C81.0856 51.84 78.659 53.5733 75.7256 54.8C72.8456 55.9733 69.539 56.56 65.8056 56.56ZM117.039 56V47.36L116.479 45.52V30.4C116.479 27.4667 115.599 25.2 113.839 23.6C112.079 21.9467 109.413 21.12 105.839 21.12C103.439 21.12 101.066 21.4933 98.7194 22.24C96.426 22.9867 94.4794 24.0267 92.8794 25.36L88.9594 18.08C91.2527 16.32 93.9727 15.0133 97.1194 14.16C100.319 13.2533 103.626 12.8 107.039 12.8C113.226 12.8 117.999 14.2933 121.359 17.28C124.773 20.2133 126.479 24.7733 126.479 30.96V56H117.039ZM103.599 56.56C100.399 56.56 97.5994 56.0267 95.1994 54.96C92.7994 53.84 90.9327 52.32 89.5994 50.4C88.3194 48.4267 87.6794 46.2133 87.6794 43.76C87.6794 41.36 88.2394 39.2 89.3594 37.28C90.5327 35.36 92.426 33.84 95.0394 32.72C97.6527 31.6 101.119 31.04 105.439 31.04H117.839V37.68H106.159C102.746 37.68 100.453 38.24 99.2794 39.36C98.106 40.4267 97.5194 41.76 97.5194 43.36C97.5194 45.1733 98.2394 46.6133 99.6794 47.68C101.119 48.7467 103.119 49.28 105.679 49.28C108.133 49.28 110.319 48.72 112.239 47.6C114.213 46.48 115.626 44.8267 116.479 42.64L118.159 48.64C117.199 51.1467 115.466 53.0933 112.959 54.48C110.506 55.8667 107.386 56.56 103.599 56.56ZM151.793 56.56C147.1 56.56 143.473 55.36 140.913 52.96C138.353 50.5067 137.073 46.9067 137.073 42.16V3.84H147.073V41.92C147.073 43.9467 147.58 45.52 148.593 46.64C149.66 47.76 151.126 48.32 152.993 48.32C155.233 48.32 157.1 47.7333 158.593 46.56L161.393 53.68C160.22 54.64 158.78 55.36 157.073 55.84C155.366 56.32 153.606 56.56 151.793 56.56ZM130.033 21.6V13.6H158.513V21.6H130.033ZM184.099 56.56C180.473 56.56 177.273 55.8933 174.499 54.56C171.726 53.1733 169.566 51.0933 168.019 48.32C166.473 45.4933 165.699 41.9467 165.699 37.68V13.28H175.699V36.32C175.699 40.16 176.553 43.04 178.259 44.96C180.019 46.8267 182.499 47.76 185.699 47.76C188.046 47.76 190.073 47.28 191.779 46.32C193.539 45.36 194.899 43.92 195.859 42C196.873 40.08 197.379 37.7067 197.379 34.88V13.28H207.379V56H197.859V44.48L199.539 48C198.099 50.7733 195.993 52.9067 193.219 54.4C190.446 55.84 187.406 56.56 184.099 56.56ZM216.873 56V13.28H226.393V25.04L225.273 21.6C226.553 18.72 228.553 16.5333 231.273 15.04C234.046 13.5467 237.486 12.8 241.593 12.8V22.32C241.166 22.2133 240.766 22.16 240.393 22.16C240.019 22.1067 239.646 22.08 239.273 22.08C235.486 22.08 232.473 23.2 230.233 25.44C227.993 27.6267 226.873 30.9067 226.873 35.28V56H216.873ZM266.165 56.56C261.418 56.56 257.258 55.6267 253.685 53.76C250.165 51.84 247.418 49.2267 245.445 45.92C243.525 42.6133 242.565 38.8533 242.565 34.64C242.565 30.3733 243.498 26.6133 245.365 23.36C247.285 20.0533 249.898 17.4667 253.205 15.6C256.565 13.7333 260.378 12.8 264.645 12.8C268.805 12.8 272.512 13.7067 275.765 15.52C279.018 17.3333 281.578 19.8933 283.445 23.2C285.312 26.5067 286.245 30.4 286.245 34.88C286.245 35.3067 286.218 35.7867 286.165 36.32C286.165 36.8533 286.138 37.36 286.085 37.84H250.485V31.2H280.805L276.885 33.28C276.938 30.8267 276.432 28.6667 275.365 26.8C274.298 24.9333 272.832 23.4667 270.965 22.4C269.152 21.3333 267.045 20.8 264.645 20.8C262.192 20.8 260.032 21.3333 258.165 22.4C256.352 23.4667 254.912 24.96 253.845 26.88C252.832 28.7467 252.325 30.96 252.325 33.52V35.12C252.325 37.68 252.912 39.9467 254.085 41.92C255.258 43.8933 256.912 45.4133 259.045 46.48C261.178 47.5467 263.632 48.08 266.405 48.08C268.805 48.08 270.965 47.7067 272.885 46.96C274.805 46.2133 276.512 45.04 278.005 43.44L283.365 49.6C281.445 51.84 279.018 53.5733 276.085 54.8C273.205 55.9733 269.898 56.56 266.165 56.56Z" fill="#F5F5F5"/>
</g>
</svg>
