<svg width="345" height="46" viewBox="0 0 345 46" fill="none" xmlns="http://www.w3.org/2000/svg">
<g style="mix-blend-mode:multiply">
<path d="M31.504 0.199997H39.824V45H31.504V0.199997ZM8.336 45H0.0160003V0.199997H8.336V45ZM32.144 25.8H7.632V18.696H32.144V25.8ZM62.8205 45.448C59.3218 45.448 56.2072 44.7013 53.4765 43.208C50.7458 41.672 48.5912 39.5813 47.0125 36.936C45.4338 34.2907 44.6445 31.2827 44.6445 27.912C44.6445 24.4987 45.4338 21.4907 47.0125 18.888C48.5912 16.2427 50.7458 14.1733 53.4765 12.68C56.2072 11.1867 59.3218 10.44 62.8205 10.44C66.3618 10.44 69.4978 11.1867 72.2285 12.68C75.0018 14.1733 77.1565 16.2213 78.6925 18.824C80.2712 21.4267 81.0605 24.456 81.0605 27.912C81.0605 31.2827 80.2712 34.2907 78.6925 36.936C77.1565 39.5813 75.0018 41.672 72.2285 43.208C69.4978 44.7013 66.3618 45.448 62.8205 45.448ZM62.8205 38.6C64.7832 38.6 66.5325 38.1733 68.0685 37.32C69.6045 36.4667 70.7992 35.2293 71.6525 33.608C72.5485 31.9867 72.9965 30.088 72.9965 27.912C72.9965 25.6933 72.5485 23.7947 71.6525 22.216C70.7992 20.5947 69.6045 19.3573 68.0685 18.504C66.5325 17.6507 64.8045 17.224 62.8845 17.224C60.9218 17.224 59.1725 17.6507 57.6365 18.504C56.1432 19.3573 54.9485 20.5947 54.0525 22.216C53.1565 23.7947 52.7085 25.6933 52.7085 27.912C52.7085 30.088 53.1565 31.9867 54.0525 33.608C54.9485 35.2293 56.1432 36.4667 57.6365 37.32C59.1725 38.1733 60.9005 38.6 62.8205 38.6ZM91.725 45L79.181 10.824H86.733L97.485 40.968H93.901L105.165 10.824H111.885L122.829 40.968H119.309L130.381 10.824H137.485L124.877 45H117.197L107.213 18.312H109.581L99.405 45H91.725ZM163.329 45V7.24H148.481V0.199997H186.497V7.24H171.649V45H163.329ZM200.233 45.448C196.734 45.448 193.62 44.7013 190.889 43.208C188.158 41.672 186.004 39.5813 184.425 36.936C182.846 34.2907 182.057 31.2827 182.057 27.912C182.057 24.4987 182.846 21.4907 184.425 18.888C186.004 16.2427 188.158 14.1733 190.889 12.68C193.62 11.1867 196.734 10.44 200.233 10.44C203.774 10.44 206.91 11.1867 209.641 12.68C212.414 14.1733 214.569 16.2213 216.105 18.824C217.684 21.4267 218.473 24.456 218.473 27.912C218.473 31.2827 217.684 34.2907 216.105 36.936C214.569 39.5813 212.414 41.672 209.641 43.208C206.91 44.7013 203.774 45.448 200.233 45.448ZM200.233 38.6C202.196 38.6 203.945 38.1733 205.481 37.32C207.017 36.4667 208.212 35.2293 209.065 33.608C209.961 31.9867 210.409 30.088 210.409 27.912C210.409 25.6933 209.961 23.7947 209.065 22.216C208.212 20.5947 207.017 19.3573 205.481 18.504C203.945 17.6507 202.217 17.224 200.297 17.224C198.334 17.224 196.585 17.6507 195.049 18.504C193.556 19.3573 192.361 20.5947 191.465 22.216C190.569 23.7947 190.121 25.6933 190.121 27.912C190.121 30.088 190.569 31.9867 191.465 33.608C192.361 35.2293 193.556 36.4667 195.049 37.32C196.585 38.1733 198.313 38.6 200.233 38.6ZM256.643 45.64C250.499 45.64 245.677 43.912 242.179 40.456C238.723 37 236.995 32.008 236.995 25.48V0.199997H245.315V25.16C245.315 29.768 246.296 33.1173 248.259 35.208C250.264 37.2987 253.08 38.344 256.707 38.344C260.333 38.344 263.128 37.2987 265.091 35.208C267.053 33.1173 268.035 29.768 268.035 25.16V0.199997H276.227V25.48C276.227 32.008 274.477 37 270.979 40.456C267.523 43.912 262.744 45.64 256.643 45.64ZM294.071 45.448C291.212 45.448 288.46 45.0853 285.815 44.36C283.212 43.592 281.143 42.6747 279.607 41.608L282.679 35.528C284.215 36.5093 286.049 37.32 288.183 37.96C290.316 38.6 292.449 38.92 294.583 38.92C297.1 38.92 298.913 38.5787 300.023 37.896C301.175 37.2133 301.751 36.296 301.751 35.144C301.751 34.2053 301.367 33.5013 300.599 33.032C299.831 32.52 298.828 32.136 297.591 31.88C296.353 31.624 294.967 31.3893 293.431 31.176C291.937 30.9627 290.423 30.6853 288.887 30.344C287.393 29.96 286.028 29.4267 284.791 28.744C283.553 28.0187 282.551 27.0587 281.783 25.864C281.015 24.6693 280.631 23.0907 280.631 21.128C280.631 18.952 281.249 17.0747 282.487 15.496C283.724 13.8747 285.452 12.6373 287.671 11.784C289.932 10.888 292.599 10.44 295.671 10.44C297.975 10.44 300.3 10.696 302.647 11.208C304.993 11.72 306.935 12.4453 308.471 13.384L305.399 19.464C303.777 18.4827 302.135 17.8213 300.471 17.48C298.849 17.096 297.228 16.904 295.607 16.904C293.175 16.904 291.361 17.2667 290.167 17.992C289.015 18.7173 288.439 19.6347 288.439 20.744C288.439 21.768 288.823 22.536 289.591 23.048C290.359 23.56 291.361 23.9653 292.599 24.264C293.836 24.5627 295.201 24.8187 296.695 25.032C298.231 25.2027 299.745 25.48 301.239 25.864C302.732 26.248 304.097 26.7813 305.335 27.464C306.615 28.104 307.639 29.0213 308.407 30.216C309.175 31.4107 309.559 32.968 309.559 34.888C309.559 37.0213 308.919 38.8773 307.639 40.456C306.401 42.0347 304.631 43.272 302.327 44.168C300.023 45.0213 297.271 45.448 294.071 45.448ZM328.912 45.448C325.115 45.448 321.787 44.7013 318.928 43.208C316.112 41.672 313.915 39.5813 312.336 36.936C310.8 34.2907 310.032 31.2827 310.032 27.912C310.032 24.4987 310.779 21.4907 312.272 18.888C313.808 16.2427 315.899 14.1733 318.544 12.68C321.232 11.1867 324.283 10.44 327.696 10.44C331.024 10.44 333.989 11.1653 336.592 12.616C339.195 14.0667 341.243 16.1147 342.736 18.76C344.229 21.4053 344.976 24.52 344.976 28.104C344.976 28.4453 344.955 28.8293 344.912 29.256C344.912 29.6827 344.891 30.088 344.848 30.472H316.368V25.16H340.624L337.488 26.824C337.531 24.8613 337.125 23.1333 336.272 21.64C335.419 20.1467 334.245 18.9733 332.752 18.12C331.301 17.2667 329.616 16.84 327.696 16.84C325.733 16.84 324.005 17.2667 322.512 18.12C321.061 18.9733 319.909 20.168 319.056 21.704C318.245 23.1973 317.84 24.968 317.84 27.016V28.296C317.84 30.344 318.309 32.1573 319.248 33.736C320.187 35.3147 321.509 36.5307 323.216 37.384C324.923 38.2373 326.885 38.664 329.104 38.664C331.024 38.664 332.752 38.3653 334.288 37.768C335.824 37.1707 337.189 36.232 338.384 34.952L342.672 39.88C341.136 41.672 339.195 43.0587 336.848 44.04C334.544 44.9787 331.899 45.448 328.912 45.448Z" fill="#F5F5F5"/>
</g>
</svg>
