<svg width="20" height="20" viewBox="0 0 20 20" fill="none" xmlns="http://www.w3.org/2000/svg">
<path d="M10 20C8.61667 20 7.31667 19.7373 6.1 19.212C4.88333 18.6867 3.825 17.9743 2.925 17.075C2.025 16.175 1.31267 15.1167 0.788 13.9C0.263333 12.6833 0.000666667 11.3833 0 10C0 8.61667 0.262667 7.31667 0.788 6.1C1.31333 4.88333 2.02567 3.825 2.925 2.925C3.825 2.025 4.88333 1.31267 6.1 0.788C7.31667 0.263333 8.61667 0.000666667 10 0C11.3833 0 12.6833 0.262667 13.9 0.788C15.1167 1.31333 16.175 2.02567 17.075 2.925C17.975 3.825 18.6877 4.88333 19.213 6.1C19.7383 7.31667 20.0007 8.61667 20 10C20 11.3833 19.7373 12.6833 19.212 13.9C18.6867 15.1167 17.9743 16.175 17.075 17.075C16.175 17.975 15.1167 18.6877 13.9 19.213C12.6833 19.7383 11.3833 20.0007 10 20ZM10.2 11L9.3 11.9C9.11667 12.0833 9.025 12.3167 9.025 12.6C9.025 12.8833 9.11667 13.1167 9.3 13.3C9.48333 13.4833 9.71667 13.575 10 13.575C10.2833 13.575 10.5167 13.4833 10.7 13.3L13.3 10.7C13.5 10.5 13.6 10.2667 13.6 10C13.6 9.73333 13.5 9.5 13.3 9.3L10.7 6.7C10.5167 6.51667 10.2833 6.425 10 6.425C9.71667 6.425 9.48333 6.51667 9.3 6.7C9.11667 6.88333 9.025 7.11667 9.025 7.4C9.025 7.68333 9.11667 7.91667 9.3 8.1L10.2 9H7C6.71667 9 6.479 9.096 6.287 9.288C6.095 9.48 5.99933 9.71733 6 10C6 10.2833 6.096 10.521 6.288 10.713C6.48 10.905 6.71733 11.0007 7 11H10.2Z" fill="#214269"/>
</svg>
