<svg width="100" height="25" viewBox="0 0 100 25" fill="none" xmlns="http://www.w3.org/2000/svg">
<path d="M26.8026 2.73455H28.0471V12.6114C28.0471 13.4169 27.7637 14.1049 27.1967 14.6718C26.6297 15.2388 25.9452 15.5223 25.1432 15.5223C24.3412 15.5223 23.6567 15.2388 23.0897 14.6718C22.5227 14.1049 22.2393 13.4169 22.2393 12.6114V12.366H23.4838V12.6114C23.4838 13.0781 23.6463 13.4722 23.9678 13.7972C24.2893 14.1187 24.68 14.2812 25.1432 14.2812C25.6064 14.2812 25.9971 14.1221 26.3186 13.7972C26.6401 13.4757 26.8026 13.0816 26.8026 12.6114V2.73455Z" fill="#727171"/>
<path d="M37.8893 6.11902H39.1339V11.8716C39.1339 12.5284 38.9714 13.1334 38.643 13.6969C38.3145 14.257 37.8755 14.6995 37.3189 15.021C36.7623 15.3425 36.1573 15.505 35.5039 15.505C34.4979 15.505 33.6406 15.1524 32.9353 14.4437C32.2266 13.735 31.874 12.8811 31.874 11.875V6.12248H33.1186V11.875C33.1186 12.5423 33.3537 13.1092 33.8204 13.5759C34.2871 14.0426 34.8506 14.2777 35.5039 14.2777C36.1573 14.2777 36.7208 14.0426 37.1875 13.5759C37.6542 13.1092 37.8893 12.5423 37.8893 11.875V6.12248V6.11902Z" fill="#727171"/>
<path d="M48.8558 10.627C49.4401 11.1871 49.7339 11.8681 49.7339 12.6632C49.7339 13.4584 49.4573 14.1152 48.9007 14.6718C48.3442 15.2284 47.6769 15.505 46.8922 15.505H44.7177C44.0055 15.505 43.3833 15.2768 42.8578 14.8205C42.3323 14.3641 42.0143 13.7799 41.9105 13.0677L41.876 12.7877H43.1032L43.1551 12.9813C43.2242 13.3547 43.4075 13.6658 43.6979 13.9113C43.9882 14.1567 44.3305 14.2812 44.7142 14.2812H46.8887C47.3209 14.2812 47.6942 14.1221 48.0123 13.8075C48.3269 13.4929 48.4859 13.1161 48.4859 12.6771C48.4859 12.238 48.3269 11.8612 48.0123 11.5466C47.6977 11.232 47.3209 11.073 46.8887 11.073H44.6244C43.888 11.073 43.2726 10.8033 42.7817 10.2675C42.36 9.78697 42.1491 9.23383 42.1491 8.60119C42.1491 8.15523 42.2563 7.74384 42.4741 7.36356C42.6918 6.98328 42.9926 6.68251 43.3763 6.46126C43.7635 6.24001 44.1784 6.12938 44.6209 6.12938H46.9717C47.5801 6.12938 48.1125 6.32644 48.5689 6.71709C49.0252 7.10773 49.3052 7.6021 49.4124 8.20017L49.4643 8.49748H48.2197L48.1678 8.30388C48.0987 8.02386 47.9501 7.79569 47.7288 7.61938C47.5075 7.44307 47.2552 7.35664 46.9752 7.35664H44.6244C44.2856 7.35664 43.9917 7.4811 43.7463 7.72655C43.5008 7.972 43.3763 8.26585 43.3763 8.60465C43.3763 8.94344 43.5008 9.23383 43.7463 9.47237C43.9917 9.71091 44.2856 9.83191 44.6244 9.83191H46.8887C47.6493 9.83191 48.3027 10.1016 48.8523 10.6374L48.8558 10.627Z" fill="#727171"/>
<path d="M61.5531 3.96181H53.5361V2.73455H61.5531V3.96181ZM58.1686 15.5223H56.9241V4.33172H58.1686V15.5223Z" fill="#727171"/>
<path d="M62.8603 7.49839C63.7799 6.57881 64.8827 6.12247 66.1756 6.12247C67.4686 6.12247 68.5748 6.58227 69.5013 7.49839C70.4244 8.41797 70.8876 9.52078 70.8876 10.8137C70.8876 12.1067 70.4244 13.2129 69.5013 14.1291C68.5783 15.0486 67.4686 15.505 66.1756 15.505C64.8827 15.505 63.7764 15.0452 62.8603 14.1291C61.9407 13.2095 61.4844 12.1067 61.4844 10.8137C61.4844 9.52078 61.9442 8.41797 62.8603 7.49839ZM63.7384 13.2613C64.4091 13.9389 65.2249 14.2777 66.1756 14.2777C67.1263 14.2777 67.9456 13.9389 68.6232 13.2613C69.3008 12.5837 69.6396 11.7713 69.6396 10.8241C69.6396 9.87686 69.3008 9.04716 68.6232 8.36957C67.9456 7.69199 67.1298 7.35319 66.1756 7.35319C65.2215 7.35319 64.4091 7.69199 63.7384 8.36957C63.0643 9.04716 62.7289 9.86648 62.7289 10.8241C62.7289 11.7817 63.0643 12.5837 63.7384 13.2613Z" fill="#727171"/>
<path d="M78.9557 6.11902H80.2003V11.8716C80.2003 12.5284 80.0378 13.1334 79.7094 13.6969C79.381 14.257 78.9419 14.6995 78.3853 15.021C77.8287 15.3425 77.2237 15.505 76.5704 15.505C75.5643 15.505 74.707 15.1524 74.0017 14.4437C73.293 13.735 72.9404 12.8811 72.9404 11.875V6.12248H74.185V11.875C74.185 12.5423 74.4201 13.1092 74.8868 13.5759C75.3535 14.0426 75.917 14.2777 76.5704 14.2777C77.2237 14.2777 77.7872 14.0426 78.2539 13.5759C78.7207 13.1092 78.9557 12.5423 78.9557 11.875V6.12248V6.11902Z" fill="#727171"/>
<path d="M86.9389 7.36702C85.9813 7.36702 85.1654 7.70581 84.4913 8.3834C83.8172 9.06098 83.4818 9.87685 83.4818 10.831C83.4818 11.7852 83.8172 12.5976 84.4913 13.2682C85.162 13.9424 85.9779 14.2777 86.9389 14.2777H90.0952V15.5223H86.9389C85.6425 15.5223 84.5328 15.0625 83.6132 14.1463C82.6936 13.2268 82.2373 12.124 82.2373 10.831C82.2373 9.53806 82.6971 8.43525 83.6132 7.51567C84.5328 6.59609 85.6391 6.13976 86.9389 6.13976H90.0952V7.36702H86.9389Z" fill="#727171"/>
<path d="M93.3764 15.5223H92.1318V2.73455H93.3764V15.5223ZM96.0591 6.11902C97.1342 6.11902 98.0573 6.50622 98.8213 7.27714C99.5887 8.04807 99.969 8.97457 99.969 10.0497V15.5223H98.7418V10.0497C98.7418 9.31336 98.479 8.68071 97.9535 8.15524C97.4281 7.62976 96.7954 7.36703 96.0591 7.36703C95.5785 7.36703 95.1291 7.49148 94.7074 7.74385C94.2856 7.99621 93.9572 8.33155 93.7255 8.75331V6.91069C94.417 6.38522 95.1913 6.12248 96.0591 6.12248V6.11902Z" fill="#727171"/>
<path d="M23.2242 20.5004C23.0514 20.5004 22.9062 20.5592 22.7886 20.6802C22.6711 20.7977 22.6089 20.9429 22.6089 21.1123C22.6089 21.2817 22.6676 21.4269 22.7886 21.5445C22.9062 21.662 23.0514 21.7242 23.2242 21.7242H23.7601C24.0263 21.7242 24.2648 21.8072 24.4791 21.9697C24.6278 22.0803 24.7453 22.2186 24.8318 22.3845C24.9147 22.5505 24.9562 22.7302 24.9562 22.9204C24.9562 23.2453 24.8387 23.5254 24.6071 23.7604C24.372 23.9955 24.092 24.1131 23.7635 24.1131H22.2217V23.7224H23.7635C23.9848 23.7224 24.1749 23.6429 24.334 23.4873C24.493 23.3318 24.569 23.1416 24.569 22.9204C24.569 22.6991 24.4895 22.509 24.334 22.3534C24.1784 22.1978 23.9882 22.1183 23.7635 22.1183H23.2277C22.9753 22.1183 22.7541 22.0354 22.5639 21.8729C22.3358 21.6758 22.2251 21.4269 22.2251 21.1227C22.2251 20.8461 22.3219 20.6076 22.519 20.414C22.716 20.2169 22.9511 20.1201 23.2277 20.1201H24.9597V20.5108H23.2277L23.2242 20.5004Z" fill="#727171"/>
<path d="M28.5972 20.1132V20.5039H26.3052V23.7224H28.5972V24.1131H25.918V20.1167H28.5972V20.1132ZM28.4209 21.9939H26.4158V21.6102H28.4209V21.9939Z" fill="#727171"/>
<path d="M29.9551 23.6084H29.5645V20.1098H29.9551V23.6084ZM32.2471 24.1062H29.5679V23.7155H32.2471V24.1062Z" fill="#727171"/>
<path d="M33.2183 20.1132H35.8975V20.5039H33.6055V24.1096H33.2148V20.1132H33.2183ZM35.7247 21.9939H33.7196V21.6102H35.7247V21.9939Z" fill="#727171"/>
<path d="M39.1377 24.1096H38.7471V20.1132H39.1377V24.1096Z" fill="#727171"/>
<path d="M40.1025 20.7113V20.1132L43.0134 23.5185V24.1096L40.1025 20.7113ZM40.1025 24.1096V20.8876L40.4932 21.3474V24.1096H40.1025ZM42.6227 20.1132H43.0134V23.3421L42.6227 22.8858V20.1132Z" fill="#727171"/>
<path d="M46.4839 20.497H43.9775V20.1132H46.4839V20.497ZM45.4261 24.1096H45.0354V20.6111H45.4261V24.1096Z" fill="#727171"/>
<path d="M48.8074 22.5021L50.3147 24.1096H49.7823L47.9224 22.1149H48.9802C49.2015 22.1149 49.3916 22.0354 49.5507 21.8798C49.7062 21.7242 49.7857 21.5341 49.7857 21.3094C49.7857 21.1642 49.7512 21.0294 49.6786 20.9049C49.606 20.7805 49.5092 20.6837 49.3847 20.6076C49.2603 20.535 49.1254 20.497 48.9802 20.497H47.836V24.1096H47.4453V20.1132H48.9802C49.3087 20.1132 49.5922 20.2308 49.8238 20.4659C50.0589 20.7009 50.1729 20.981 50.1729 21.3094C50.1729 21.6378 50.0554 21.9213 49.8238 22.1529C49.5922 22.3845 49.3087 22.5055 48.9802 22.5055H48.8039L48.8074 22.5021Z" fill="#727171"/>
<path d="M53.2809 20.1132C53.6439 20.1132 53.9757 20.2031 54.2834 20.3829C54.5911 20.5627 54.8331 20.8047 55.0129 21.1123C55.1926 21.42 55.2825 21.7519 55.2825 22.1114C55.2825 22.471 55.1926 22.8063 55.0129 23.1105C54.8331 23.4182 54.5911 23.6602 54.2834 23.84C53.9757 24.0197 53.6404 24.1096 53.2809 24.1096C52.9213 24.1096 52.586 24.0197 52.2818 23.84C51.9775 23.6602 51.7356 23.4182 51.5558 23.1105C51.376 22.8028 51.2861 22.4675 51.2861 22.108C51.2861 21.8383 51.338 21.579 51.4452 21.3336C51.5523 21.0881 51.6941 20.8738 51.8704 20.6975C52.0467 20.5212 52.261 20.3794 52.5065 20.2723C52.7519 20.1651 53.0112 20.1132 53.2809 20.1132ZM52.1469 23.2488C52.4615 23.5634 52.8418 23.719 53.2843 23.719C53.7268 23.719 54.1071 23.5634 54.4217 23.2488C54.7363 22.9342 54.8919 22.5539 54.8919 22.1114C54.8919 21.6689 54.7363 21.2886 54.4217 20.9741C54.1071 20.6595 53.7268 20.5039 53.2843 20.5039C52.8418 20.5039 52.4615 20.6595 52.1469 20.9741C51.8323 21.2886 51.6768 21.6689 51.6768 22.1114C51.6768 22.5539 51.8323 22.9342 52.1469 23.2488Z" fill="#727171"/>
<path d="M57.1621 20.1132C57.5251 20.1132 57.857 20.2031 58.1647 20.3829C58.4724 20.5627 58.7144 20.8047 58.8941 21.1123C59.0739 21.42 59.1638 21.7519 59.1638 22.1114C59.1638 22.2912 59.1396 22.4641 59.0946 22.6334C59.0497 22.8028 58.984 22.9619 58.8941 23.114C58.8077 23.2661 58.7005 23.4044 58.5761 23.5288C58.3859 23.719 58.1681 23.8642 57.9262 23.9644C57.6842 24.0647 57.4283 24.1165 57.1621 24.1165H56.2529V20.6076H56.6436V23.7259H57.1656C57.6116 23.7259 57.9918 23.5703 58.3064 23.2557C58.621 22.9411 58.7766 22.5609 58.7766 22.1183C58.7766 21.6758 58.621 21.2956 58.3064 20.981C57.9918 20.6664 57.6116 20.5108 57.1656 20.5108H56.2564V20.1202H57.1656L57.1621 20.1132Z" fill="#727171"/>
<path d="M62.4767 20.1132H62.8604V22.7441C62.8604 23.1209 62.7256 23.4424 62.4594 23.7086C62.1932 23.9748 61.8717 24.1096 61.4949 24.1096C61.2494 24.1096 61.0213 24.0474 60.8139 23.9264C60.603 23.8054 60.437 23.636 60.316 23.4286C60.195 23.2177 60.1328 22.9895 60.1328 22.7475V20.1167H60.5235V22.7475C60.5235 23.0172 60.6168 23.2488 60.8069 23.4389C60.9971 23.6291 61.2287 23.7224 61.4984 23.7224C61.768 23.7224 61.9996 23.6291 62.1932 23.4389C62.3868 23.2488 62.4802 23.0172 62.4802 22.7475V20.1167L62.4767 20.1132Z" fill="#727171"/>
<path d="M67.25 22.8824L67.2708 22.8374H67.6994L67.6441 22.9515C67.4816 23.3007 67.2396 23.5842 66.9112 23.7916C66.5828 24.0025 66.2233 24.1062 65.8361 24.1062C65.4765 24.1062 65.1447 24.0163 64.837 23.8365C64.5293 23.6568 64.2873 23.4148 64.1075 23.1071C63.9278 22.7994 63.8379 22.4675 63.8379 22.108C63.8379 21.7485 63.9278 21.4131 64.1075 21.1089C64.2873 20.8012 64.5293 20.5592 64.837 20.3795C65.1447 20.1997 65.4765 20.1098 65.8361 20.1098C66.2233 20.1098 66.5828 20.2135 66.9112 20.4244C67.2396 20.6353 67.4851 20.9153 67.6441 21.2645L67.6994 21.3751H67.2708L67.25 21.3371C67.1083 21.0778 66.9112 20.8738 66.6589 20.7217C66.4065 20.5731 66.1334 20.497 65.8361 20.497C65.3936 20.497 65.0168 20.6526 64.7022 20.9672C64.3876 21.2818 64.232 21.662 64.232 22.1045C64.232 22.547 64.3876 22.9273 64.7022 23.2419C65.0168 23.5565 65.3936 23.7121 65.8361 23.7121C66.1334 23.7121 66.4065 23.636 66.6589 23.4874C66.9112 23.3387 67.1083 23.1313 67.25 22.872V22.8824Z" fill="#727171"/>
<path d="M71.1812 20.497H68.6748V20.1132H71.1812V20.497ZM70.1233 24.1096H69.7327V20.6111H70.1233V24.1096Z" fill="#727171"/>
<path d="M72.5332 24.1096H72.1426V20.1132H72.5332V24.1096Z" fill="#727171"/>
<path d="M75.4957 20.1132C75.8587 20.1132 76.1906 20.2031 76.4983 20.3829C76.8059 20.5627 77.0479 20.8047 77.2277 21.1123C77.4075 21.42 77.4974 21.7519 77.4974 22.1114C77.4974 22.471 77.4075 22.8063 77.2277 23.1105C77.0479 23.4182 76.8059 23.6602 76.4983 23.84C76.1906 24.0197 75.8552 24.1096 75.4957 24.1096C75.1362 24.1096 74.8008 24.0197 74.4966 23.84C74.1924 23.6602 73.9504 23.4182 73.7706 23.1105C73.5909 22.8028 73.501 22.4675 73.501 22.108C73.501 21.8383 73.5528 21.579 73.66 21.3336C73.7672 21.0881 73.9089 20.8738 74.0852 20.6975C74.2615 20.5212 74.4759 20.3794 74.7213 20.2723C74.9668 20.1651 75.2261 20.1132 75.4957 20.1132ZM74.3618 23.2488C74.6764 23.5634 75.0567 23.719 75.4992 23.719C75.9417 23.719 76.3219 23.5634 76.6365 23.2488C76.9511 22.9342 77.1067 22.5539 77.1067 22.1114C77.1067 21.6689 76.9511 21.2886 76.6365 20.9741C76.3219 20.6595 75.9417 20.5039 75.4992 20.5039C75.0567 20.5039 74.6764 20.6595 74.3618 20.9741C74.0472 21.2886 73.8916 21.6689 73.8916 22.1114C73.8916 22.5539 74.0472 22.9342 74.3618 23.2488Z" fill="#727171"/>
<path d="M78.4648 20.7113V20.1132L81.3757 23.5185V24.1096L78.4648 20.7113ZM78.4648 24.1096V20.8876L78.8555 21.3474V24.1096H78.4648ZM80.985 20.1132H81.3757V23.3421L80.985 22.8858V20.1132Z" fill="#727171"/>
<path d="M88 22.8824L88.0208 22.8374H88.4494L88.3941 22.9515C88.2316 23.3007 87.9897 23.5842 87.6612 23.7916C87.3328 24.0025 86.9733 24.1062 86.5861 24.1062C86.2265 24.1062 85.8947 24.0163 85.587 23.8365C85.2793 23.6568 85.0373 23.4148 84.8575 23.1071C84.6778 22.7994 84.5879 22.4675 84.5879 22.108C84.5879 21.7485 84.6778 21.4131 84.8575 21.1089C85.0373 20.8012 85.2793 20.5592 85.587 20.3795C85.8947 20.1997 86.2265 20.1098 86.5861 20.1098C86.9733 20.1098 87.3328 20.2135 87.6612 20.4244C87.9897 20.6353 88.2351 20.9153 88.3941 21.2645L88.4494 21.3751H88.0208L88 21.3371C87.8583 21.0778 87.6612 20.8738 87.4089 20.7217C87.1565 20.5731 86.8834 20.497 86.5861 20.497C86.1436 20.497 85.7668 20.6526 85.4522 20.9672C85.1376 21.2818 84.982 21.662 84.982 22.1045C84.982 22.547 85.1376 22.9273 85.4522 23.2419C85.7668 23.5565 86.1436 23.7121 86.5861 23.7121C86.8834 23.7121 87.1565 23.636 87.4089 23.4874C87.6612 23.3387 87.8583 23.1313 88 22.872V22.8824Z" fill="#727171"/>
<path d="M90.8487 20.1132L91.0561 20.6871L89.8323 24.1096H89.4209L90.8452 20.1132H90.8487ZM91.1183 20.8531L92.2799 24.1096H91.8685L91.5677 23.2695H90.2575L90.3958 22.8789H91.4329L90.9178 21.4304L91.1218 20.8496L91.1183 20.8531Z" fill="#727171"/>
<path d="M94.6101 22.5021L96.1174 24.1096H95.585L93.7251 22.1149H94.783C95.0042 22.1149 95.1944 22.0354 95.3534 21.8798C95.509 21.7242 95.5885 21.5341 95.5885 21.3094C95.5885 21.1642 95.5539 21.0294 95.4813 20.9049C95.4087 20.7805 95.3119 20.6837 95.1875 20.6076C95.063 20.535 94.9282 20.497 94.783 20.497H93.6387V24.1096H93.248V20.1132H94.783C95.1114 20.1132 95.3949 20.2308 95.6265 20.4659C95.8581 20.7009 95.9791 20.981 95.9791 21.3094C95.9791 21.6378 95.8616 21.9213 95.6265 22.1529C95.3914 22.388 95.1114 22.5055 94.783 22.5055H94.6067L94.6101 22.5021Z" fill="#727171"/>
<path d="M97.9981 20.1132C98.3611 20.1132 98.6929 20.2031 99.0006 20.3829C99.3083 20.5627 99.5503 20.8047 99.7301 21.1123C99.9098 21.42 99.9997 21.7519 99.9997 22.1114C99.9997 22.2912 99.9755 22.4641 99.9306 22.6334C99.8856 22.8028 99.8165 22.9619 99.7301 23.114C99.6436 23.2661 99.5365 23.4044 99.412 23.5288C99.2219 23.719 99.0041 23.8642 98.7621 23.9644C98.5201 24.0647 98.2643 24.1165 97.9981 24.1165H97.0889V20.6076H97.4795V23.7259H98.0015C98.4475 23.7259 98.8278 23.5703 99.1424 23.2557C99.457 22.9411 99.6125 22.5609 99.6125 22.1183C99.6125 21.6758 99.457 21.2956 99.1424 20.981C98.8278 20.6664 98.4475 20.5108 98.0015 20.5108H97.0923V20.1202H98.0015L97.9981 20.1132Z" fill="#727171"/>
<path d="M9.32372 18.6474C4.18306 18.6474 0 14.4644 0 9.32372C0 4.18306 4.18306 0 9.32372 0C14.4644 0 18.6474 4.18306 18.6474 9.32372C18.6474 14.4644 14.4644 18.6474 9.32372 18.6474ZM16.7841 9.32372C16.7841 5.20981 13.4376 1.86682 9.32372 1.86682C5.20981 1.86682 1.86336 5.20981 1.86336 9.32372C1.86336 13.4376 5.20981 16.7806 9.32372 16.7806C13.4376 16.7806 16.7841 13.4342 16.7841 9.32372Z" fill="#F39800"/>
<path d="M9.32401 14.9173C6.2403 14.9173 3.73047 12.4074 3.73047 9.32372C3.73047 6.24001 6.2403 3.73018 9.32401 3.73018C12.4077 3.73018 14.9176 6.24001 14.9176 9.32372C14.9176 12.4074 12.4077 14.9173 9.32401 14.9173ZM13.0542 9.32372C13.0542 7.26676 11.381 5.59354 9.32401 5.59354C7.26705 5.59354 5.59383 7.26676 5.59383 9.32372C5.59383 11.3807 7.26705 13.0539 9.32401 13.0539C11.381 13.0539 13.0542 11.3807 13.0542 9.32372Z" fill="#F39800"/>
<path d="M11.1867 9.32373C11.1867 10.3539 10.3501 11.1871 9.32332 11.1871C8.29657 11.1871 7.45996 10.3539 7.45996 9.32373C7.45996 8.29353 8.29657 7.46037 9.32332 7.46037C10.3501 7.46037 11.1867 8.29353 11.1867 9.32373Z" fill="#F39800"/>
</svg>
