<svg xmlns="http://www.w3.org/2000/svg" viewBox="0 0 182.25 56.09"><defs><style>.cls-1{fill:#123a8b;}</style></defs><title>logo</title><g id="レイヤー_2" data-name="レイヤー 2"><g id="レイヤー_1-2" data-name="レイヤー 1"><path class="cls-1" d="M41.71,47.6H44a2.2,2.2,0,0,1,2,1.11,2,2,0,0,1,.3.77,13.18,13.18,0,0,1,.05,1.4,9.57,9.57,0,0,1-.08,1.48,1.66,1.66,0,0,1-.11.38,3.36,3.36,0,0,1-.18.34,2.39,2.39,0,0,1-2,1.09H41.71Zm1,5.62h1.19a1.35,1.35,0,0,0,1.21-.57,1.08,1.08,0,0,0,.21-.54,11.28,11.28,0,0,0,0-1.2q0-.85,0-1.22a1.12,1.12,0,0,0-.26-.6,1.32,1.32,0,0,0-1.17-.55H42.7Z"/><path class="cls-1" d="M48.28,47.6h.94v.94h-.94Zm0,1.89h.94v4.67h-.94Z"/><path class="cls-1" d="M53.88,53.66a1.59,1.59,0,0,1-1.21.54,1.48,1.48,0,0,1-.76-.19,1.63,1.63,0,0,1-.48-.38,1.39,1.39,0,0,1-.26-.56,5.8,5.8,0,0,1-.09-1.25,6,6,0,0,1,.09-1.27,1.36,1.36,0,0,1,.26-.55,1.51,1.51,0,0,1,.48-.4,1.62,1.62,0,0,1,.76-.17,1.59,1.59,0,0,1,1.21.55v-.49h.94V54a2,2,0,0,1-.61,1.55,2.14,2.14,0,0,1-3-.27l.73-.58a1.8,1.8,0,0,0,.41.28,1.12,1.12,0,0,0,1.27-.13,1,1,0,0,0,.3-.75ZM52,51.82a5.09,5.09,0,0,0,0,.74.69.69,0,0,0,.15.35.88.88,0,0,0,.29.23.9.9,0,0,0,.92,0,.88.88,0,0,0,.28-.23.76.76,0,0,0,.16-.35,6.69,6.69,0,0,0,0-.74,7.11,7.11,0,0,0,0-.76.7.7,0,0,0-.16-.34,1.11,1.11,0,0,0-.28-.25,1,1,0,0,0-.92,0,1.11,1.11,0,0,0-.29.25.65.65,0,0,0-.15.34A5.41,5.41,0,0,0,52,51.82Z"/><path class="cls-1" d="M56.82,47.6h.94v.94h-.94Zm0,1.89h.94v4.67h-.94Z"/><path class="cls-1" d="M59.88,48.06h.94v1.42h.68v.71h-.68v2.72c0,.24.11.35.33.35h.35v.89H61a1.12,1.12,0,0,1-.81-.31,1.08,1.08,0,0,1-.32-.85V50.2h-.47v-.71h.47Z"/><path class="cls-1" d="M65.78,53.74h0a.78.78,0,0,1-.4.35,1.94,1.94,0,0,1-.75.12,1.7,1.7,0,0,1-1.21-.41,1.29,1.29,0,0,1-.45-1,1.33,1.33,0,0,1,.39-1,1.54,1.54,0,0,1,1.13-.4h1.3v-.49q0-.62-1-.6a1.7,1.7,0,0,0-.55.07.69.69,0,0,0-.33.29l-.74-.56a1.82,1.82,0,0,1,1.58-.68,2.5,2.5,0,0,1,1.41.33A1.36,1.36,0,0,1,66.72,51v3.19h-.94Zm0-1.56H64.66q-.82,0-.81.56a.5.5,0,0,0,.21.4,1,1,0,0,0,.67.18,1.64,1.64,0,0,0,.83-.14c.15-.1.22-.32.22-.67Z"/><path class="cls-1" d="M68.69,47.6h.94v5.35c0,.21.12.32.35.32h.32v.89h-.42A1.35,1.35,0,0,1,69,53.9a1,1,0,0,1-.35-.88Z"/><path class="cls-1" d="M74.74,47.6h.94V50a2.39,2.39,0,0,1,.56-.4,1.36,1.36,0,0,1,.64-.15,1.46,1.46,0,0,1,1.26.61,1.23,1.23,0,0,1,.26.58,10.42,10.42,0,0,1,0,2.38,1.25,1.25,0,0,1-.26.6,1.4,1.4,0,0,1-.51.43,1.64,1.64,0,0,1-.75.17,1.59,1.59,0,0,1-1.21-.54v.49h-.94Zm1.86,2.77a.85.85,0,0,0-.5.13.75.75,0,0,0-.28.34,1.63,1.63,0,0,0-.11.46,4.77,4.77,0,0,0,0,1,1.66,1.66,0,0,0,.11.47.76.76,0,0,0,.28.34.83.83,0,0,0,.5.13,1,1,0,0,0,.53-.13.73.73,0,0,0,.27-.33,1.73,1.73,0,0,0,.12-.48c0-.17,0-.34,0-.52s0-.37,0-.54a1.71,1.71,0,0,0-.12-.46.68.68,0,0,0-.27-.33A1,1,0,0,0,76.61,50.37Z"/><path class="cls-1" d="M80.31,49.49h.94v2.78a1,1,0,0,0,.27.74.9.9,0,0,0,.67.27.88.88,0,0,0,.66-.27,1,1,0,0,0,.26-.74V49.49H84v4.67H83.1v-.5h0a1.51,1.51,0,0,1-1.21.55,1.57,1.57,0,0,1-1-.42,1.46,1.46,0,0,1-.52-1.2Z"/><path class="cls-1" d="M87.75,53.33a1.25,1.25,0,0,0,.66-.16.49.49,0,0,0,.26-.44.39.39,0,0,0-.15-.35.81.81,0,0,0-.42-.11l-.83-.07a1.56,1.56,0,0,1-1-.4,1.2,1.2,0,0,1-.39-.93,1.27,1.27,0,0,1,.51-1.08,2,2,0,0,1,1.23-.36,3.85,3.85,0,0,1,.58,0,3,3,0,0,1,.48.13,2.77,2.77,0,0,1,.77.47l-.58.68a2.88,2.88,0,0,0-.57-.32,1.92,1.92,0,0,0-.68-.11.93.93,0,0,0-.62.16.51.51,0,0,0-.18.4.32.32,0,0,0,.14.27.82.82,0,0,0,.48.17l.77.06a1.45,1.45,0,0,1,1.05.44,1.48,1.48,0,0,1,.3,1,1.21,1.21,0,0,1-.55,1,2.4,2.4,0,0,1-1.38.39,3,3,0,0,1-2.05-.84l.66-.64A2,2,0,0,0,87.75,53.33Z"/><path class="cls-1" d="M91.35,47.6h.94v.94h-.94Zm0,1.89h.94v4.67h-.94Z"/><path class="cls-1" d="M94.3,49.49h.94V50h0a1.51,1.51,0,0,1,1.21-.55A1.55,1.55,0,0,1,98,51v3.1h-.94V51.37a1,1,0,0,0-.26-.75.88.88,0,0,0-.66-.26.9.9,0,0,0-.67.26,1,1,0,0,0-.27.75v2.78H94.3Z"/><path class="cls-1" d="M100.73,52.17A1.09,1.09,0,0,0,101,53a1.08,1.08,0,0,0,.79.3,1.4,1.4,0,0,0,1-.45l.68.58a2.2,2.2,0,0,1-1.68.75,2.44,2.44,0,0,1-.72-.11,1.74,1.74,0,0,1-.34-.16,1.67,1.67,0,0,1-.33-.21A1.84,1.84,0,0,1,100,53a2.88,2.88,0,0,1-.2-1.17,3.29,3.29,0,0,1,.17-1.15,2,2,0,0,1,.45-.74,1.66,1.66,0,0,1,.63-.4,2,2,0,0,1,.67-.12,2,2,0,0,1,1.35.53,1.91,1.91,0,0,1,.57,1.45v.77Zm2-.77a1.19,1.19,0,0,0-.29-.82,1,1,0,0,0-1.39,0,1.25,1.25,0,0,0-.29.82Z"/><path class="cls-1" d="M107.18,53.33a1.25,1.25,0,0,0,.66-.16.49.49,0,0,0,.26-.44.38.38,0,0,0-.15-.35.8.8,0,0,0-.42-.11l-.83-.07a1.57,1.57,0,0,1-1-.4,1.2,1.2,0,0,1-.39-.93,1.27,1.27,0,0,1,.51-1.08,2,2,0,0,1,1.23-.36,3.81,3.81,0,0,1,.58,0,3,3,0,0,1,.48.13,2.77,2.77,0,0,1,.77.47l-.58.68a2.89,2.89,0,0,0-.57-.32,1.91,1.91,0,0,0-.68-.11.93.93,0,0,0-.62.16.51.51,0,0,0-.18.4.31.31,0,0,0,.14.27.81.81,0,0,0,.48.17l.77.06a1.45,1.45,0,0,1,1.05.44,1.5,1.5,0,0,1,.3,1,1.21,1.21,0,0,1-.55,1,2.4,2.4,0,0,1-1.38.39,3,3,0,0,1-2.05-.84l.66-.64A2,2,0,0,0,107.18,53.33Z"/><path class="cls-1" d="M112.57,53.33a1.25,1.25,0,0,0,.66-.16.49.49,0,0,0,.26-.44.38.38,0,0,0-.15-.35.8.8,0,0,0-.42-.11l-.83-.07a1.57,1.57,0,0,1-1-.4,1.2,1.2,0,0,1-.39-.93,1.27,1.27,0,0,1,.51-1.08,2,2,0,0,1,1.23-.36,3.81,3.81,0,0,1,.58,0,3,3,0,0,1,.48.13,2.77,2.77,0,0,1,.77.47l-.58.68a2.89,2.89,0,0,0-.57-.32,1.91,1.91,0,0,0-.68-.11.93.93,0,0,0-.62.16.51.51,0,0,0-.18.4.31.31,0,0,0,.14.27.81.81,0,0,0,.48.17l.77.06a1.45,1.45,0,0,1,1.05.44,1.5,1.5,0,0,1,.3,1,1.21,1.21,0,0,1-.55,1,2.4,2.4,0,0,1-1.38.39,3,3,0,0,1-2.05-.84l.66-.64A2,2,0,0,0,112.57,53.33Z"/><path class="cls-1" d="M122.49,53.4a2.49,2.49,0,0,1-.72.57,2,2,0,0,1-1,.24,2.11,2.11,0,0,1-1.45-.56,2.34,2.34,0,0,1-.67-1.82,2.39,2.39,0,0,1,.67-1.84,2.07,2.07,0,0,1,1.45-.55,2.13,2.13,0,0,1,1,.22,2.37,2.37,0,0,1,.72.59l-.69.62a1.17,1.17,0,0,0-.95-.49q-1.2,0-1.21,1.46t1.21,1.44a1.15,1.15,0,0,0,.95-.49Z"/><path class="cls-1" d="M126.63,53.74h0a.79.79,0,0,1-.41.35,1.94,1.94,0,0,1-.75.12,1.7,1.7,0,0,1-1.21-.41,1.29,1.29,0,0,1-.45-1,1.33,1.33,0,0,1,.39-1,1.54,1.54,0,0,1,1.13-.4h1.3v-.49q0-.62-1-.6a1.71,1.71,0,0,0-.55.07.68.68,0,0,0-.33.29l-.74-.56a1.82,1.82,0,0,1,1.58-.68,2.51,2.51,0,0,1,1.41.33,1.36,1.36,0,0,1,.54,1.21v3.19h-.94Zm0-1.56h-1.12q-.82,0-.81.56a.5.5,0,0,0,.21.4,1,1,0,0,0,.67.18,1.65,1.65,0,0,0,.83-.14c.15-.1.22-.32.22-.67Z"/><path class="cls-1" d="M129.56,49.49h.94V50h0a1.57,1.57,0,0,1,2.19-.19l-.68.81a1,1,0,0,0-.62-.23.88.88,0,0,0-.62.23.91.91,0,0,0-.3.74v2.81h-.94Z"/><path class="cls-1" d="M136.75,53.66a1.59,1.59,0,0,1-1.21.54,1.56,1.56,0,0,1-.72-.17,1.58,1.58,0,0,1-.53-.43A1.18,1.18,0,0,1,134,53a9.36,9.36,0,0,1,0-2.38,1.15,1.15,0,0,1,.26-.58,1.45,1.45,0,0,1,1.25-.61,1.5,1.5,0,0,1,.67.15,2.7,2.7,0,0,1,.54.4V47.6h.94v6.56h-.94Zm-.92-3.3a1,1,0,0,0-.51.11.72.72,0,0,0-.28.33,1.71,1.71,0,0,0-.11.46,5,5,0,0,0,0,.54,4.47,4.47,0,0,0,0,.52,1.73,1.73,0,0,0,.11.48.78.78,0,0,0,.28.33.87.87,0,0,0,.51.13.91.91,0,0,0,.53-.13.65.65,0,0,0,.26-.34,1.73,1.73,0,0,0,.12-.47c0-.17,0-.34,0-.5s0-.35,0-.52a1.71,1.71,0,0,0-.12-.46.65.65,0,0,0-.26-.34A.93.93,0,0,0,135.83,50.37Z"/><path class="cls-1" d="M35.44,43.89H20.85L31.71,27H26.58l-5.13,7.57L17.5,40.38c-2.39,3.52-2.39,3.52-3.47,3.52H0L11.66,27H.3l4.88-7.38H16.73l3.6-5.14H35.23l-3.6,5.14H51.47Z"/><path class="cls-1" d="M140.54,43.89H124.26l-5.4-6.61-5.67,6.61H96.93l17.84-20.28h-12l4.9-7.37h30l-10.81,12Z"/><path class="cls-1" d="M156.17,43.89H141.09l20.5-29.4,14.76,0L169,25.59h13.24l-5.1,7.18H163.91Z"/><polygon class="cls-1" points="90.21 22.66 92.63 19.09 86.17 19.09 89.29 14.48 84.49 14.48 81.08 19.61 75.84 19.61 79.32 14.48 64.52 14.48 61.05 19.61 54.34 19.61 49.25 26.99 56.01 26.99 50.88 34.52 65.44 34.52 70.79 26.99 75.92 26.99 63.62 43.89 79.21 43.89 83.91 37.51 91.49 26.99 98.2 26.99 101.1 22.66 90.21 22.66"/><path class="cls-1" d="M107.47,11.76a5.07,5.07,0,0,0-3.67-4.7l.41-1.43A6.56,6.56,0,0,1,109,11.71Z"/><path class="cls-1" d="M110.49,11.29a7.6,7.6,0,0,0-5.5-7l.41-1.43A9.09,9.09,0,0,1,112,11.24Z"/><path class="cls-1" d="M113.5,10.82a10.14,10.14,0,0,0-7.34-9.39L106.58,0A11.63,11.63,0,0,1,115,10.77Z"/><polygon class="cls-1" points="97.85 18.86 95.42 18.86 95.26 18.86 94.2 20.43 100.54 20.43 106.17 12.12 102.42 12.12 97.85 18.86"/><polygon class="cls-1" points="96.61 16.86 96.77 16.86 102.39 8.55 96.07 8.55 90.45 16.86 96.62 16.86 96.61 16.86"/></g></g></svg>