<svg width="300" height="40" viewBox="0 0 300 40" fill="none" xmlns="http://www.w3.org/2000/svg">
<path d="M75.3564 0H79.1775V30.3246C79.1775 32.7977 78.3071 34.9099 76.5664 36.6507C74.8257 38.3914 72.7241 39.2617 70.2616 39.2617C67.7991 39.2617 65.6975 38.3914 63.9568 36.6507C62.2161 34.9099 61.3457 32.7977 61.3457 30.3246V29.571H65.1668V30.3246C65.1668 31.7575 65.6657 32.9676 66.6528 33.9653C67.6399 34.9524 68.8393 35.4513 70.2616 35.4513C71.6839 35.4513 72.8833 34.963 73.8704 33.9653C74.8575 32.9782 75.3564 31.7682 75.3564 30.3246V0Z" fill="#727171"/>
<path d="M109.398 10.3912H113.219V28.0532C113.219 30.0699 112.721 31.9274 111.712 33.6575C110.704 35.3769 109.356 36.7356 107.647 37.7227C105.938 38.7098 104.081 39.2087 102.075 39.2087C98.9858 39.2087 96.3535 38.126 94.1882 35.9501C92.0123 33.7742 90.9297 31.1525 90.9297 28.0638V10.4018H94.7508V28.0638C94.7508 30.1123 95.4725 31.8531 96.9055 33.286C98.3384 34.7189 100.068 35.4406 102.075 35.4406C104.081 35.4406 105.811 34.7189 107.244 33.286C108.677 31.8531 109.398 30.1123 109.398 28.0638V10.4018V10.3912Z" fill="#727171"/>
<path d="M143.067 24.2321C144.86 25.9516 145.763 28.0426 145.763 30.4838C145.763 32.9251 144.914 34.9418 143.205 36.6507C141.496 38.3595 139.447 39.2087 137.038 39.2087H130.362C128.175 39.2087 126.264 38.5081 124.651 37.1071C123.038 35.706 122.061 33.9122 121.743 31.7257L121.637 30.866H125.405L125.564 31.4603C125.776 32.6067 126.339 33.5619 127.23 34.3155C128.122 35.0692 129.173 35.4513 130.351 35.4513H137.027C138.354 35.4513 139.5 34.963 140.477 33.9971C141.443 33.0312 141.931 31.8743 141.931 30.5263C141.931 29.1783 141.443 28.0214 140.477 27.0555C139.511 26.0896 138.354 25.6013 137.027 25.6013H130.075C127.814 25.6013 125.925 24.7734 124.418 23.1282C123.123 21.6529 122.475 19.9546 122.475 18.0122C122.475 16.643 122.804 15.3799 123.473 14.2123C124.142 13.0448 125.065 12.1214 126.243 11.4421C127.432 10.7627 128.706 10.4231 130.064 10.4231H137.282C139.15 10.4231 140.785 11.0281 142.186 12.2275C143.587 13.4269 144.447 14.9447 144.776 16.781L144.935 17.6938H141.114L140.954 17.0994C140.742 16.2397 140.286 15.5391 139.606 14.9978C138.927 14.4565 138.152 14.1911 137.293 14.1911H130.075C129.035 14.1911 128.133 14.5732 127.379 15.3268C126.625 16.0804 126.243 16.9826 126.243 18.0228C126.243 19.063 126.625 19.9546 127.379 20.687C128.133 21.4194 129.035 21.7909 130.075 21.7909H137.027C139.362 21.7909 141.368 22.6188 143.056 24.2639L143.067 24.2321Z" fill="#727171"/>
<path d="M182.053 3.76802H157.438V0H182.053V3.76802ZM171.661 39.2617H167.84V4.90374H171.661V39.2617Z" fill="#727171"/>
<path d="M186.064 14.6263C188.888 11.8029 192.274 10.4019 196.243 10.4019C200.213 10.4019 203.609 11.8135 206.454 14.6263C209.288 17.4497 210.71 20.8356 210.71 24.8053C210.71 28.775 209.288 32.1715 206.454 34.9842C203.62 37.8076 200.213 39.2087 196.243 39.2087C192.274 39.2087 188.877 37.797 186.064 34.9842C183.241 32.1609 181.84 28.775 181.84 24.8053C181.84 20.8356 183.252 17.4497 186.064 14.6263ZM188.76 32.3201C190.819 34.4005 193.324 35.4406 196.243 35.4406C199.162 35.4406 201.678 34.4005 203.758 32.3201C205.838 30.2397 206.879 27.7454 206.879 24.8371C206.879 21.9288 205.838 19.3814 203.758 17.3011C201.678 15.2207 199.173 14.1805 196.243 14.1805C193.314 14.1805 190.819 15.2207 188.76 17.3011C186.69 19.3814 185.661 21.897 185.661 24.8371C185.661 27.7772 186.69 30.2397 188.76 32.3201Z" fill="#727171"/>
<path d="M235.484 10.3912H239.305V28.0532C239.305 30.0699 238.806 31.9274 237.798 33.6575C236.79 35.3769 235.442 36.7356 233.733 37.7227C232.024 38.7098 230.167 39.2087 228.16 39.2087C225.072 39.2087 222.439 38.126 220.274 35.9501C218.098 33.7742 217.016 31.1525 217.016 28.0638V10.4018H220.837V28.0638C220.837 30.1123 221.558 31.8531 222.991 33.286C224.424 34.7189 226.154 35.4406 228.16 35.4406C230.167 35.4406 231.897 34.7189 233.33 33.286C234.762 31.8531 235.484 30.1123 235.484 28.0638V10.4018V10.3912Z" fill="#727171"/>
<path d="M259.996 14.223C257.056 14.223 254.551 15.2632 252.481 17.3435C250.411 19.4239 249.382 21.9289 249.382 24.8584C249.382 27.7879 250.411 30.2822 252.481 32.3413C254.54 34.4111 257.045 35.4407 259.996 35.4407H269.686V39.2618H259.996C256.015 39.2618 252.608 37.8501 249.785 35.0373C246.962 32.214 245.561 28.8281 245.561 24.8584C245.561 20.8887 246.972 17.5028 249.785 14.6794C252.608 11.856 256.005 10.455 259.996 10.455H269.686V14.223H259.996Z" fill="#727171"/>
<path d="M279.759 39.2617H275.938V0H279.759V39.2617ZM287.995 10.3913C291.296 10.3913 294.13 11.58 296.476 13.947C298.832 16.3139 300 19.1585 300 22.4595V39.2617H296.232V22.4595C296.232 20.1987 295.425 18.2563 293.812 16.643C292.198 15.0296 290.256 14.223 287.995 14.223C286.52 14.223 285.14 14.6051 283.845 15.3799C282.55 16.1547 281.542 17.1843 280.831 18.4792V12.8219C282.953 11.2085 285.331 10.4019 287.995 10.4019V10.3913Z" fill="#727171"/>
<path d="M19.6309 39.2617C8.80732 39.2617 0 30.4544 0 19.6309C0 8.80733 8.80732 0 19.6309 0C30.4544 0 39.2617 8.80733 39.2617 19.6309C39.2617 30.4544 30.4544 39.2617 19.6309 39.2617ZM35.3385 19.6309C35.3385 10.9691 28.2926 3.93054 19.6309 3.93054C10.9691 3.93054 3.92326 10.9691 3.92326 19.6309C3.92326 28.2926 10.9691 35.3312 19.6309 35.3312C28.2926 35.3312 35.3385 28.2853 35.3385 19.6309Z" fill="#F39800"/>
<path d="M19.631 31.0822C13.3179 31.0822 8.17969 25.9439 8.17969 19.6308C8.17969 13.3177 13.3179 8.1795 19.631 8.1795C25.9441 8.1795 31.0824 13.3177 31.0824 19.6308C31.0824 25.9439 25.9441 31.0822 19.631 31.0822ZM27.2676 19.6308C27.2676 15.4198 23.8421 11.9943 19.631 11.9943C15.4199 11.9943 11.9944 15.4198 11.9944 19.6308C11.9944 23.8419 15.4199 27.2674 19.631 27.2674C23.8421 27.2674 27.2676 23.8419 27.2676 19.6308Z" fill="#F39800"/>
<path d="M23.7205 19.6308C23.7205 21.892 21.8843 23.7206 19.6308 23.7206C17.3772 23.7206 15.541 21.892 15.541 19.6308C15.541 17.3697 17.3772 15.5411 19.6308 15.5411C21.8843 15.5411 23.7205 17.3697 23.7205 19.6308Z" fill="#F39800"/>
</svg>
