<?xml version="1.0" encoding="utf-8"?>
<!-- Generator: Adobe Illustrator 21.0.2, SVG Export Plug-In . SVG Version: 6.00 Build 0)  -->
<svg version="1.1" id="レイヤー_1" xmlns="http://www.w3.org/2000/svg" xmlns:xlink="http://www.w3.org/1999/xlink" x="0px"
	 y="0px" viewBox="0 0 539 310" style="enable-background:new 0 0 539 310;" xml:space="preserve">
<style type="text/css">
	.st0{fill:none;stroke:#214269;}
	.st1{fill:#214269;}
</style>
<g>
	<g>
		<path class="st0" d="M9.3,175.8l-3.2-5.9c1.8-0.3,3.8-0.9,5.9-1.8c2-0.9,4.2-1.9,6.2-3.1c2.1-1.2,4.1-2.6,6-4
			c1.9-1.4,3.6-2.9,5.1-4.3c1.5-1.5,2.8-2.9,3.7-4.2c0.2,0.6,0.4,1.3,0.6,2.1c0.3,0.8,0.6,1.5,0.9,2.3c0.3,0.8,0.6,1.3,0.9,1.8
			c-1.3,1.7-2.9,3.3-4.8,5.1c-1.9,1.7-4,3.3-6.3,4.9s-4.7,3-7.3,4.2C14.4,173.9,11.9,175,9.3,175.8z M16.5,155.2
			c-0.4-0.4-0.9-0.8-1.6-1.2c-0.6-0.5-1.4-0.9-2.2-1.4c-0.8-0.5-1.5-0.9-2.2-1.3c-0.7-0.4-1.3-0.6-1.8-0.9l3.2-5
			c0.5,0.3,1.2,0.6,1.9,1.1c0.8,0.4,1.5,0.9,2.3,1.5c0.8,0.5,1.5,1,2.2,1.5c0.6,0.4,1.2,0.8,1.6,1.1L16.5,155.2z M10.9,163.3
			c-0.5-0.4-1.3-0.9-2.3-1.5c-1-0.5-1.9-1-3-1.5c-1-0.5-1.9-0.9-2.7-1.1l3-5.2c0.8,0.3,1.7,0.7,2.7,1.2c1,0.5,2,1,3,1.6
			c1,0.5,1.8,1,2.4,1.5L10.9,163.3z M32.6,148.8c-0.5-0.8-1.2-1.5-2-2.3c-0.8-0.8-1.5-1.5-2.2-2l2.3-2.2c0.4,0.3,0.9,0.7,1.4,1.2
			c0.6,0.5,1.1,1.1,1.7,1.6c0.5,0.5,1,1,1.3,1.4L32.6,148.8z M29.1,152.1c-0.5-0.8-1.2-1.6-2-2.4c-0.8-0.8-1.6-1.5-2.2-2l2.4-2.2
			c0.4,0.3,0.8,0.7,1.3,1.2c0.6,0.5,1.1,1.1,1.7,1.6c0.5,0.5,1,1,1.3,1.4L29.1,152.1z M59,177.1c0-0.3-0.1-0.9-0.3-1.7
			c-0.1-0.9-0.3-1.9-0.5-3.1c-0.2-1.2-0.5-2.5-0.8-3.9c-0.3-1.4-0.5-2.8-0.8-4.2c-1.7,0.3-3.3,0.6-4.6,1c-1.3,0.3-2.3,0.5-2.9,0.6
			l-1-4.9c0.8,0,1.8-0.1,3.1-0.3c1.3-0.2,2.9-0.4,4.5-0.6c-0.3-1.6-0.6-3-0.9-4.2s-0.5-1.9-0.6-2.3l4.5-0.9c0,0.3,0.2,1.1,0.4,2.3
			c0.3,1.2,0.5,2.6,0.9,4.4c1.6-0.3,3.1-0.6,4.5-0.9c1.5-0.3,2.7-0.5,3.8-0.8c1.1-0.3,1.9-0.5,2.4-0.7l2.9,1.9c-0.5,1-1,2.1-1.7,3.3
			c-0.7,1.2-1.4,2.4-2.2,3.6c-0.7,1.2-1.4,2.3-2,3.1c-0.5-0.4-1.1-0.9-2-1.3c-0.8-0.4-1.5-0.8-2-1c0.4-0.6,1-1.2,1.5-2
			c0.6-0.8,1.1-1.6,1.7-2.4c-0.9,0.2-1.8,0.3-2.9,0.5c-1,0.2-2,0.4-3.1,0.6c0.3,1.5,0.6,2.9,0.9,4.3c0.3,1.4,0.6,2.8,0.9,3.9
			c0.3,1.2,0.6,2.2,0.8,3c0.2,0.8,0.3,1.3,0.4,1.5c-0.8,0-1.7,0.2-2.6,0.3C60.3,176.6,59.5,176.9,59,177.1z M90.2,175.3
			c-0.5-0.8-1-1.6-1.7-2.5c-0.6-0.9-1.3-1.7-2.1-2.3c1.9-0.8,3.8-1.8,5.7-3.1c1.9-1.2,3.7-2.6,5.4-4.2c1.7-1.5,3.3-3.1,4.8-4.9
			c1.5-1.7,2.7-3.5,3.7-5.2c-1.3,0.1-2.8,0.2-4.2,0.3c-1.5,0.1-3,0.2-4.4,0.3s-2.7,0.2-3.8,0.3c-1.1,0.1-2,0.2-2.6,0.2l-0.6-6.1
			c0.6,0,1.7,0,3,0c1.3,0,2.9-0.1,4.5-0.1c1.6-0.1,3.2-0.2,4.9-0.2c1.6-0.1,3.1-0.2,4.4-0.3c1.3-0.1,2.3-0.3,3-0.4l3.9,2.5
			c-0.6,1.8-1.5,3.6-2.4,5.4c-0.9,1.7-2,3.4-3.2,5.1c0.9,0.7,1.9,1.5,2.9,2.4c1,0.9,2,1.8,3,2.7s1.9,1.8,2.7,2.6
			c0.8,0.8,1.5,1.6,2,2.2c-0.9,0.6-1.7,1.2-2.6,2c-0.8,0.8-1.6,1.6-2.3,2.4c-0.6-1-1.6-2-2.6-3.2c-1.1-1.2-2.2-2.4-3.4-3.6
			c-1.2-1.2-2.3-2.3-3.4-3.2c-2.2,2.3-4.5,4.4-7,6.3C95.2,172.4,92.8,174,90.2,175.3z M133.3,177.7c-0.4-1-1-1.9-1.6-2.9
			c-0.6-0.9-1.1-1.7-1.7-2.2c2.8-0.9,5.3-2.2,7.8-3.8c2.5-1.6,4.7-3.5,6.7-5.5c-0.6-0.4-1.3-0.9-2-1.2c-0.6-0.4-1.3-0.7-1.9-1
			l3.4-4.4c0.6,0.3,1.3,0.6,2,1c0.7,0.4,1.5,0.8,2.2,1.2c0.5-0.8,1-1.5,1.5-2.3c0.5-0.8,0.9-1.6,1.2-2.4c-1.1,0.1-2.2,0.1-3.3,0.2
			c-1.1,0.1-2.2,0.1-3.1,0.2c-1,0.1-1.8,0.1-2.4,0.1c-1.1,1.7-2.4,3.2-3.7,4.8c-1.3,1.6-2.9,3-4.6,4.3c-0.6-0.7-1.2-1.5-2-2.2
			c-0.8-0.8-1.5-1.3-2.2-1.7c1.8-1.3,3.5-2.9,5.1-4.7c1.6-1.8,3-3.8,4.1-5.8c1.1-2,2-4,2.6-5.9l5.5,1.7c-0.3,0.7-0.5,1.5-0.9,2.2
			c-0.3,0.8-0.6,1.5-1,2.3c1.1-0.1,2.3-0.1,3.6-0.1c1.2-0.1,2.4-0.1,3.5-0.2s1.9-0.2,2.5-0.2l3.8,2c-1.3,4.2-3,7.9-5.2,11.1
			c1,0.7,1.8,1.5,2.6,2.2s1.5,1.4,2,2c-0.5,0.3-1,0.8-1.5,1.3c-0.5,0.5-1.1,1.1-1.6,1.7c-0.5,0.6-0.9,1.1-1.2,1.6
			c-0.5-0.6-1.1-1.3-1.9-2c-0.7-0.7-1.5-1.4-2.3-2.2c-2.1,2.3-4.5,4.4-7.2,6.1C139.4,174.9,136.4,176.4,133.3,177.7z M179.7,176.1
			c-0.3-0.7-0.6-1.5-1.1-2.3c-0.5-0.9-1-1.5-1.5-2c4.7-1.1,8.4-3,11-5.7c2.6-2.8,4.3-6.4,5-11.1l4.6,0.8c-0.6,3.9-1.7,7.2-3.3,9.8
			c-1.6,2.6-3.6,4.7-6.1,6.4C185.9,173.7,183,175,179.7,176.1z M183.5,162.4c-0.1-0.5-0.2-1.2-0.5-2.1c-0.2-0.9-0.5-1.7-0.8-2.6
			c-0.3-0.9-0.5-1.5-0.8-1.9l4.3-1.3c0.3,0.5,0.5,1.2,0.8,2c0.3,0.8,0.6,1.7,0.9,2.6c0.3,0.9,0.4,1.6,0.5,2.2L183.5,162.4z
			 M176.9,163.9c-0.1-0.5-0.3-1.2-0.5-2c-0.3-0.9-0.5-1.7-0.9-2.5c-0.3-0.8-0.6-1.5-0.9-1.9l4.3-1.6c0.3,0.5,0.6,1.1,0.9,2
			c0.3,0.8,0.6,1.7,0.9,2.5c0.3,0.9,0.5,1.6,0.6,2.2L176.9,163.9z M218.2,176.7c-0.2-0.5-0.5-1.1-0.9-1.8c-0.4-0.6-0.8-1.3-1.2-1.9
			c-0.4-0.6-0.8-1.1-1.2-1.5c3.5-0.7,6.1-1.8,7.9-3.2c1.8-1.5,3-3.6,3.3-6.3c-2.2,0-4.2,0.1-6.1,0.1c-1.9,0.1-3.6,0.1-5.1,0.2
			c-1.4,0.1-2.4,0.1-3,0.2l-0.3-5.5c0.5,0.1,1.5,0.1,3,0.1s3.2,0,5.2-0.1c2,0,4.2-0.1,6.5-0.1v-4.5c-3,0.4-5.7,0.6-8.1,0.6
			c-0.1-0.5-0.2-1.1-0.4-1.8c-0.2-0.6-0.4-1.3-0.6-2c-0.3-0.6-0.5-1.2-0.7-1.6c1.7,0,3.6,0,5.5-0.2c1.9-0.2,3.9-0.3,5.8-0.6
			s3.8-0.7,5.5-1.1c1.7-0.4,3.2-0.9,4.6-1.5l2.3,4.9c-1,0.4-2.3,0.8-3.6,1.2c-1.3,0.4-2.8,0.7-4.3,1v5.4c1.9-0.1,3.8-0.1,5.5-0.2
			c1.7-0.1,3.2-0.2,4.4-0.2c1.2-0.1,2-0.2,2.5-0.2v5.8c-0.5,0-1.4-0.1-2.6-0.1c-1.2,0-2.7-0.1-4.4-0.1c-1.7,0-3.5,0-5.4,0.1
			c-0.4,4-1.7,7.2-4.1,9.5C225.9,173.7,222.6,175.4,218.2,176.7z M279.3,177.2c-2.8-0.3-5.3-1.1-7.4-2.4c-2.1-1.3-3.8-3-5-5.1
			c-1.2-2.1-1.8-4.5-1.8-7.2c0-1.8,0.4-3.6,1.2-5.3s1.9-3.4,3.4-4.9c-2,0.3-3.9,0.7-5.9,1c-1.9,0.3-3.6,0.6-5.1,1
			c-1.5,0.3-2.7,0.6-3.6,0.9l-1.3-6.1c0.8,0,2-0.1,3.6-0.3c1.6-0.2,3.3-0.4,5.3-0.6c1.9-0.3,4-0.6,6.1-0.9c2.1-0.3,4.2-0.6,6.1-1
			c1.9-0.4,3.7-0.7,5.3-1c1.6-0.3,2.8-0.6,3.6-0.9l1.6,5.8c-0.4,0-1,0.1-1.6,0.2c-0.6,0.1-1.3,0.2-2.1,0.3c-1.3,0.2-2.6,0.5-3.9,1.2
			c-1.3,0.6-2.4,1.5-3.5,2.5c-1,1-1.8,2.3-2.4,3.7c-0.6,1.3-0.9,2.9-0.9,4.6c0,1.9,0.5,3.5,1.5,4.7c1,1.2,2.3,2.2,4.1,2.9
			c1.7,0.6,3.7,1.1,5.9,1.4c-0.5,0.5-0.9,1.1-1.4,1.8c-0.4,0.7-0.8,1.5-1.1,2.2S279.4,176.7,279.3,177.2z M282.5,161.9
			c-0.5-0.8-1.1-1.7-1.9-2.5c-0.7-0.9-1.4-1.6-2-2.2l2.5-2c0.4,0.3,0.8,0.8,1.3,1.3c0.5,0.6,1,1.1,1.5,1.7s0.9,1.1,1.2,1.5
			L282.5,161.9z M286.3,158.8c-0.5-0.8-1.1-1.6-1.9-2.5c-0.8-0.9-1.4-1.6-2-2.2l2.5-2c0.4,0.3,0.8,0.8,1.3,1.3
			c0.5,0.6,1,1.1,1.5,1.7s0.9,1.1,1.1,1.5L286.3,158.8z M4.6,242.8c-0.5-0.9-1.1-1.7-1.7-2.6c-0.6-0.9-1.3-1.6-2.1-2.2
			c2-1,3.9-2.3,5.6-3.6c1.8-1.4,3.3-3,4.7-4.7c1.4-1.8,2.5-3.7,3.2-5.8c0.8-2,1.2-4.3,1.2-6.7v-9.3h5.9v7.7c0,2.6,0.4,5.1,1.2,7.4
			c0.9,2.3,2,4.3,3.5,6.1c1.5,1.8,3.1,3.4,4.9,4.8c1.8,1.3,3.8,2.5,5.8,3.5c-0.6,0.7-1.3,1.6-2,2.6c-0.6,1-1.2,1.9-1.7,2.8
			c-2.1-1.1-4.1-2.5-6-4.2s-3.5-3.5-5-5.4c-1.4-1.9-2.5-3.9-3.4-5.9c-0.8,2.2-2,4.2-3.5,6.1c-1.5,1.9-3.2,3.7-5.1,5.3
			S6.6,241.7,4.6,242.8z M72.7,240.8c-2.6,0.4-5.1,0.7-7.4,0.9c-2.4,0.1-4.6,0.1-6.7-0.2c-2-0.2-3.9-0.7-5.4-1.3
			c-1.6-0.6-2.8-1.6-3.7-2.8c-0.9-1.2-1.3-2.6-1.3-4.4c0-2.4,0.8-4.4,2.3-6s3.6-3,6.3-4.2c-0.4-1.2-0.8-2.6-1-4.2
			c-0.3-1.7-0.5-3.4-0.6-5.3c-0.1-1.9-0.1-3.7,0-5.4h6.1c-0.2,1.3-0.2,2.8-0.2,4.4c0.1,1.6,0.2,3.1,0.3,4.6c0.2,1.5,0.4,2.8,0.6,3.9
			c1.3-0.4,2.6-0.8,4.1-1.2c1.5-0.4,3-0.8,4.5-1.2l1,6c-2.2,0.2-4.4,0.5-6.5,1c-2,0.5-3.9,1.1-5.6,1.8c-1.7,0.7-3,1.5-3.9,2.4
			c-1,0.9-1.5,1.8-1.5,2.8c0,0.9,0.5,1.7,1.5,2.3c1,0.6,2.4,1,4.2,1.2c1.8,0.2,3.9,0.2,6.2-0.1c2.4-0.2,4.9-0.7,7.4-1.4
			c-0.2,0.5-0.3,1.1-0.5,1.9c-0.1,0.8-0.2,1.5-0.3,2.3C72.7,239.5,72.6,240.2,72.7,240.8z M105.8,240.8c-0.1-0.5-0.3-1.1-0.7-1.8
			c-0.3-0.7-0.8-1.4-1.2-2c-0.4-0.6-0.9-1.2-1.3-1.6c3.7-0.6,6.4-1.7,8.1-3.3c1.8-1.7,2.7-3.7,2.8-6c0.1-1.8-0.2-3.3-0.9-4.7
			c-0.7-1.3-1.7-2.5-3-3.3c-1.2-0.9-2.5-1.5-4-1.7c-0.2,2.3-0.6,4.7-1.2,7.1c-0.5,2.4-1.3,4.7-2.3,7c-1,2.2-2.2,4-3.7,5.6
			c-1.2,1.3-2.4,2-3.5,2.3c-1.1,0.2-2.3,0-3.5-0.5c-1.2-0.5-2.2-1.3-3.1-2.3c-0.9-1.1-1.6-2.4-2-3.8c-0.4-1.5-0.6-3-0.5-4.6
			c0.1-2.4,0.7-4.6,1.7-6.7c1-2,2.4-3.7,4.1-5.2c1.7-1.5,3.7-2.5,5.9-3.2c2.2-0.8,4.6-1.1,7.1-0.9c2.1,0.1,4,0.6,5.9,1.4
			s3.4,1.9,4.7,3.3c1.3,1.4,2.4,3,3.1,4.9c0.7,1.8,1,3.8,0.9,6c-0.2,3.8-1.5,6.8-3.9,9.3C113,238.2,109.8,239.9,105.8,240.8z
			 M94.5,231.9c0.9-0.8,1.7-2,2.4-3.6c0.8-1.6,1.4-3.4,1.9-5.4c0.5-2,0.9-4,1-6.1c-1.6,0.5-3,1.2-4.3,2.3c-1.2,1-2.2,2.2-2.9,3.7
			c-0.7,1.4-1.1,3-1.2,4.7c-0.1,1,0.1,1.9,0.3,2.6c0.3,0.8,0.7,1.3,1.2,1.9C93.5,232.3,94,232.3,94.5,231.9z M128.1,241.4v-14.2h5.9
			v8.7h7.4v-10.4h-12.1v-14.8h6.1v9.3h6v-12.2h6V220h5.9v-9.4h6.1v14.8h-12.1v10.4h7.5v-8.7h5.9v14.2L128.1,241.4L128.1,241.4z
			 M197.9,243.4c-0.3-0.6-0.6-1.2-1.1-1.9c-0.5-0.6-1-1.3-1.6-2c-1.2,0.2-2.6,0.4-4.2,0.6c-1.6,0.2-3.3,0.4-5.1,0.6
			c-1.8,0.2-3.5,0.4-5.2,0.6s-3.3,0.3-4.7,0.5c-1.5,0.1-2.6,0.2-3.6,0.3l-1.1-5.7c0.5,0,1.2,0,2,0c0.9-0.1,1.8-0.1,2.9-0.2
			c0.5-0.8,1-1.7,1.5-2.7c0.5-1,1-1.9,1.4-2.9h-8.6v-5.1h31.9v5.1h-8c1,0.8,1.9,1.7,3,2.9c1.1,1.1,2.1,2.2,3,3.2
			c0.9,1.1,1.7,2,2.2,2.8c-0.4,0.3-1,0.6-1.6,1.1s-1.2,1-1.8,1.5C198.7,242.5,198.2,243,197.9,243.4z M170.8,223.9
			c-0.4-0.8-0.9-1.6-1.6-2.5c-0.6-0.9-1.3-1.7-2-2.3c1.6-0.6,3.2-1.3,4.9-2.3c1.7-1,3.3-2,4.8-3.2c1.6-1.2,2.9-2.3,4.2-3.6
			c1.2-1.2,2.2-2.3,2.9-3.3l5.4,0.8c0.9,1.1,1.9,2.2,3.2,3.3c1.3,1.1,2.8,2.1,4.3,3.1c1.6,1,3.1,1.9,4.6,2.6c1.6,0.8,3,1.3,4.3,1.8
			c-0.5,0.4-1,1-1.6,1.6c-0.5,0.6-1,1.3-1.5,1.9c-0.4,0.6-0.8,1.2-1,1.7c-1.7-0.8-3.6-1.8-5.7-3.1v3.1h-19.1v-3.2
			C174.6,221.9,172.6,223.1,170.8,223.9z M179.6,218.6H193c-1.3-0.9-2.5-1.9-3.6-2.9c-1.1-1-2.1-2-2.9-3c-0.8,0.9-1.7,1.9-3,2.9
			C182.3,216.7,181,217.6,179.6,218.6z M183.3,235.7c1.3-0.1,2.8-0.3,4.1-0.4s2.6-0.3,3.8-0.4c-0.5-0.4-0.9-0.8-1.3-1.2
			c-0.4-0.4-0.8-0.6-1.1-0.9l2.6-2.2h-5.4c-0.4,0.8-0.8,1.6-1.2,2.5C184.2,234,183.7,234.8,183.3,235.7z M225.4,236.3
			c-1.5,0.8-2.9,1.1-4.1,1c-1.2-0.2-2.3-0.9-3.1-2.2c-0.9-1.2-1.6-2.8-2.4-4.5c-0.7-1.7-1.3-3.6-1.8-5.6c-0.5-1.9-0.9-3.9-1.2-5.9
			c-0.3-2-0.4-3.8-0.3-5.6l5.9,0.1c-0.1,1.2-0.1,2.5,0.1,4c0.2,1.5,0.4,3,0.7,4.5c0.3,1.5,0.7,2.9,1.2,4.2c0.4,1.3,0.9,2.3,1.3,3.1
			c0.6,1,1.5,1.2,2.4,0.6c0.6-0.4,1.2-0.9,1.9-1.6c0.6-0.6,1.2-1.3,1.7-2c0.2,0.5,0.4,1,0.8,1.6c0.4,0.6,0.8,1.2,1.2,1.8
			c0.4,0.6,0.8,1,1.2,1.4c-0.8,1.2-1.7,2.2-2.6,3.1C227.4,235.2,226.4,235.8,225.4,236.3z M239.4,228.8c-0.3-0.8-0.6-1.7-1.2-2.9
			c-0.5-1.2-1.2-2.4-1.9-3.6c-0.7-1.2-1.5-2.4-2.2-3.4c-0.7-1-1.4-1.8-2-2.3l4.5-3c0.7,0.6,1.5,1.5,2.3,2.6c0.9,1.1,1.7,2.3,2.5,3.6
			s1.5,2.5,2.2,3.7c0.6,1.2,1.1,2.2,1.3,3.1c-1,0.2-1.9,0.5-3,0.9C240.9,228,240.1,228.4,239.4,228.8z M257.5,241.3
			c-0.3-0.3-0.8-0.6-1.3-1c-0.6-0.4-1.2-0.8-1.9-1.1c-0.6-0.4-1.2-0.6-1.6-0.8c1.6-1.8,3.1-4,4.5-6.7c1.4-2.7,2.6-5.6,3.7-8.5
			c-1.2,0.2-2.4,0.3-3.6,0.5c-1.1,0.2-2.1,0.4-2.9,0.6c0-0.4-0.1-1-0.2-1.7c-0.1-0.7-0.2-1.3-0.4-2c-0.1-0.6-0.3-1.2-0.4-1.6
			c0.6-0.1,1.3-0.1,2.3-0.2s2-0.2,3.2-0.2c1.2-0.1,2.4-0.2,3.6-0.3c0.4-1.6,0.8-3.1,1-4.6c0.3-1.5,0.5-2.9,0.6-4.3l5.7,1
			c-0.3,2.3-0.9,4.9-1.6,7.5c0.4,0,0.8-0.1,1.1-0.1s0.6,0,0.9,0c1.1,0,2,0.2,2.9,0.5c0.9,0.3,1.6,0.9,2.1,1.7s0.9,2,1,3.5
			c0.1,1.5,0,3.3-0.4,5.6c-0.4,2.4-0.9,4.3-1.3,5.8c-0.5,1.5-1.1,2.7-1.7,3.6c-0.6,0.8-1.4,1.4-2.3,1.7c-0.9,0.3-2,0.5-3.2,0.5
			c-1.6,0-2.9-0.2-4.1-0.7c0-0.5,0-1.1,0-1.7c0-0.6,0-1.3-0.1-2c-0.1-0.6-0.2-1.2-0.3-1.7c0.6,0.2,1.2,0.3,2,0.5
			c0.7,0.1,1.3,0.2,1.9,0.2c0.4,0,0.8-0.1,1-0.2c0.3-0.2,0.6-0.5,1-0.9c0.3-0.5,0.6-1.2,0.9-2.2c0.3-1,0.6-2.3,0.9-3.9
			c0.3-1.6,0.5-2.9,0.4-3.6c-0.1-0.8-0.3-1.3-0.6-1.6s-0.9-0.4-1.5-0.4c-0.3,0-0.5,0-0.9,0c-0.3,0-0.7,0-1.1,0.1
			c-0.8,2.4-1.7,4.8-2.8,7.1c-1,2.3-2,4.5-3.1,6.5C259.5,238.2,258.5,239.9,257.5,241.3z M285.1,231.4c-0.4-0.7-1-1.6-1.7-2.5
			c-0.7-1-1.5-2-2.4-3c-0.9-1-1.7-1.9-2.5-2.8s-1.5-1.5-2-1.9l4.3-3.6c0.5,0.5,1.2,1.1,2,1.9s1.7,1.7,2.6,2.7c0.9,1,1.7,1.9,2.4,2.9
			c0.8,0.9,1.4,1.7,1.8,2.4L285.1,231.4z M284.2,218.4c-0.6-0.6-1.5-1.3-2.4-2s-1.8-1.2-2.5-1.6l1.9-2.6c0.4,0.2,1,0.5,1.6,1
			c0.6,0.4,1.3,0.9,1.9,1.3c0.6,0.4,1.1,0.8,1.5,1.2L284.2,218.4z M287.1,214.6c-0.6-0.6-1.5-1.3-2.4-2c-0.9-0.6-1.8-1.2-2.5-1.6
			l1.9-2.6c0.4,0.2,1,0.5,1.6,0.9c0.6,0.4,1.3,0.9,1.9,1.3c0.6,0.5,1.1,0.9,1.5,1.2L287.1,214.6z M24.6,307c-2.3,0.1-4.4,0-6.5-0.3
			s-3.9-0.8-5.6-1.5c-1.6-0.8-2.9-1.8-3.9-3.1c-1-1.3-1.5-2.9-1.5-4.9c0-1.8,0.5-3.3,1.7-4.5c1.1-1.3,2.6-2.2,4.5-2.9s4-0.8,6.4-0.6
			c-0.5-0.8-1-1.5-1.4-2.3c-0.4-0.8-0.9-1.6-1.2-2.4c-2.5,0.2-4.9,0.3-7.2,0.4c-2.3,0.1-4.3,0.2-5.9,0.1l-0.6-5.6
			c1.3,0.2,3.1,0.2,5.2,0.2s4.4-0.1,6.7-0.2c-0.3-1.1-0.5-2.3-0.7-3.4c-0.2-1.1-0.2-2.3-0.2-3.3h5.7c0,1.1,0.1,2.1,0.2,3.2
			c0.1,1.1,0.3,2.1,0.6,3.1c2.5-0.2,4.7-0.5,6.8-0.9c2.1-0.4,3.8-0.8,5.1-1.2l0.7,5.4c-1.2,0.3-2.7,0.5-4.6,0.8
			c-1.9,0.3-4,0.5-6.2,0.8c0.8,1.5,1.7,3,2.9,4.4c1.1,1.3,2.5,2.6,3.9,3.8l-3.5,3.8c-1-0.7-2.1-1.2-3.3-1.6
			c-1.2-0.4-2.3-0.6-3.5-0.6c-1.1-0.1-2.2,0.1-3.1,0.3c-0.9,0.3-1.7,0.6-2.3,1.2c-0.6,0.5-0.9,1.2-0.9,2c0,1.1,0.6,1.9,1.8,2.6
			c1.2,0.6,2.9,1,5,1.2c2.1,0.2,4.5,0.2,7.2,0.1c-0.4,0.5-0.7,1.1-1.1,1.9c-0.4,0.7-0.6,1.5-0.9,2.2C24.9,305.9,24.7,306.6,24.6,307
			z M57.5,307.3c-0.1-0.5-0.3-1.1-0.6-1.9c-0.3-0.7-0.6-1.4-1-2.1c-0.4-0.7-0.8-1.3-1.2-1.8c4.1,0.2,7.3-0.2,9.5-1.2
			c2.2-1,3.3-2.5,3.3-4.4c0-1-0.4-1.7-1.2-2.3c-0.8-0.6-1.9-0.9-3.2-0.9c-1.1,0-2.4,0.2-3.7,0.5c-1.3,0.3-2.5,0.9-3.6,1.6
			c-1.1,0.8-2.1,1.8-2.9,3.1l-5.1-2.2c0.5-0.9,1-2,1.3-3.4c0.4-1.3,0.6-2.8,0.9-4.3c0.3-1.5,0.4-2.9,0.5-4.2c0.1-1.3,0.1-2.4,0-3.2
			l6,0.8c0,1.2-0.1,2.6-0.3,4.2c-0.2,1.5-0.5,3.1-0.9,4.6c1.3-0.8,2.6-1.4,4-1.8c1.4-0.4,2.7-0.6,3.9-0.6c2.1,0,4,0.4,5.6,1.1
			c1.6,0.7,2.9,1.7,3.7,3c0.9,1.3,1.3,2.7,1.3,4.4c0,2-0.6,3.9-1.7,5.5c-1.2,1.7-3,3-5.4,4C64.3,306.6,61.3,307.2,57.5,307.3z
			 M63.8,282.3c-0.9-0.7-2-1.4-3.3-2.2c-1.3-0.7-2.6-1.3-4-1.9s-2.5-0.9-3.6-1.1l2.9-4.9c0.7,0.2,1.6,0.5,2.5,0.9
			c1,0.4,2,0.8,3.1,1.3c1.1,0.5,2,1,3,1.5c0.9,0.5,1.7,1,2.3,1.3L63.8,282.3z M88.7,305.3c-0.2-1.1-0.3-2.5-0.5-4
			c-0.1-1.6-0.2-3.3-0.2-5.2c0-1.9,0-3.8,0-5.8c0.1-2,0.1-3.9,0.2-5.8c0.1-1.9,0.3-3.7,0.5-5.3s0.4-3,0.8-4.2l5.6,1.2
			c-0.3,0.9-0.6,2.2-0.8,3.7c-0.2,1.5-0.4,3.2-0.5,5s-0.2,3.6-0.3,5.6c0,1.9,0,3.7,0.1,5.5c0.1,1.8,0.2,3.4,0.3,4.9
			c0.2,1.5,0.3,2.6,0.6,3.5L88.7,305.3z M106.3,303.3c-2.6,0-4.7-0.4-6.1-1.2c-1.5-0.8-2.4-2.1-2.6-3.8c-0.2-1.5,0.1-3.2,0.8-5.2
			l5,1.2c-0.3,0.8-0.4,1.3-0.3,1.8c0.3,1,1.8,1.6,4.5,1.6c1.1,0,2.3-0.1,3.6-0.2c1.3-0.2,2.5-0.3,3.7-0.6c1.2-0.2,2.3-0.5,3.2-0.7
			c-0.1,0.5-0.2,1.1-0.2,1.8c-0.1,0.7-0.1,1.5-0.2,2.2c0,0.8,0,1.4,0,2c-1.1,0.3-2.4,0.5-3.7,0.8c-1.3,0.2-2.6,0.3-3.9,0.4
			C108.4,303.3,107.3,303.3,106.3,303.3z M99.7,284.3l-0.3-5.9c1,0.2,2.3,0.3,3.7,0.3c1.5,0,3,0,4.6-0.1s3.1-0.2,4.5-0.4
			c1.4-0.2,2.6-0.4,3.6-0.6l-0.2,5.8c-1,0.2-2.3,0.4-3.7,0.5c-1.4,0.1-2.9,0.2-4.4,0.3c-1.5,0.1-2.9,0.1-4.3,0.2
			C101.9,284.4,100.7,284.4,99.7,284.3z M141.6,307.6v-8c-1.1,1-2.3,2-3.7,3c-1.4,1-2.8,1.8-4.3,2.6c-1.4,0.8-2.8,1.5-3.9,2
			c-0.7-1.6-1.8-3.1-3.2-4.5c1-0.3,2.1-0.8,3.3-1.3c1.2-0.6,2.5-1.2,3.7-1.9c1.2-0.7,2.4-1.5,3.4-2.2h-10v-4.6h14.7v-1.3H137v-16.1
			h3.2c0.2-0.4,0.4-1,0.8-1.7c0.3-0.7,0.5-1.5,0.7-2.2l5.9,0.9c-0.1,0.2-0.2,0.6-0.5,1.2c-0.3,0.6-0.6,1.2-0.9,1.7h5.9v3.1
			c0.5-0.4,1.1-1,1.8-1.6c0.6-0.6,1.3-1.2,1.9-1.9s1.2-1.2,1.6-1.7l4.2,3.1c-0.5,0.6-1.1,1.3-1.8,2c-0.7,0.8-1.5,1.5-2.3,2.2
			c-0.8,0.7-1.5,1.3-2.2,1.8c-0.3-0.4-0.8-1-1.5-1.7c-0.6-0.7-1.3-1.2-1.9-1.7v7.6l2.8-3.5c0.5,0.3,1.1,0.7,1.8,1.2
			c0.7,0.5,1.4,1,2.2,1.5c0.8,0.5,1.5,1,2,1.6c0.6,0.5,1.2,0.9,1.6,1.3c-0.6,0.5-1.2,1.1-1.9,1.9c-0.7,0.8-1.2,1.5-1.6,2
			c-0.5-0.5-1.1-1.1-2-1.7c-0.8-0.6-1.6-1.3-2.5-1.9c-0.9-0.6-1.6-1.1-2.3-1.6v4.2h-4.6v1.3h14.9v4.6h-10c1,0.8,2.2,1.5,3.4,2.2
			c1.2,0.7,2.4,1.3,3.7,1.9c1.2,0.5,2.3,1,3.3,1.3c-0.6,0.6-1.3,1.3-1.9,2.2c-0.5,0.8-1,1.6-1.3,2.4c-1.2-0.5-2.5-1.2-4-2
			s-2.9-1.7-4.3-2.7c-1.4-1-2.6-2-3.7-3.1v8.2h-5.9V307.6z M128.8,292.1l-2.3-4.6c0.8-0.3,1.8-0.7,3-1.2c1.2-0.5,2.3-1.1,3.5-1.7
			c1.2-0.6,2.2-1.2,2.9-1.7c0.1,0.4,0.1,1,0.2,1.6c0.1,0.6,0.2,1.3,0.3,1.9c0.1,0.6,0.2,1.1,0.3,1.6c-0.8,0.5-1.6,1-2.6,1.6
			c-1,0.5-2,1-2.9,1.5C130.1,291.5,129.4,291.8,128.8,292.1z M132.6,282.9c-0.4-0.6-0.9-1.2-1.6-2c-0.6-0.7-1.3-1.5-2-2.2
			c-0.6-0.7-1.3-1.3-2-1.8l3.8-3.5c0.6,0.4,1.3,1,2,1.8c0.8,0.8,1.5,1.5,2.2,2.3c0.7,0.8,1.2,1.3,1.6,1.9c-0.6,0.4-1.3,1-2.1,1.6
			C133.7,281.8,133.1,282.3,132.6,282.9z M142.3,286.9h4.4V285h-4.4V286.9z M142.3,281.3h4.4v-1.8h-4.4V281.3z M185.4,306.1
			c-2.2,0-4-0.2-5.4-0.6c-1.3-0.4-2.4-1.2-3-2.2s-0.9-2.4-0.9-4.2v-25.7l6.2,0.3c-0.1,0.5-0.1,1.2-0.2,2.3c-0.1,1-0.1,2.1-0.1,3.2
			c0,1-0.1,2-0.1,3.2s0,2.4,0,3.8v11.6c0,1,0.3,1.7,0.9,2c0.6,0.3,1.6,0.5,2.9,0.5c2.6,0,5.1-0.5,7.3-1.4c2.3-1,4.3-2.2,6-3.7
			c0,0.6,0.1,1.4,0.2,2.2c0.1,0.8,0.2,1.6,0.3,2.3c0.2,0.7,0.3,1.3,0.4,1.7c-1.8,1.3-4,2.5-6.6,3.3
			C190.8,305.7,188.2,306.1,185.4,306.1z M232,307.8c-0.5-1-1.1-2.1-2-3.3c-0.8-1.3-1.7-2.6-2.7-3.9c-1-1.3-2-2.6-3-3.8
			c-1-1.2-1.9-2.3-2.8-3.3s-1.6-1.7-2.2-2.2c-0.9-0.8-1.3-1.6-1.3-2.3c0-0.7,0.4-1.3,1.2-2c0.6-0.5,1.3-1.2,2.3-2
			c0.9-0.9,1.8-1.8,2.8-2.9c1-1.1,2-2.2,3-3.4c1-1.2,1.8-2.3,2.6-3.4c0.8-1.1,1.4-2.2,1.8-3.1l5.5,3.7c-0.5,0.6-1.1,1.3-1.8,2.2
			c-0.8,0.8-1.6,1.7-2.5,2.7c-0.9,1-1.8,1.9-2.7,2.9c-0.9,0.9-1.7,1.8-2.5,2.6c-0.8,0.8-1.5,1.5-2,2c-0.3,0.3-0.4,0.5-0.4,0.8
			s0.2,0.6,0.5,0.9c0.5,0.5,1.1,1.2,1.9,2.1c0.8,0.9,1.7,1.9,2.7,3.1c1,1.1,1.9,2.3,2.9,3.5c1,1.2,1.8,2.3,2.6,3.2
			c0.8,1,1.4,1.8,1.8,2.5c-0.6,0.2-1.2,0.5-1.9,0.9c-0.7,0.4-1.4,0.8-2.1,1.2C233,306.9,232.4,307.4,232,307.8z M268.1,297.3
			c-0.1-1-0.2-2.3-0.3-3.6c-0.1-1.3-0.2-2.8-0.3-4.3c-0.1-1.5-0.2-3-0.3-4.4c-0.1-1.4-0.2-2.7-0.2-3.8c-0.1-1.1-0.1-2-0.1-2.7v-5.7
			h7v5.7c0,0.6,0,1.6-0.1,2.7c-0.1,1.1-0.1,2.4-0.2,3.8c-0.1,1.4-0.2,2.9-0.3,4.4c-0.1,1.5-0.2,2.9-0.3,4.3
			c-0.1,1.3-0.2,2.6-0.3,3.6H268.1z M270.4,307.4c-1,0-1.9-0.4-2.7-1.1c-0.8-0.8-1.1-1.6-1.1-2.7c0-1.1,0.4-1.9,1.1-2.7
			s1.6-1.1,2.7-1.1c1.1,0,1.9,0.4,2.7,1.1c0.8,0.7,1.1,1.6,1.1,2.7c0,1-0.4,1.9-1.1,2.7C272.3,307,271.4,307.4,270.4,307.4z"/>
	</g>
	<g>
		<path class="st1" d="M9.3,175.8l-3.2-5.9c1.8-0.3,3.8-0.9,5.9-1.8c2-0.9,4.2-1.9,6.2-3.1c2.1-1.2,4.1-2.6,6-4
			c1.9-1.4,3.6-2.9,5.1-4.3c1.5-1.5,2.8-2.9,3.7-4.2c0.2,0.6,0.4,1.3,0.6,2.1c0.3,0.8,0.6,1.5,0.9,2.3c0.3,0.8,0.6,1.3,0.9,1.8
			c-1.3,1.7-2.9,3.3-4.8,5.1c-1.9,1.7-4,3.3-6.3,4.9s-4.7,3-7.3,4.2C14.4,173.9,11.9,175,9.3,175.8z M16.5,155.2
			c-0.4-0.4-0.9-0.8-1.6-1.2c-0.6-0.5-1.4-0.9-2.2-1.4c-0.8-0.5-1.5-0.9-2.2-1.3c-0.7-0.4-1.3-0.6-1.8-0.9l3.2-5
			c0.5,0.3,1.2,0.6,1.9,1.1c0.8,0.4,1.5,0.9,2.3,1.5c0.8,0.5,1.5,1,2.2,1.5c0.6,0.4,1.2,0.8,1.6,1.1L16.5,155.2z M10.9,163.3
			c-0.5-0.4-1.3-0.9-2.3-1.5c-1-0.5-1.9-1-3-1.5c-1-0.5-1.9-0.9-2.7-1.1l3-5.2c0.8,0.3,1.7,0.7,2.7,1.2c1,0.5,2,1,3,1.6
			c1,0.5,1.8,1,2.4,1.5L10.9,163.3z M32.6,148.8c-0.5-0.8-1.2-1.5-2-2.3c-0.8-0.8-1.5-1.5-2.2-2l2.3-2.2c0.4,0.3,0.9,0.7,1.4,1.2
			c0.6,0.5,1.1,1.1,1.7,1.6c0.5,0.5,1,1,1.3,1.4L32.6,148.8z M29.1,152.1c-0.5-0.8-1.2-1.6-2-2.4c-0.8-0.8-1.6-1.5-2.2-2l2.4-2.2
			c0.4,0.3,0.8,0.7,1.3,1.2c0.6,0.5,1.1,1.1,1.7,1.6c0.5,0.5,1,1,1.3,1.4L29.1,152.1z M59,177.1c0-0.3-0.1-0.9-0.3-1.7
			c-0.1-0.9-0.3-1.9-0.5-3.1c-0.2-1.2-0.5-2.5-0.8-3.9c-0.3-1.4-0.5-2.8-0.8-4.2c-1.7,0.3-3.3,0.6-4.6,1c-1.3,0.3-2.3,0.5-2.9,0.6
			l-1-4.9c0.8,0,1.8-0.1,3.1-0.3c1.3-0.2,2.9-0.4,4.5-0.6c-0.3-1.6-0.6-3-0.9-4.2s-0.5-1.9-0.6-2.3l4.5-0.9c0,0.3,0.2,1.1,0.4,2.3
			c0.3,1.2,0.5,2.6,0.9,4.4c1.6-0.3,3.1-0.6,4.5-0.9c1.5-0.3,2.7-0.5,3.8-0.8c1.1-0.3,1.9-0.5,2.4-0.7l2.9,1.9c-0.5,1-1,2.1-1.7,3.3
			c-0.7,1.2-1.4,2.4-2.2,3.6c-0.7,1.2-1.4,2.3-2,3.1c-0.5-0.4-1.1-0.9-2-1.3c-0.8-0.4-1.5-0.8-2-1c0.4-0.6,1-1.2,1.5-2
			c0.6-0.8,1.1-1.6,1.7-2.4c-0.9,0.2-1.8,0.3-2.9,0.5c-1,0.2-2,0.4-3.1,0.6c0.3,1.5,0.6,2.9,0.9,4.3c0.3,1.4,0.6,2.8,0.9,3.9
			c0.3,1.2,0.6,2.2,0.8,3c0.2,0.8,0.3,1.3,0.4,1.5c-0.8,0-1.7,0.2-2.6,0.3C60.3,176.6,59.5,176.9,59,177.1z M90.2,175.3
			c-0.5-0.8-1-1.6-1.7-2.5c-0.6-0.9-1.3-1.7-2.1-2.3c1.9-0.8,3.8-1.8,5.7-3.1c1.9-1.2,3.7-2.6,5.4-4.2c1.7-1.5,3.3-3.1,4.8-4.9
			c1.5-1.7,2.7-3.5,3.7-5.2c-1.3,0.1-2.8,0.2-4.2,0.3c-1.5,0.1-3,0.2-4.4,0.3s-2.7,0.2-3.8,0.3c-1.1,0.1-2,0.2-2.6,0.2l-0.6-6.1
			c0.6,0,1.7,0,3,0c1.3,0,2.9-0.1,4.5-0.1c1.6-0.1,3.2-0.2,4.9-0.2c1.6-0.1,3.1-0.2,4.4-0.3c1.3-0.1,2.3-0.3,3-0.4l3.9,2.5
			c-0.6,1.8-1.5,3.6-2.4,5.4c-0.9,1.7-2,3.4-3.2,5.1c0.9,0.7,1.9,1.5,2.9,2.4c1,0.9,2,1.8,3,2.7s1.9,1.8,2.7,2.6
			c0.8,0.8,1.5,1.6,2,2.2c-0.9,0.6-1.7,1.2-2.6,2c-0.8,0.8-1.6,1.6-2.3,2.4c-0.6-1-1.6-2-2.6-3.2c-1.1-1.2-2.2-2.4-3.4-3.6
			c-1.2-1.2-2.3-2.3-3.4-3.2c-2.2,2.3-4.5,4.4-7,6.3C95.2,172.4,92.8,174,90.2,175.3z M133.3,177.7c-0.4-1-1-1.9-1.6-2.9
			c-0.6-0.9-1.1-1.7-1.7-2.2c2.8-0.9,5.3-2.2,7.8-3.8c2.5-1.6,4.7-3.5,6.7-5.5c-0.6-0.4-1.3-0.9-2-1.2c-0.6-0.4-1.3-0.7-1.9-1
			l3.4-4.4c0.6,0.3,1.3,0.6,2,1c0.7,0.4,1.5,0.8,2.2,1.2c0.5-0.8,1-1.5,1.5-2.3c0.5-0.8,0.9-1.6,1.2-2.4c-1.1,0.1-2.2,0.1-3.3,0.2
			c-1.1,0.1-2.2,0.1-3.1,0.2c-1,0.1-1.8,0.1-2.4,0.1c-1.1,1.7-2.4,3.2-3.7,4.8c-1.3,1.6-2.9,3-4.6,4.3c-0.6-0.7-1.2-1.5-2-2.2
			c-0.8-0.8-1.5-1.3-2.2-1.7c1.8-1.3,3.5-2.9,5.1-4.7c1.6-1.8,3-3.8,4.1-5.8c1.1-2,2-4,2.6-5.9l5.5,1.7c-0.3,0.7-0.5,1.5-0.9,2.2
			c-0.3,0.8-0.6,1.5-1,2.3c1.1-0.1,2.3-0.1,3.6-0.1c1.2-0.1,2.4-0.1,3.5-0.2s1.9-0.2,2.5-0.2l3.8,2c-1.3,4.2-3,7.9-5.2,11.1
			c1,0.7,1.8,1.5,2.6,2.2s1.5,1.4,2,2c-0.5,0.3-1,0.8-1.5,1.3c-0.5,0.5-1.1,1.1-1.6,1.7c-0.5,0.6-0.9,1.1-1.2,1.6
			c-0.5-0.6-1.1-1.3-1.9-2c-0.7-0.7-1.5-1.4-2.3-2.2c-2.1,2.3-4.5,4.4-7.2,6.1C139.4,174.9,136.4,176.4,133.3,177.7z M179.7,176.1
			c-0.3-0.7-0.6-1.5-1.1-2.3c-0.5-0.9-1-1.5-1.5-2c4.7-1.1,8.4-3,11-5.7c2.6-2.8,4.3-6.4,5-11.1l4.6,0.8c-0.6,3.9-1.7,7.2-3.3,9.8
			c-1.6,2.6-3.6,4.7-6.1,6.4C185.9,173.7,183,175,179.7,176.1z M183.5,162.4c-0.1-0.5-0.2-1.2-0.5-2.1c-0.2-0.9-0.5-1.7-0.8-2.6
			c-0.3-0.9-0.5-1.5-0.8-1.9l4.3-1.3c0.3,0.5,0.5,1.2,0.8,2c0.3,0.8,0.6,1.7,0.9,2.6c0.3,0.9,0.4,1.6,0.5,2.2L183.5,162.4z
			 M176.9,163.9c-0.1-0.5-0.3-1.2-0.5-2c-0.3-0.9-0.5-1.7-0.9-2.5c-0.3-0.8-0.6-1.5-0.9-1.9l4.3-1.6c0.3,0.5,0.6,1.1,0.9,2
			c0.3,0.8,0.6,1.7,0.9,2.5c0.3,0.9,0.5,1.6,0.6,2.2L176.9,163.9z M218.2,176.7c-0.2-0.5-0.5-1.1-0.9-1.8c-0.4-0.6-0.8-1.3-1.2-1.9
			c-0.4-0.6-0.8-1.1-1.2-1.5c3.5-0.7,6.1-1.8,7.9-3.2c1.8-1.5,3-3.6,3.3-6.3c-2.2,0-4.2,0.1-6.1,0.1c-1.9,0.1-3.6,0.1-5.1,0.2
			c-1.4,0.1-2.4,0.1-3,0.2l-0.3-5.5c0.5,0.1,1.5,0.1,3,0.1s3.2,0,5.2-0.1c2,0,4.2-0.1,6.5-0.1v-4.5c-3,0.4-5.7,0.6-8.1,0.6
			c-0.1-0.5-0.2-1.1-0.4-1.8c-0.2-0.6-0.4-1.3-0.6-2c-0.3-0.6-0.5-1.2-0.7-1.6c1.7,0,3.6,0,5.5-0.2c1.9-0.2,3.9-0.3,5.8-0.6
			s3.8-0.7,5.5-1.1c1.7-0.4,3.2-0.9,4.6-1.5l2.3,4.9c-1,0.4-2.3,0.8-3.6,1.2c-1.3,0.4-2.8,0.7-4.3,1v5.4c1.9-0.1,3.8-0.1,5.5-0.2
			c1.7-0.1,3.2-0.2,4.4-0.2c1.2-0.1,2-0.2,2.5-0.2v5.8c-0.5,0-1.4-0.1-2.6-0.1c-1.2,0-2.7-0.1-4.4-0.1c-1.7,0-3.5,0-5.4,0.1
			c-0.4,4-1.7,7.2-4.1,9.5C225.9,173.7,222.6,175.4,218.2,176.7z M279.3,177.2c-2.8-0.3-5.3-1.1-7.4-2.4c-2.1-1.3-3.8-3-5-5.1
			c-1.2-2.1-1.8-4.5-1.8-7.2c0-1.8,0.4-3.6,1.2-5.3s1.9-3.4,3.4-4.9c-2,0.3-3.9,0.7-5.9,1c-1.9,0.3-3.6,0.6-5.1,1
			c-1.5,0.3-2.7,0.6-3.6,0.9l-1.3-6.1c0.8,0,2-0.1,3.6-0.3c1.6-0.2,3.3-0.4,5.3-0.6c1.9-0.3,4-0.6,6.1-0.9c2.1-0.3,4.2-0.6,6.1-1
			c1.9-0.4,3.7-0.7,5.3-1c1.6-0.3,2.8-0.6,3.6-0.9l1.6,5.8c-0.4,0-1,0.1-1.6,0.2c-0.6,0.1-1.3,0.2-2.1,0.3c-1.3,0.2-2.6,0.5-3.9,1.2
			c-1.3,0.6-2.4,1.5-3.5,2.5c-1,1-1.8,2.3-2.4,3.7c-0.6,1.3-0.9,2.9-0.9,4.6c0,1.9,0.5,3.5,1.5,4.7c1,1.2,2.3,2.2,4.1,2.9
			c1.7,0.6,3.7,1.1,5.9,1.4c-0.5,0.5-0.9,1.1-1.4,1.8c-0.4,0.7-0.8,1.5-1.1,2.2S279.4,176.7,279.3,177.2z M282.5,161.9
			c-0.5-0.8-1.1-1.7-1.9-2.5c-0.7-0.9-1.4-1.6-2-2.2l2.5-2c0.4,0.3,0.8,0.8,1.3,1.3c0.5,0.6,1,1.1,1.5,1.7s0.9,1.1,1.2,1.5
			L282.5,161.9z M286.3,158.8c-0.5-0.8-1.1-1.6-1.9-2.5c-0.8-0.9-1.4-1.6-2-2.2l2.5-2c0.4,0.3,0.8,0.8,1.3,1.3
			c0.5,0.6,1,1.1,1.5,1.7s0.9,1.1,1.1,1.5L286.3,158.8z M4.6,242.8c-0.5-0.9-1.1-1.7-1.7-2.6c-0.6-0.9-1.3-1.6-2.1-2.2
			c2-1,3.9-2.3,5.6-3.6c1.8-1.4,3.3-3,4.7-4.7c1.4-1.8,2.5-3.7,3.2-5.8c0.8-2,1.2-4.3,1.2-6.7v-9.3h5.9v7.7c0,2.6,0.4,5.1,1.2,7.4
			c0.9,2.3,2,4.3,3.5,6.1c1.5,1.8,3.1,3.4,4.9,4.8c1.8,1.3,3.8,2.5,5.8,3.5c-0.6,0.7-1.3,1.6-2,2.6c-0.6,1-1.2,1.9-1.7,2.8
			c-2.1-1.1-4.1-2.5-6-4.2s-3.5-3.5-5-5.4c-1.4-1.9-2.5-3.9-3.4-5.9c-0.8,2.2-2,4.2-3.5,6.1c-1.5,1.9-3.2,3.7-5.1,5.3
			S6.6,241.7,4.6,242.8z M72.7,240.8c-2.6,0.4-5.1,0.7-7.4,0.9c-2.4,0.1-4.6,0.1-6.7-0.2c-2-0.2-3.9-0.7-5.4-1.3
			c-1.6-0.6-2.8-1.6-3.7-2.8c-0.9-1.2-1.3-2.6-1.3-4.4c0-2.4,0.8-4.4,2.3-6s3.6-3,6.3-4.2c-0.4-1.2-0.8-2.6-1-4.2
			c-0.3-1.7-0.5-3.4-0.6-5.3c-0.1-1.9-0.1-3.7,0-5.4h6.1c-0.2,1.3-0.2,2.8-0.2,4.4c0.1,1.6,0.2,3.1,0.3,4.6c0.2,1.5,0.4,2.8,0.6,3.9
			c1.3-0.4,2.6-0.8,4.1-1.2c1.5-0.4,3-0.8,4.5-1.2l1,6c-2.2,0.2-4.4,0.5-6.5,1c-2,0.5-3.9,1.1-5.6,1.8c-1.7,0.7-3,1.5-3.9,2.4
			c-1,0.9-1.5,1.8-1.5,2.8c0,0.9,0.5,1.7,1.5,2.3c1,0.6,2.4,1,4.2,1.2c1.8,0.2,3.9,0.2,6.2-0.1c2.4-0.2,4.9-0.7,7.4-1.4
			c-0.2,0.5-0.3,1.1-0.5,1.9c-0.1,0.8-0.2,1.5-0.3,2.3C72.7,239.5,72.6,240.2,72.7,240.8z M105.8,240.8c-0.1-0.5-0.3-1.1-0.7-1.8
			c-0.3-0.7-0.8-1.4-1.2-2c-0.4-0.6-0.9-1.2-1.3-1.6c3.7-0.6,6.4-1.7,8.1-3.3c1.8-1.7,2.7-3.7,2.8-6c0.1-1.8-0.2-3.3-0.9-4.7
			c-0.7-1.3-1.7-2.5-3-3.3c-1.2-0.9-2.5-1.5-4-1.7c-0.2,2.3-0.6,4.7-1.2,7.1c-0.5,2.4-1.3,4.7-2.3,7c-1,2.2-2.2,4-3.7,5.6
			c-1.2,1.3-2.4,2-3.5,2.3c-1.1,0.2-2.3,0-3.5-0.5c-1.2-0.5-2.2-1.3-3.1-2.3c-0.9-1.1-1.6-2.4-2-3.8c-0.4-1.5-0.6-3-0.5-4.6
			c0.1-2.4,0.7-4.6,1.7-6.7c1-2,2.4-3.7,4.1-5.2c1.7-1.5,3.7-2.5,5.9-3.2c2.2-0.8,4.6-1.1,7.1-0.9c2.1,0.1,4,0.6,5.9,1.4
			s3.4,1.9,4.7,3.3c1.3,1.4,2.4,3,3.1,4.9c0.7,1.8,1,3.8,0.9,6c-0.2,3.8-1.5,6.8-3.9,9.3C113,238.2,109.8,239.9,105.8,240.8z
			 M94.5,231.9c0.9-0.8,1.7-2,2.4-3.6c0.8-1.6,1.4-3.4,1.9-5.4c0.5-2,0.9-4,1-6.1c-1.6,0.5-3,1.2-4.3,2.3c-1.2,1-2.2,2.2-2.9,3.7
			c-0.7,1.4-1.1,3-1.2,4.7c-0.1,1,0.1,1.9,0.3,2.6c0.3,0.8,0.7,1.3,1.2,1.9C93.5,232.3,94,232.3,94.5,231.9z M128.1,241.4v-14.2h5.9
			v8.7h7.4v-10.4h-12.1v-14.8h6.1v9.3h6v-12.2h6V220h5.9v-9.4h6.1v14.8h-12.1v10.4h7.5v-8.7h5.9v14.2L128.1,241.4L128.1,241.4z
			 M197.9,243.4c-0.3-0.6-0.6-1.2-1.1-1.9c-0.5-0.6-1-1.3-1.6-2c-1.2,0.2-2.6,0.4-4.2,0.6c-1.6,0.2-3.3,0.4-5.1,0.6
			c-1.8,0.2-3.5,0.4-5.2,0.6s-3.3,0.3-4.7,0.5c-1.5,0.1-2.6,0.2-3.6,0.3l-1.1-5.7c0.5,0,1.2,0,2,0c0.9-0.1,1.8-0.1,2.9-0.2
			c0.5-0.8,1-1.7,1.5-2.7c0.5-1,1-1.9,1.4-2.9h-8.6v-5.1h31.9v5.1h-8c1,0.8,1.9,1.7,3,2.9c1.1,1.1,2.1,2.2,3,3.2
			c0.9,1.1,1.7,2,2.2,2.8c-0.4,0.3-1,0.6-1.6,1.1s-1.2,1-1.8,1.5C198.7,242.5,198.2,243,197.9,243.4z M170.8,223.9
			c-0.4-0.8-0.9-1.6-1.6-2.5c-0.6-0.9-1.3-1.7-2-2.3c1.6-0.6,3.2-1.3,4.9-2.3c1.7-1,3.3-2,4.8-3.2c1.6-1.2,2.9-2.3,4.2-3.6
			c1.2-1.2,2.2-2.3,2.9-3.3l5.4,0.8c0.9,1.1,1.9,2.2,3.2,3.3c1.3,1.1,2.8,2.1,4.3,3.1c1.6,1,3.1,1.9,4.6,2.6c1.6,0.8,3,1.3,4.3,1.8
			c-0.5,0.4-1,1-1.6,1.6c-0.5,0.6-1,1.3-1.5,1.9c-0.4,0.6-0.8,1.2-1,1.7c-1.7-0.8-3.6-1.8-5.7-3.1v3.1h-19.1v-3.2
			C174.6,221.9,172.6,223.1,170.8,223.9z M179.6,218.6H193c-1.3-0.9-2.5-1.9-3.6-2.9c-1.1-1-2.1-2-2.9-3c-0.8,0.9-1.7,1.9-3,2.9
			C182.3,216.7,181,217.6,179.6,218.6z M183.3,235.7c1.3-0.1,2.8-0.3,4.1-0.4s2.6-0.3,3.8-0.4c-0.5-0.4-0.9-0.8-1.3-1.2
			c-0.4-0.4-0.8-0.6-1.1-0.9l2.6-2.2h-5.4c-0.4,0.8-0.8,1.6-1.2,2.5C184.2,234,183.7,234.8,183.3,235.7z M225.4,236.3
			c-1.5,0.8-2.9,1.1-4.1,1c-1.2-0.2-2.3-0.9-3.1-2.2c-0.9-1.2-1.6-2.8-2.4-4.5c-0.7-1.7-1.3-3.6-1.8-5.6c-0.5-1.9-0.9-3.9-1.2-5.9
			c-0.3-2-0.4-3.8-0.3-5.6l5.9,0.1c-0.1,1.2-0.1,2.5,0.1,4c0.2,1.5,0.4,3,0.7,4.5c0.3,1.5,0.7,2.9,1.2,4.2c0.4,1.3,0.9,2.3,1.3,3.1
			c0.6,1,1.5,1.2,2.4,0.6c0.6-0.4,1.2-0.9,1.9-1.6c0.6-0.6,1.2-1.3,1.7-2c0.2,0.5,0.4,1,0.8,1.6c0.4,0.6,0.8,1.2,1.2,1.8
			c0.4,0.6,0.8,1,1.2,1.4c-0.8,1.2-1.7,2.2-2.6,3.1C227.4,235.2,226.4,235.8,225.4,236.3z M239.4,228.8c-0.3-0.8-0.6-1.7-1.2-2.9
			c-0.5-1.2-1.2-2.4-1.9-3.6c-0.7-1.2-1.5-2.4-2.2-3.4c-0.7-1-1.4-1.8-2-2.3l4.5-3c0.7,0.6,1.5,1.5,2.3,2.6c0.9,1.1,1.7,2.3,2.5,3.6
			s1.5,2.5,2.2,3.7c0.6,1.2,1.1,2.2,1.3,3.1c-1,0.2-1.9,0.5-3,0.9C240.9,228,240.1,228.4,239.4,228.8z M257.5,241.3
			c-0.3-0.3-0.8-0.6-1.3-1c-0.6-0.4-1.2-0.8-1.9-1.1c-0.6-0.4-1.2-0.6-1.6-0.8c1.6-1.8,3.1-4,4.5-6.7c1.4-2.7,2.6-5.6,3.7-8.5
			c-1.2,0.2-2.4,0.3-3.6,0.5c-1.1,0.2-2.1,0.4-2.9,0.6c0-0.4-0.1-1-0.2-1.7c-0.1-0.7-0.2-1.3-0.4-2c-0.1-0.6-0.3-1.2-0.4-1.6
			c0.6-0.1,1.3-0.1,2.3-0.2s2-0.2,3.2-0.2c1.2-0.1,2.4-0.2,3.6-0.3c0.4-1.6,0.8-3.1,1-4.6c0.3-1.5,0.5-2.9,0.6-4.3l5.7,1
			c-0.3,2.3-0.9,4.9-1.6,7.5c0.4,0,0.8-0.1,1.1-0.1s0.6,0,0.9,0c1.1,0,2,0.2,2.9,0.5c0.9,0.3,1.6,0.9,2.1,1.7s0.9,2,1,3.5
			c0.1,1.5,0,3.3-0.4,5.6c-0.4,2.4-0.9,4.3-1.3,5.8c-0.5,1.5-1.1,2.7-1.7,3.6c-0.6,0.8-1.4,1.4-2.3,1.7c-0.9,0.3-2,0.5-3.2,0.5
			c-1.6,0-2.9-0.2-4.1-0.7c0-0.5,0-1.1,0-1.7c0-0.6,0-1.3-0.1-2c-0.1-0.6-0.2-1.2-0.3-1.7c0.6,0.2,1.2,0.3,2,0.5
			c0.7,0.1,1.3,0.2,1.9,0.2c0.4,0,0.8-0.1,1-0.2c0.3-0.2,0.6-0.5,1-0.9c0.3-0.5,0.6-1.2,0.9-2.2c0.3-1,0.6-2.3,0.9-3.9
			c0.3-1.6,0.5-2.9,0.4-3.6c-0.1-0.8-0.3-1.3-0.6-1.6s-0.9-0.4-1.5-0.4c-0.3,0-0.5,0-0.9,0c-0.3,0-0.7,0-1.1,0.1
			c-0.8,2.4-1.7,4.8-2.8,7.1c-1,2.3-2,4.5-3.1,6.5C259.5,238.2,258.5,239.9,257.5,241.3z M285.1,231.4c-0.4-0.7-1-1.6-1.7-2.5
			c-0.7-1-1.5-2-2.4-3c-0.9-1-1.7-1.9-2.5-2.8s-1.5-1.5-2-1.9l4.3-3.6c0.5,0.5,1.2,1.1,2,1.9s1.7,1.7,2.6,2.7c0.9,1,1.7,1.9,2.4,2.9
			c0.8,0.9,1.4,1.7,1.8,2.4L285.1,231.4z M284.2,218.4c-0.6-0.6-1.5-1.3-2.4-2s-1.8-1.2-2.5-1.6l1.9-2.6c0.4,0.2,1,0.5,1.6,1
			c0.6,0.4,1.3,0.9,1.9,1.3c0.6,0.4,1.1,0.8,1.5,1.2L284.2,218.4z M287.1,214.6c-0.6-0.6-1.5-1.3-2.4-2c-0.9-0.6-1.8-1.2-2.5-1.6
			l1.9-2.6c0.4,0.2,1,0.5,1.6,0.9c0.6,0.4,1.3,0.9,1.9,1.3c0.6,0.5,1.1,0.9,1.5,1.2L287.1,214.6z M24.6,307c-2.3,0.1-4.4,0-6.5-0.3
			s-3.9-0.8-5.6-1.5c-1.6-0.8-2.9-1.8-3.9-3.1c-1-1.3-1.5-2.9-1.5-4.9c0-1.8,0.5-3.3,1.7-4.5c1.1-1.3,2.6-2.2,4.5-2.9s4-0.8,6.4-0.6
			c-0.5-0.8-1-1.5-1.4-2.3c-0.4-0.8-0.9-1.6-1.2-2.4c-2.5,0.2-4.9,0.3-7.2,0.4c-2.3,0.1-4.3,0.2-5.9,0.1l-0.6-5.6
			c1.3,0.2,3.1,0.2,5.2,0.2s4.4-0.1,6.7-0.2c-0.3-1.1-0.5-2.3-0.7-3.4c-0.2-1.1-0.2-2.3-0.2-3.3h5.7c0,1.1,0.1,2.1,0.2,3.2
			c0.1,1.1,0.3,2.1,0.6,3.1c2.5-0.2,4.7-0.5,6.8-0.9c2.1-0.4,3.8-0.8,5.1-1.2l0.7,5.4c-1.2,0.3-2.7,0.5-4.6,0.8
			c-1.9,0.3-4,0.5-6.2,0.8c0.8,1.5,1.7,3,2.9,4.4c1.1,1.3,2.5,2.6,3.9,3.8l-3.5,3.8c-1-0.7-2.1-1.2-3.3-1.6
			c-1.2-0.4-2.3-0.6-3.5-0.6c-1.1-0.1-2.2,0.1-3.1,0.3c-0.9,0.3-1.7,0.6-2.3,1.2c-0.6,0.5-0.9,1.2-0.9,2c0,1.1,0.6,1.9,1.8,2.6
			c1.2,0.6,2.9,1,5,1.2c2.1,0.2,4.5,0.2,7.2,0.1c-0.4,0.5-0.7,1.1-1.1,1.9c-0.4,0.7-0.6,1.5-0.9,2.2C24.9,305.9,24.7,306.6,24.6,307
			z M57.5,307.3c-0.1-0.5-0.3-1.1-0.6-1.9c-0.3-0.7-0.6-1.4-1-2.1c-0.4-0.7-0.8-1.3-1.2-1.8c4.1,0.2,7.3-0.2,9.5-1.2
			c2.2-1,3.3-2.5,3.3-4.4c0-1-0.4-1.7-1.2-2.3c-0.8-0.6-1.9-0.9-3.2-0.9c-1.1,0-2.4,0.2-3.7,0.5c-1.3,0.3-2.5,0.9-3.6,1.6
			c-1.1,0.8-2.1,1.8-2.9,3.1l-5.1-2.2c0.5-0.9,1-2,1.3-3.4c0.4-1.3,0.6-2.8,0.9-4.3c0.3-1.5,0.4-2.9,0.5-4.2c0.1-1.3,0.1-2.4,0-3.2
			l6,0.8c0,1.2-0.1,2.6-0.3,4.2c-0.2,1.5-0.5,3.1-0.9,4.6c1.3-0.8,2.6-1.4,4-1.8c1.4-0.4,2.7-0.6,3.9-0.6c2.1,0,4,0.4,5.6,1.1
			c1.6,0.7,2.9,1.7,3.7,3c0.9,1.3,1.3,2.7,1.3,4.4c0,2-0.6,3.9-1.7,5.5c-1.2,1.7-3,3-5.4,4C64.3,306.6,61.3,307.2,57.5,307.3z
			 M63.8,282.3c-0.9-0.7-2-1.4-3.3-2.2c-1.3-0.7-2.6-1.3-4-1.9s-2.5-0.9-3.6-1.1l2.9-4.9c0.7,0.2,1.6,0.5,2.5,0.9
			c1,0.4,2,0.8,3.1,1.3c1.1,0.5,2,1,3,1.5c0.9,0.5,1.7,1,2.3,1.3L63.8,282.3z M88.7,305.3c-0.2-1.1-0.3-2.5-0.5-4
			c-0.1-1.6-0.2-3.3-0.2-5.2c0-1.9,0-3.8,0-5.8c0.1-2,0.1-3.9,0.2-5.8c0.1-1.9,0.3-3.7,0.5-5.3s0.4-3,0.8-4.2l5.6,1.2
			c-0.3,0.9-0.6,2.2-0.8,3.7c-0.2,1.5-0.4,3.2-0.5,5s-0.2,3.6-0.3,5.6c0,1.9,0,3.7,0.1,5.5c0.1,1.8,0.2,3.4,0.3,4.9
			c0.2,1.5,0.3,2.6,0.6,3.5L88.7,305.3z M106.3,303.3c-2.6,0-4.7-0.4-6.1-1.2c-1.5-0.8-2.4-2.1-2.6-3.8c-0.2-1.5,0.1-3.2,0.8-5.2
			l5,1.2c-0.3,0.8-0.4,1.3-0.3,1.8c0.3,1,1.8,1.6,4.5,1.6c1.1,0,2.3-0.1,3.6-0.2c1.3-0.2,2.5-0.3,3.7-0.6c1.2-0.2,2.3-0.5,3.2-0.7
			c-0.1,0.5-0.2,1.1-0.2,1.8c-0.1,0.7-0.1,1.5-0.2,2.2c0,0.8,0,1.4,0,2c-1.1,0.3-2.4,0.5-3.7,0.8c-1.3,0.2-2.6,0.3-3.9,0.4
			C108.4,303.3,107.3,303.3,106.3,303.3z M99.7,284.3l-0.3-5.9c1,0.2,2.3,0.3,3.7,0.3c1.5,0,3,0,4.6-0.1s3.1-0.2,4.5-0.4
			c1.4-0.2,2.6-0.4,3.6-0.6l-0.2,5.8c-1,0.2-2.3,0.4-3.7,0.5c-1.4,0.1-2.9,0.2-4.4,0.3c-1.5,0.1-2.9,0.1-4.3,0.2
			C101.9,284.4,100.7,284.4,99.7,284.3z M141.6,307.6v-8c-1.1,1-2.3,2-3.7,3c-1.4,1-2.8,1.8-4.3,2.6c-1.4,0.8-2.8,1.5-3.9,2
			c-0.7-1.6-1.8-3.1-3.2-4.5c1-0.3,2.1-0.8,3.3-1.3c1.2-0.6,2.5-1.2,3.7-1.9c1.2-0.7,2.4-1.5,3.4-2.2h-10v-4.6h14.7v-1.3H137v-16.1
			h3.2c0.2-0.4,0.4-1,0.8-1.7c0.3-0.7,0.5-1.5,0.7-2.2l5.9,0.9c-0.1,0.2-0.2,0.6-0.5,1.2c-0.3,0.6-0.6,1.2-0.9,1.7h5.9v3.1
			c0.5-0.4,1.1-1,1.8-1.6c0.6-0.6,1.3-1.2,1.9-1.9s1.2-1.2,1.6-1.7l4.2,3.1c-0.5,0.6-1.1,1.3-1.8,2c-0.7,0.8-1.5,1.5-2.3,2.2
			c-0.8,0.7-1.5,1.3-2.2,1.8c-0.3-0.4-0.8-1-1.5-1.7c-0.6-0.7-1.3-1.2-1.9-1.7v7.6l2.8-3.5c0.5,0.3,1.1,0.7,1.8,1.2
			c0.7,0.5,1.4,1,2.2,1.5c0.8,0.5,1.5,1,2,1.6c0.6,0.5,1.2,0.9,1.6,1.3c-0.6,0.5-1.2,1.1-1.9,1.9c-0.7,0.8-1.2,1.5-1.6,2
			c-0.5-0.5-1.1-1.1-2-1.7c-0.8-0.6-1.6-1.3-2.5-1.9c-0.9-0.6-1.6-1.1-2.3-1.6v4.2h-4.6v1.3h14.9v4.6h-10c1,0.8,2.2,1.5,3.4,2.2
			c1.2,0.7,2.4,1.3,3.7,1.9c1.2,0.5,2.3,1,3.3,1.3c-0.6,0.6-1.3,1.3-1.9,2.2c-0.5,0.8-1,1.6-1.3,2.4c-1.2-0.5-2.5-1.2-4-2
			s-2.9-1.7-4.3-2.7c-1.4-1-2.6-2-3.7-3.1v8.2h-5.9V307.6z M128.8,292.1l-2.3-4.6c0.8-0.3,1.8-0.7,3-1.2c1.2-0.5,2.3-1.1,3.5-1.7
			c1.2-0.6,2.2-1.2,2.9-1.7c0.1,0.4,0.1,1,0.2,1.6c0.1,0.6,0.2,1.3,0.3,1.9c0.1,0.6,0.2,1.1,0.3,1.6c-0.8,0.5-1.6,1-2.6,1.6
			c-1,0.5-2,1-2.9,1.5C130.1,291.5,129.4,291.8,128.8,292.1z M132.6,282.9c-0.4-0.6-0.9-1.2-1.6-2c-0.6-0.7-1.3-1.5-2-2.2
			c-0.6-0.7-1.3-1.3-2-1.8l3.8-3.5c0.6,0.4,1.3,1,2,1.8c0.8,0.8,1.5,1.5,2.2,2.3c0.7,0.8,1.2,1.3,1.6,1.9c-0.6,0.4-1.3,1-2.1,1.6
			C133.7,281.8,133.1,282.3,132.6,282.9z M142.3,286.9h4.4V285h-4.4V286.9z M142.3,281.3h4.4v-1.8h-4.4V281.3z M185.4,306.1
			c-2.2,0-4-0.2-5.4-0.6c-1.3-0.4-2.4-1.2-3-2.2s-0.9-2.4-0.9-4.2v-25.7l6.2,0.3c-0.1,0.5-0.1,1.2-0.2,2.3c-0.1,1-0.1,2.1-0.1,3.2
			c0,1-0.1,2-0.1,3.2s0,2.4,0,3.8v11.6c0,1,0.3,1.7,0.9,2c0.6,0.3,1.6,0.5,2.9,0.5c2.6,0,5.1-0.5,7.3-1.4c2.3-1,4.3-2.2,6-3.7
			c0,0.6,0.1,1.4,0.2,2.2c0.1,0.8,0.2,1.6,0.3,2.3c0.2,0.7,0.3,1.3,0.4,1.7c-1.8,1.3-4,2.5-6.6,3.3
			C190.8,305.7,188.2,306.1,185.4,306.1z M232,307.8c-0.5-1-1.1-2.1-2-3.3c-0.8-1.3-1.7-2.6-2.7-3.9c-1-1.3-2-2.6-3-3.8
			c-1-1.2-1.9-2.3-2.8-3.3s-1.6-1.7-2.2-2.2c-0.9-0.8-1.3-1.6-1.3-2.3c0-0.7,0.4-1.3,1.2-2c0.6-0.5,1.3-1.2,2.3-2
			c0.9-0.9,1.8-1.8,2.8-2.9c1-1.1,2-2.2,3-3.4c1-1.2,1.8-2.3,2.6-3.4c0.8-1.1,1.4-2.2,1.8-3.1l5.5,3.7c-0.5,0.6-1.1,1.3-1.8,2.2
			c-0.8,0.8-1.6,1.7-2.5,2.7c-0.9,1-1.8,1.9-2.7,2.9c-0.9,0.9-1.7,1.8-2.5,2.6c-0.8,0.8-1.5,1.5-2,2c-0.3,0.3-0.4,0.5-0.4,0.8
			s0.2,0.6,0.5,0.9c0.5,0.5,1.1,1.2,1.9,2.1c0.8,0.9,1.7,1.9,2.7,3.1c1,1.1,1.9,2.3,2.9,3.5c1,1.2,1.8,2.3,2.6,3.2
			c0.8,1,1.4,1.8,1.8,2.5c-0.6,0.2-1.2,0.5-1.9,0.9c-0.7,0.4-1.4,0.8-2.1,1.2C233,306.9,232.4,307.4,232,307.8z M268.1,297.3
			c-0.1-1-0.2-2.3-0.3-3.6c-0.1-1.3-0.2-2.8-0.3-4.3c-0.1-1.5-0.2-3-0.3-4.4c-0.1-1.4-0.2-2.7-0.2-3.8c-0.1-1.1-0.1-2-0.1-2.7v-5.7
			h7v5.7c0,0.6,0,1.6-0.1,2.7c-0.1,1.1-0.1,2.4-0.2,3.8c-0.1,1.4-0.2,2.9-0.3,4.4c-0.1,1.5-0.2,2.9-0.3,4.3
			c-0.1,1.3-0.2,2.6-0.3,3.6H268.1z M270.4,307.4c-1,0-1.9-0.4-2.7-1.1c-0.8-0.8-1.1-1.6-1.1-2.7c0-1.1,0.4-1.9,1.1-2.7
			s1.6-1.1,2.7-1.1c1.1,0,1.9,0.4,2.7,1.1c0.8,0.7,1.1,1.6,1.1,2.7c0,1-0.4,1.9-1.1,2.7C272.3,307,271.4,307.4,270.4,307.4z"/>
	</g>
</g>
</svg>
