<svg width="539" height="310" viewBox="0 0 539 310" fill="none" xmlns="http://www.w3.org/2000/svg">
<g filter="url(#filter0_d_383_11818)">
<path d="M16.576 63.08L10.528 52.064C13.936 51.44 17.56 50.336 21.4 48.752C25.24 47.12 29.08 45.176 32.92 42.92C36.808 40.616 40.504 38.144 44.008 35.504C47.512 32.864 50.656 30.2 53.44 27.512C56.272 24.776 58.528 22.184 60.208 19.736C60.496 20.888 60.88 22.184 61.36 23.624C61.888 25.064 62.464 26.456 63.088 27.8C63.712 29.144 64.288 30.248 64.816 31.112C62.416 34.184 59.44 37.304 55.888 40.472C52.384 43.592 48.496 46.592 44.224 49.472C39.952 52.352 35.464 54.968 30.76 57.32C26.056 59.624 21.328 61.544 16.576 63.08ZM29.896 24.848C29.176 24.176 28.192 23.408 26.944 22.544C25.696 21.68 24.352 20.816 22.912 19.952C21.52 19.04 20.152 18.224 18.808 17.504C17.464 16.784 16.36 16.256 15.496 15.92L21.544 6.704C22.552 7.232 23.752 7.904 25.144 8.72C26.536 9.536 27.928 10.424 29.32 11.384C30.76 12.296 32.104 13.184 33.352 14.048C34.6 14.864 35.584 15.56 36.304 16.136L29.896 24.848ZM19.528 39.896C18.52 39.08 17.128 38.192 15.352 37.232C13.576 36.224 11.728 35.288 9.808 34.424C7.936 33.56 6.28 32.864 4.84 32.336L10.312 22.688C11.8 23.264 13.48 24.032 15.352 24.992C17.272 25.904 19.12 26.864 20.896 27.872C22.72 28.88 24.208 29.768 25.36 30.536L19.528 39.896ZM59.704 12.968C58.696 11.576 57.448 10.136 55.96 8.648C54.472 7.112 53.128 5.888 51.928 4.976L56.248 0.871997C56.968 1.4 57.832 2.168 58.84 3.176C59.896 4.136 60.928 5.144 61.936 6.2C62.944 7.208 63.736 8.072 64.312 8.792L59.704 12.968ZM53.296 19.088C52.288 17.648 51.04 16.184 49.552 14.696C48.064 13.16 46.696 11.936 45.448 11.024L49.84 6.92C50.512 7.448 51.352 8.216 52.36 9.224C53.416 10.184 54.448 11.192 55.456 12.248C56.464 13.256 57.256 14.12 57.832 14.84L53.296 19.088ZM108.664 65.456C108.616 64.88 108.448 63.8 108.16 62.216C107.92 60.632 107.584 58.736 107.152 56.528C106.72 54.272 106.24 51.848 105.712 49.256C105.232 46.664 104.728 44.048 104.2 41.408C100.984 42.032 98.104 42.632 95.56 43.208C93.016 43.736 91.264 44.144 90.304 44.432L88.504 35.432C89.896 35.384 91.84 35.216 94.336 34.928C96.832 34.592 99.592 34.184 102.616 33.704C101.992 30.728 101.416 28.16 100.888 26C100.36 23.792 99.976 22.4 99.736 21.824L108.016 20.096C108.064 20.672 108.304 22.088 108.736 24.344C109.216 26.6 109.768 29.288 110.392 32.408C113.32 31.88 116.128 31.352 118.816 30.824C121.504 30.296 123.856 29.792 125.872 29.312C127.888 28.784 129.352 28.352 130.264 28.016L135.52 31.616C134.656 33.44 133.576 35.504 132.28 37.808C130.984 40.064 129.64 42.296 128.248 44.504C126.904 46.712 125.632 48.656 124.432 50.336C123.52 49.52 122.296 48.728 120.76 47.96C119.224 47.144 118 46.544 117.088 46.16C117.904 45.104 118.84 43.832 119.896 42.344C120.952 40.856 121.984 39.368 122.992 37.88C121.36 38.168 119.608 38.48 117.736 38.816C115.864 39.152 113.968 39.512 112.048 39.896C112.624 42.584 113.2 45.248 113.776 47.888C114.4 50.528 114.976 52.976 115.504 55.232C116.08 57.44 116.56 59.288 116.944 60.776C117.328 62.264 117.592 63.2 117.736 63.584C116.248 63.632 114.616 63.848 112.84 64.232C111.112 64.616 109.72 65.024 108.664 65.456ZM166.552 62.072C165.688 60.68 164.656 59.12 163.456 57.392C162.256 55.664 160.96 54.224 159.568 53.072C163.12 51.536 166.648 49.64 170.152 47.384C173.656 45.08 176.992 42.512 180.16 39.68C183.376 36.848 186.328 33.848 189.016 30.68C191.704 27.512 194.008 24.272 195.928 20.96C193.48 21.104 190.864 21.272 188.08 21.464C185.296 21.608 182.584 21.776 179.944 21.968C177.304 22.16 174.928 22.352 172.816 22.544C170.704 22.688 169.12 22.808 168.064 22.904L166.84 11.6C168.088 11.648 169.936 11.648 172.384 11.6C174.88 11.552 177.64 11.48 180.664 11.384C183.688 11.24 186.712 11.096 189.736 10.952C192.76 10.76 195.496 10.568 197.944 10.376C200.392 10.136 202.216 9.896 203.416 9.656L210.616 14.336C209.416 17.744 207.928 21.08 206.152 24.344C204.424 27.56 202.456 30.68 200.248 33.704C201.976 35.048 203.776 36.536 205.648 38.168C207.52 39.8 209.368 41.48 211.192 43.208C213.016 44.888 214.696 46.52 216.232 48.104C217.768 49.64 219.016 51.008 219.976 52.208C218.344 53.264 216.76 54.488 215.224 55.88C213.736 57.272 212.296 58.736 210.904 60.272C209.656 58.496 208.024 56.504 206.008 54.296C204.04 52.04 201.952 49.808 199.744 47.6C197.536 45.344 195.448 43.376 193.48 41.696C189.496 45.92 185.176 49.784 180.52 53.288C175.912 56.744 171.256 59.672 166.552 62.072ZM246.4 66.464C245.584 64.64 244.624 62.864 243.52 61.136C242.464 59.408 241.408 58.064 240.352 57.104C245.44 55.376 250.288 53.048 254.896 50.12C259.504 47.144 263.68 43.736 267.424 39.896C266.176 39.08 264.928 38.312 263.68 37.592C262.48 36.872 261.304 36.272 260.152 35.792L266.416 27.728C267.568 28.208 268.792 28.808 270.088 29.528C271.432 30.2 272.776 30.944 274.12 31.76C275.08 30.368 275.968 28.928 276.784 27.44C277.648 25.952 278.416 24.464 279.088 22.976C277.12 23.072 275.08 23.192 272.968 23.336C270.904 23.432 268.96 23.528 267.136 23.624C265.312 23.72 263.8 23.792 262.6 23.84C260.536 26.912 258.232 29.888 255.688 32.768C253.144 35.648 250.312 38.288 247.192 40.688C246.136 39.392 244.864 38.024 243.376 36.584C241.936 35.144 240.592 34.064 239.344 33.344C242.704 30.896 245.824 27.992 248.704 24.632C251.632 21.224 254.176 17.648 256.336 13.904C258.496 10.16 260.104 6.512 261.16 2.96L271.384 6.2C270.904 7.544 270.376 8.912 269.8 10.304C269.224 11.696 268.6 13.088 267.928 14.48C269.992 14.384 272.176 14.312 274.48 14.264C276.784 14.168 278.92 14.072 280.888 13.976C282.904 13.832 284.464 13.688 285.568 13.544L292.552 17.216C290.152 24.944 286.96 31.808 282.976 37.808C284.752 39.152 286.384 40.496 287.872 41.84C289.408 43.184 290.68 44.456 291.688 45.656C290.824 46.28 289.888 47.12 288.88 48.176C287.872 49.184 286.888 50.24 285.928 51.344C285.016 52.448 284.272 53.456 283.696 54.368C282.736 53.168 281.584 51.92 280.24 50.624C278.944 49.328 277.528 48.008 275.992 46.664C272.056 50.936 267.592 54.728 262.6 58.04C257.656 61.304 252.256 64.112 246.4 66.464ZM332.584 63.584C332.104 62.288 331.408 60.872 330.496 59.336C329.584 57.752 328.672 56.504 327.76 55.592C336.496 53.624 343.312 50.096 348.208 45.008C353.152 39.92 356.224 33.08 357.424 24.488L365.992 25.928C364.84 33.176 362.8 39.248 359.872 44.144C356.944 48.992 353.176 52.952 348.568 56.024C344.008 59.096 338.68 61.616 332.584 63.584ZM339.496 38.24C339.4 37.232 339.112 35.936 338.632 34.352C338.2 32.72 337.696 31.136 337.12 29.6C336.592 28.016 336.088 26.84 335.608 26.072L343.6 23.552C344.08 24.464 344.584 25.712 345.112 27.296C345.688 28.832 346.216 30.416 346.696 32.048C347.176 33.632 347.488 34.976 347.632 36.08L339.496 38.24ZM327.4 40.976C327.256 40.016 326.92 38.744 326.392 37.16C325.912 35.576 325.36 34.016 324.736 32.48C324.112 30.944 323.536 29.792 323.008 29.024L330.928 26.144C331.456 27.056 332.008 28.28 332.584 29.816C333.208 31.352 333.784 32.912 334.312 34.496C334.84 36.08 335.224 37.424 335.464 38.528L327.4 40.976ZM403.936 64.664C403.552 63.656 403.024 62.528 402.352 61.28C401.68 60.032 400.96 58.832 400.192 57.68C399.472 56.528 398.752 55.592 398.032 54.872C404.416 53.576 409.312 51.56 412.72 48.824C416.128 46.088 418.192 42.2 418.912 37.16C414.928 37.208 411.136 37.28 407.536 37.376C403.936 37.472 400.816 37.568 398.176 37.664C395.584 37.76 393.76 37.856 392.704 37.952L392.056 27.728C393.016 27.824 394.84 27.896 397.528 27.944C400.216 27.944 403.456 27.92 407.248 27.872C411.04 27.824 415.024 27.776 419.2 27.728V19.376C413.632 20.096 408.616 20.504 404.152 20.6C404.056 19.592 403.816 18.464 403.432 17.216C403.096 15.968 402.712 14.744 402.28 13.544C401.848 12.344 401.416 11.36 400.984 10.592C404.2 10.64 407.608 10.544 411.208 10.304C414.808 10.064 418.408 9.68 422.008 9.152C425.608 8.576 429.016 7.88 432.232 7.064C435.448 6.248 438.28 5.336 440.728 4.328L444.904 13.4C442.984 14.168 440.752 14.912 438.208 15.632C435.712 16.304 433.072 16.928 430.288 17.504V27.512C433.936 27.416 437.344 27.32 440.512 27.224C443.68 27.08 446.392 26.936 448.648 26.792C450.904 26.648 452.44 26.528 453.256 26.432V37.088C452.296 37.04 450.664 37.016 448.36 37.016C446.056 36.968 443.32 36.944 440.152 36.944C437.032 36.944 433.672 36.968 430.072 37.016C429.4 44.408 426.88 50.312 422.512 54.728C418.192 59.096 412 62.408 403.936 64.664ZM517.192 65.672C511.96 65.048 507.352 63.56 503.368 61.208C499.432 58.808 496.36 55.664 494.152 51.776C491.944 47.888 490.84 43.424 490.84 38.384C490.84 35.024 491.56 31.736 493 28.52C494.488 25.256 496.576 22.256 499.264 19.52C495.568 20.144 491.944 20.792 488.392 21.464C484.888 22.088 481.72 22.688 478.888 23.264C476.104 23.84 473.896 24.368 472.264 24.848L469.96 13.4C471.496 13.352 473.68 13.184 476.512 12.896C479.392 12.608 482.656 12.224 486.304 11.744C489.952 11.216 493.72 10.664 497.608 10.088C501.544 9.464 505.336 8.84 508.984 8.216C512.632 7.544 515.896 6.896 518.776 6.272C521.656 5.648 523.888 5.096 525.472 4.616L528.352 15.344C527.536 15.392 526.528 15.512 525.328 15.704C524.176 15.848 522.88 16.016 521.44 16.208C518.992 16.496 516.592 17.24 514.24 18.44C511.888 19.592 509.752 21.152 507.832 23.12C505.96 25.04 504.472 27.296 503.368 29.888C502.264 32.432 501.712 35.264 501.712 38.384C501.712 41.936 502.624 44.84 504.448 47.096C506.272 49.352 508.792 51.104 512.008 52.352C515.224 53.6 518.896 54.464 523.024 54.944C522.16 55.856 521.296 56.984 520.432 58.328C519.616 59.672 518.92 60.992 518.344 62.288C517.768 63.632 517.384 64.76 517.192 65.672ZM523.24 37.16C522.328 35.624 521.176 34.064 519.784 32.48C518.44 30.896 517.216 29.576 516.112 28.52L520.72 24.776C521.392 25.352 522.208 26.168 523.168 27.224C524.128 28.28 525.064 29.36 525.976 30.464C526.888 31.568 527.608 32.504 528.136 33.272L523.24 37.16ZM530.152 31.544C529.24 30.056 528.088 28.52 526.696 26.936C525.304 25.304 524.056 23.984 522.952 22.976L527.632 19.232C528.304 19.808 529.12 20.624 530.08 21.68C531.04 22.736 531.976 23.816 532.888 24.92C533.8 26.024 534.496 26.96 534.976 27.728L530.152 31.544ZM7.864 187.256C6.952 185.624 5.896 184.04 4.696 182.504C3.496 180.968 2.2 179.6 0.808 178.4C4.504 176.48 7.984 174.248 11.248 171.704C14.56 169.112 17.488 166.208 20.032 162.992C22.624 159.728 24.64 156.176 26.08 152.336C27.568 148.496 28.312 144.368 28.312 139.952V122.672H39.256V136.928C39.256 141.872 40.024 146.432 41.56 150.608C43.144 154.784 45.28 158.552 47.968 161.912C50.656 165.272 53.704 168.248 57.112 170.84C60.52 173.384 64.072 175.52 67.768 177.248C66.52 178.592 65.272 180.176 64.024 182C62.776 183.824 61.744 185.528 60.928 187.112C57.04 185.048 53.344 182.48 49.84 179.408C46.384 176.336 43.312 173 40.624 169.4C37.984 165.8 35.896 162.128 34.36 158.384C32.824 162.368 30.664 166.184 27.88 169.832C25.096 173.432 21.976 176.72 18.52 179.696C15.064 182.672 11.512 185.192 7.864 187.256ZM134.08 183.584C129.328 184.4 124.72 184.928 120.256 185.168C115.792 185.408 111.64 185.312 107.8 184.88C103.96 184.448 100.6 183.608 97.72 182.36C94.84 181.112 92.584 179.384 90.952 177.176C89.32 174.968 88.504 172.232 88.504 168.968C88.504 164.552 89.896 160.856 92.68 157.88C95.512 154.904 99.4 152.336 104.344 150.176C103.624 148.016 102.976 145.4 102.4 142.328C101.872 139.256 101.512 135.992 101.32 132.536C101.128 129.08 101.128 125.72 101.32 122.456H112.768C112.48 124.952 112.36 127.664 112.408 130.592C112.504 133.52 112.72 136.4 113.056 139.232C113.392 142.016 113.776 144.44 114.208 146.504C116.608 145.736 119.128 145.016 121.768 144.344C124.456 143.624 127.24 142.904 130.12 142.184L131.992 153.272C127.912 153.656 123.928 154.304 120.04 155.216C116.2 156.128 112.72 157.256 109.6 158.6C106.528 159.896 104.08 161.384 102.256 163.064C100.432 164.696 99.52 166.424 99.52 168.248C99.52 169.976 100.456 171.416 102.328 172.568C104.248 173.672 106.864 174.416 110.176 174.8C113.536 175.184 117.376 175.16 121.696 174.728C126.064 174.296 130.672 173.432 135.52 172.136C135.184 173.096 134.896 174.272 134.656 175.664C134.416 177.056 134.248 178.448 134.152 179.84C134.056 181.232 134.032 182.48 134.08 183.584ZM195.424 183.584C195.232 182.624 194.8 181.52 194.128 180.272C193.504 178.976 192.76 177.704 191.896 176.456C191.08 175.208 190.24 174.224 189.376 173.504C196.144 172.448 201.16 170.384 204.424 167.312C207.688 164.24 209.416 160.544 209.608 156.224C209.8 152.96 209.224 150.056 207.88 147.512C206.536 144.968 204.712 142.904 202.408 141.32C200.152 139.688 197.68 138.656 194.992 138.224C194.608 142.496 193.888 146.912 192.832 151.472C191.824 155.984 190.408 160.28 188.584 164.36C186.76 168.392 184.504 171.848 181.816 174.728C179.56 177.176 177.424 178.568 175.408 178.904C173.392 179.192 171.256 178.88 169 177.968C166.792 177.056 164.872 175.616 163.24 173.648C161.608 171.632 160.36 169.28 159.496 166.592C158.68 163.856 158.344 160.976 158.488 157.952C158.728 153.44 159.784 149.312 161.656 145.568C163.576 141.824 166.12 138.632 169.288 135.992C172.456 133.304 176.08 131.288 180.16 129.944C184.288 128.552 188.68 127.976 193.336 128.216C197.224 128.408 200.848 129.272 204.208 130.808C207.568 132.296 210.496 134.336 212.992 136.928C215.536 139.52 217.48 142.52 218.824 145.928C220.168 149.336 220.72 153.032 220.48 157.016C220.144 163.976 217.744 169.736 213.28 174.296C208.816 178.808 202.864 181.904 195.424 183.584ZM174.472 166.952C176.104 165.416 177.592 163.184 178.936 160.256C180.328 157.28 181.504 153.944 182.464 150.248C183.424 146.504 184.072 142.712 184.408 138.872C181.432 139.736 178.792 141.128 176.488 143.048C174.232 144.92 172.456 147.176 171.16 149.816C169.864 152.456 169.12 155.36 168.928 158.528C168.832 160.4 169.024 162.032 169.504 163.424C170.032 164.816 170.776 165.968 171.736 166.88C172.648 167.792 173.56 167.816 174.472 166.952ZM236.824 184.736V158.312H247.84V174.368H261.664V155.144H239.128V127.64H250.504V144.992H261.664V122.312H272.824V144.992H283.84V127.64H295.288V155.144H272.824V174.368H286.72V158.312H297.736V184.736H236.824ZM366.28 188.336C365.752 187.28 365.056 186.104 364.192 184.808C363.328 183.56 362.344 182.288 361.24 180.992C358.984 181.328 356.368 181.688 353.392 182.072C350.416 182.504 347.296 182.912 344.032 183.296C340.768 183.728 337.552 184.112 334.384 184.448C331.216 184.784 328.288 185.072 325.6 185.312C322.912 185.552 320.704 185.72 318.976 185.816L316.96 175.304C317.92 175.352 319.192 175.352 320.776 175.304C322.408 175.208 324.208 175.112 326.176 175.016C327.088 173.528 328 171.872 328.912 170.048C329.872 168.224 330.736 166.448 331.504 164.72H315.52V155.216H374.704V164.72H359.944C361.72 166.208 363.592 167.96 365.56 169.976C367.576 171.944 369.448 173.936 371.176 175.952C372.904 177.92 374.248 179.648 375.208 181.136C374.392 181.664 373.384 182.36 372.184 183.224C371.032 184.088 369.904 184.976 368.8 185.888C367.744 186.8 366.904 187.616 366.28 188.336ZM316.024 152.336C315.352 150.944 314.368 149.408 313.072 147.728C311.824 146.048 310.552 144.632 309.256 143.48C312.184 142.376 315.208 140.936 318.328 139.16C321.448 137.336 324.424 135.368 327.256 133.256C330.136 131.096 332.704 128.912 334.96 126.704C337.216 124.496 338.968 122.432 340.216 120.512L350.296 121.88C351.88 123.944 353.896 126.008 356.344 128.072C358.792 130.088 361.432 132.008 364.264 133.832C367.144 135.656 370 137.288 372.832 138.728C375.712 140.12 378.376 141.248 380.824 142.112C379.864 142.88 378.88 143.864 377.872 145.064C376.864 146.216 375.952 147.416 375.136 148.664C374.32 149.864 373.672 150.944 373.192 151.904C369.976 150.416 366.472 148.52 362.68 146.216V151.976H327.256V146C323.128 148.64 319.384 150.752 316.024 152.336ZM332.44 142.472H357.136C354.784 140.792 352.552 139.016 350.44 137.144C348.328 135.272 346.528 133.424 345.04 131.6C343.648 133.28 341.824 135.056 339.568 136.928C337.36 138.8 334.984 140.648 332.44 142.472ZM339.064 174.08C341.608 173.84 344.128 173.6 346.624 173.36C349.12 173.12 351.448 172.88 353.608 172.64C352.744 171.824 351.928 171.104 351.16 170.48C350.392 169.808 349.696 169.256 349.072 168.824L353.968 164.72H343.888C343.216 166.208 342.448 167.768 341.584 169.4C340.768 170.984 339.928 172.544 339.064 174.08ZM417.256 175.304C414.472 176.792 411.952 177.392 409.696 177.104C407.44 176.768 405.496 175.424 403.864 173.072C402.28 170.768 400.816 168.008 399.472 164.792C398.176 161.576 397.048 158.144 396.088 154.496C395.128 150.848 394.408 147.2 393.928 143.552C393.448 139.856 393.232 136.424 393.28 133.256L404.152 133.328C404.008 135.536 404.08 138.032 404.368 140.816C404.656 143.552 405.088 146.312 405.664 149.096C406.288 151.88 407.008 154.448 407.824 156.8C408.64 159.152 409.48 161.048 410.344 162.488C411.592 164.312 413.08 164.672 414.808 163.568C415.912 162.848 417.088 161.864 418.336 160.616C419.584 159.368 420.664 158.096 421.576 156.8C421.864 157.664 422.32 158.672 422.944 159.824C423.616 160.976 424.336 162.08 425.104 163.136C425.92 164.192 426.64 165.056 427.264 165.728C425.776 167.936 424.192 169.832 422.512 171.416C420.832 173 419.08 174.296 417.256 175.304ZM443.248 161.408C442.768 159.968 442 158.192 440.944 156.08C439.936 153.92 438.76 151.712 437.416 149.456C436.072 147.152 434.728 145.04 433.384 143.12C432.04 141.2 430.792 139.76 429.64 138.8L438.064 133.328C439.36 134.528 440.776 136.16 442.312 138.224C443.896 140.24 445.432 142.424 446.92 144.776C448.408 147.128 449.728 149.432 450.88 151.688C452.032 153.896 452.848 155.792 453.328 157.376C451.504 157.712 449.68 158.264 447.856 159.032C446.032 159.8 444.496 160.592 443.248 161.408ZM476.656 184.52C476.08 183.944 475.24 183.296 474.136 182.576C473.032 181.856 471.88 181.184 470.68 180.56C469.528 179.888 468.52 179.432 467.656 179.192C470.632 175.928 473.44 171.8 476.08 166.808C478.72 161.768 481 156.488 482.92 150.968C480.616 151.256 478.384 151.592 476.224 151.976C474.112 152.312 472.312 152.696 470.824 153.128C470.776 152.312 470.632 151.28 470.392 150.032C470.2 148.736 469.96 147.488 469.672 146.288C469.432 145.04 469.168 144.08 468.88 143.408C469.936 143.312 471.352 143.192 473.128 143.048C474.904 142.904 476.872 142.76 479.032 142.616C481.24 142.424 483.448 142.256 485.656 142.112C486.472 139.184 487.12 136.328 487.6 133.544C488.128 130.76 488.488 128.12 488.68 125.624L499.192 127.496C498.616 131.816 497.632 136.448 496.24 141.392C497.008 141.344 497.68 141.32 498.256 141.32C498.88 141.32 499.432 141.32 499.912 141.32C501.928 141.32 503.728 141.632 505.312 142.256C506.944 142.88 508.24 143.96 509.2 145.496C510.208 147.032 510.808 149.168 511 151.904C511.24 154.592 510.976 158.024 510.208 162.2C509.44 166.568 508.6 170.168 507.688 173C506.776 175.784 505.696 177.968 504.448 179.552C503.248 181.088 501.808 182.168 500.128 182.792C498.448 183.416 496.456 183.728 494.152 183.728C491.272 183.728 488.752 183.296 486.592 182.432C486.64 181.52 486.64 180.464 486.592 179.264C486.592 178.016 486.544 176.792 486.448 175.592C486.352 174.344 486.184 173.288 485.944 172.424C487.048 172.76 488.272 173.048 489.616 173.288C490.96 173.528 492.112 173.648 493.072 173.648C493.792 173.648 494.44 173.504 495.016 173.216C495.64 172.928 496.24 172.352 496.816 171.488C497.392 170.624 497.968 169.304 498.544 167.528C499.12 165.752 499.696 163.352 500.272 160.328C500.896 157.304 501.136 155.072 500.992 153.632C500.896 152.144 500.512 151.16 499.84 150.68C499.168 150.2 498.28 149.96 497.176 149.96C496.696 149.96 496.144 149.96 495.52 149.96C494.896 149.96 494.224 149.984 493.504 150.032C492.016 154.496 490.312 158.888 488.392 163.208C486.52 167.48 484.576 171.464 482.56 175.16C480.544 178.808 478.576 181.928 476.656 184.52ZM527.92 166.232C527.2 164.936 526.168 163.376 524.824 161.552C523.528 159.68 522.064 157.808 520.432 155.936C518.848 154.016 517.312 152.288 515.824 150.752C514.336 149.168 513.088 147.992 512.08 147.224L520 140.672C521.008 141.536 522.28 142.736 523.816 144.272C525.352 145.808 526.936 147.464 528.568 149.24C530.2 151.016 531.712 152.768 533.104 154.496C534.544 156.224 535.672 157.736 536.488 159.032L527.92 166.232ZM526.264 142.04C525.064 140.792 523.6 139.568 521.872 138.368C520.144 137.12 518.584 136.136 517.192 135.416L520.792 130.664C521.56 131.048 522.544 131.648 523.744 132.464C524.944 133.232 526.12 134.048 527.272 134.912C528.472 135.728 529.408 136.448 530.08 137.072L526.264 142.04ZM531.592 134.912C530.392 133.664 528.928 132.44 527.2 131.24C525.472 130.04 523.912 129.08 522.52 128.36L526.12 123.608C526.888 123.992 527.872 124.568 529.072 125.336C530.272 126.104 531.448 126.92 532.6 127.784C533.8 128.648 534.736 129.392 535.408 130.016L531.592 134.912ZM44.944 306.392C40.768 306.584 36.76 306.416 32.92 305.888C29.08 305.408 25.624 304.472 22.552 303.08C19.528 301.688 17.128 299.792 15.352 297.392C13.576 294.992 12.688 291.992 12.688 288.392C12.688 285.128 13.72 282.32 15.784 279.968C17.848 277.616 20.632 275.864 24.136 274.712C27.688 273.56 31.648 273.176 36.016 273.56C35.104 272.168 34.24 270.752 33.424 269.312C32.608 267.824 31.84 266.312 31.12 264.776C26.512 265.112 22.048 265.376 17.728 265.568C13.408 265.76 9.76 265.832 6.784 265.784L5.56 255.488C8.104 255.776 11.344 255.92 15.28 255.92C19.216 255.872 23.392 255.728 27.808 255.488C27.28 253.376 26.848 251.264 26.512 249.152C26.224 247.04 26.08 244.976 26.08 242.96H36.664C36.664 244.928 36.784 246.896 37.024 248.864C37.264 250.832 37.624 252.776 38.104 254.696C42.664 254.264 46.912 253.736 50.848 253.112C54.784 252.44 57.928 251.72 60.28 250.952L61.576 261.032C59.416 261.512 56.56 261.992 53.008 262.472C49.456 262.952 45.616 263.408 41.488 263.84C42.928 266.672 44.68 269.36 46.744 271.904C48.856 274.448 51.304 276.776 54.088 278.888L47.68 286.016C45.808 284.72 43.768 283.736 41.56 283.064C39.4 282.344 37.24 281.96 35.08 281.912C32.968 281.816 31.024 282.008 29.248 282.488C27.52 282.968 26.128 283.712 25.072 284.72C24.016 285.68 23.488 286.904 23.488 288.392C23.488 290.456 24.616 292.04 26.872 293.144C29.128 294.248 32.2 294.968 36.088 295.304C40.024 295.64 44.488 295.688 49.48 295.448C48.808 296.36 48.136 297.512 47.464 298.904C46.792 300.248 46.24 301.592 45.808 302.936C45.376 304.328 45.088 305.48 44.944 306.392ZM105.856 306.824C105.664 305.864 105.304 304.712 104.776 303.368C104.296 302.072 103.696 300.776 102.976 299.48C102.304 298.136 101.584 297.032 100.816 296.168C108.448 296.504 114.304 295.736 118.384 293.864C122.512 291.992 124.576 289.304 124.576 285.8C124.576 284.024 123.832 282.584 122.344 281.48C120.856 280.376 118.84 279.824 116.296 279.824C114.184 279.824 111.928 280.112 109.528 280.688C107.176 281.264 104.944 282.272 102.832 283.712C100.72 285.104 98.968 287.024 97.576 289.472L88.072 285.368C89.032 283.64 89.848 281.528 90.52 279.032C91.192 276.488 91.744 273.848 92.176 271.112C92.656 268.376 92.968 265.784 93.112 263.336C93.256 260.888 93.256 258.872 93.112 257.288L104.272 258.656C104.32 260.96 104.152 263.528 103.768 266.36C103.384 269.192 102.808 272.024 102.04 274.856C104.488 273.368 106.984 272.24 109.528 271.472C112.12 270.656 114.52 270.248 116.728 270.248C120.664 270.248 124.096 270.944 127.024 272.336C130 273.68 132.304 275.552 133.936 277.952C135.568 280.304 136.384 282.992 136.384 286.016C136.384 289.76 135.304 293.168 133.144 296.24C130.984 299.312 127.648 301.784 123.136 303.656C118.624 305.576 112.864 306.632 105.856 306.824ZM117.736 260.528C116.056 259.232 113.992 257.912 111.544 256.568C109.144 255.224 106.672 254.048 104.128 253.04C101.632 252.032 99.424 251.36 97.504 251.024L102.832 241.88C104.128 242.216 105.688 242.744 107.512 243.464C109.336 244.136 111.232 244.928 113.2 245.84C115.168 246.704 117.016 247.592 118.744 248.504C120.472 249.416 121.912 250.256 123.064 251.024L117.736 260.528ZM163.672 303.08C163.336 301.016 163.048 298.52 162.808 295.592C162.616 292.616 162.472 289.4 162.376 285.944C162.328 282.44 162.328 278.864 162.376 275.216C162.472 271.52 162.616 267.92 162.808 264.416C163.048 260.864 163.336 257.6 163.672 254.624C164.056 251.6 164.512 249.008 165.04 246.848L175.408 249.008C174.832 250.736 174.352 252.992 173.968 255.776C173.584 258.56 173.272 261.632 173.032 264.992C172.792 268.304 172.624 271.736 172.528 275.288C172.48 278.792 172.504 282.2 172.6 285.512C172.696 288.824 172.864 291.848 173.104 294.584C173.392 297.272 173.752 299.432 174.184 301.064L163.672 303.08ZM196.432 299.48C191.584 299.48 187.768 298.712 184.984 297.176C182.2 295.64 180.568 293.264 180.088 290.048C179.704 287.36 180.16 284.144 181.456 280.4L190.672 282.632C190.096 284.024 189.904 285.152 190.096 286.016C190.576 287.936 193.36 288.896 198.448 288.896C200.56 288.896 202.768 288.752 205.072 288.464C207.424 288.176 209.704 287.816 211.912 287.384C214.12 286.952 216.088 286.52 217.816 286.088C217.672 287 217.528 288.128 217.384 289.472C217.24 290.816 217.144 292.184 217.096 293.576C217.048 294.968 217.048 296.192 217.096 297.248C214.984 297.824 212.68 298.28 210.184 298.616C207.688 298.952 205.24 299.192 202.84 299.336C200.44 299.432 198.304 299.48 196.432 299.48ZM184.192 264.272L183.688 253.4C185.56 253.688 187.84 253.856 190.528 253.904C193.264 253.952 196.096 253.928 199.024 253.832C201.952 253.688 204.736 253.448 207.376 253.112C210.016 252.776 212.2 252.368 213.928 251.888L213.496 262.544C211.576 262.928 209.32 263.264 206.728 263.552C204.136 263.792 201.448 263.984 198.664 264.128C195.928 264.272 193.288 264.368 190.744 264.416C188.2 264.416 186.016 264.368 184.192 264.272ZM261.88 307.472V292.568C259.864 294.44 257.56 296.288 254.968 298.112C252.376 299.888 249.736 301.52 247.048 303.008C244.408 304.496 241.96 305.72 239.704 306.68C238.36 303.656 236.392 300.896 233.8 298.4C235.672 297.776 237.736 296.936 239.992 295.88C242.296 294.824 244.6 293.624 246.904 292.28C249.208 290.936 251.296 289.568 253.168 288.176H234.664V279.68H261.88V277.232H253.312V247.352H259.288C259.672 246.536 260.128 245.456 260.656 244.112C261.184 242.768 261.616 241.448 261.952 240.152L272.824 241.88C272.728 242.216 272.392 242.96 271.816 244.112C271.288 245.216 270.76 246.296 270.232 247.352H281.248V253.184C282.256 252.368 283.384 251.384 284.632 250.232C285.88 249.08 287.08 247.904 288.232 246.704C289.432 245.456 290.416 244.376 291.184 243.464L298.96 249.296C298.096 250.4 296.968 251.648 295.576 253.04C294.232 254.432 292.84 255.776 291.4 257.072C289.96 258.368 288.64 259.496 287.44 260.456C286.864 259.64 285.952 258.584 284.704 257.288C283.456 255.992 282.304 254.96 281.248 254.192V268.016L286.36 261.536C287.32 262.112 288.424 262.832 289.672 263.696C290.968 264.56 292.288 265.472 293.632 266.432C295.024 267.392 296.296 268.352 297.448 269.312C298.648 270.224 299.608 271.04 300.328 271.76C299.272 272.672 298.096 273.872 296.8 275.36C295.504 276.8 294.52 278.048 293.848 279.104C292.936 278.144 291.712 277.064 290.176 275.864C288.688 274.664 287.128 273.512 285.496 272.408C283.912 271.256 282.496 270.296 281.248 269.528V277.232H272.608V279.68H300.184V288.176H281.68C283.6 289.568 285.688 290.912 287.944 292.208C290.2 293.504 292.456 294.68 294.712 295.736C296.968 296.744 299.008 297.56 300.832 298.184C299.584 299.384 298.432 300.728 297.376 302.216C296.368 303.752 295.528 305.24 294.856 306.68C292.6 305.72 290.128 304.496 287.44 303.008C284.752 301.52 282.112 299.864 279.52 298.04C276.928 296.168 274.624 294.248 272.608 292.28V307.472H261.88ZM238.12 278.672L233.872 270.104C235.36 269.528 237.184 268.76 239.344 267.8C241.504 266.792 243.64 265.736 245.752 264.632C247.912 263.48 249.712 262.424 251.152 261.464C251.248 262.28 251.392 263.288 251.584 264.488C251.776 265.688 251.968 266.864 252.16 268.016C252.352 269.168 252.52 270.152 252.664 270.968C251.272 271.832 249.64 272.792 247.768 273.848C245.896 274.856 244.096 275.792 242.368 276.656C240.64 277.52 239.224 278.192 238.12 278.672ZM245.176 261.608C244.408 260.504 243.448 259.28 242.296 257.936C241.144 256.592 239.92 255.272 238.624 253.976C237.376 252.68 236.152 251.576 234.952 250.664L242.008 244.256C243.112 245.072 244.36 246.176 245.752 247.568C247.144 248.96 248.464 250.352 249.712 251.744C251.008 253.136 251.992 254.288 252.664 255.2C251.608 255.968 250.312 256.976 248.776 258.224C247.288 259.472 246.088 260.6 245.176 261.608ZM263.176 269.096H271.312V265.568H263.176V269.096ZM263.176 258.728H271.312V255.344H263.176V258.728ZM342.952 304.664C338.824 304.664 335.488 304.256 332.944 303.44C330.4 302.624 328.552 301.256 327.4 299.336C326.296 297.416 325.744 294.8 325.744 291.488V243.824L337.264 244.472C337.168 245.336 337.072 246.728 336.976 248.648C336.88 250.52 336.808 252.512 336.76 254.624C336.712 256.4 336.664 258.368 336.616 260.528C336.616 262.688 336.616 265.064 336.616 267.656V289.256C336.616 291.128 337.144 292.4 338.2 293.072C339.256 293.696 341.056 294.008 343.6 294.008C348.544 294.008 353.08 293.144 357.208 291.416C361.384 289.64 365.08 287.36 368.296 284.576C368.344 285.776 368.44 287.144 368.584 288.68C368.776 290.168 368.992 291.608 369.232 293C369.52 294.344 369.76 295.4 369.952 296.168C366.544 298.712 362.488 300.752 357.784 302.288C353.128 303.872 348.184 304.664 342.952 304.664ZM429.496 307.76C428.584 305.936 427.36 303.872 425.824 301.568C424.336 299.216 422.68 296.816 420.856 294.368C419.032 291.92 417.184 289.568 415.312 287.312C413.44 285.008 411.712 282.968 410.128 281.192C408.544 279.416 407.224 278.072 406.168 277.16C404.488 275.624 403.648 274.208 403.648 272.912C403.648 271.616 404.392 270.368 405.88 269.168C407.032 268.208 408.424 266.936 410.056 265.352C411.688 263.72 413.416 261.92 415.24 259.952C417.112 257.936 418.936 255.848 420.712 253.688C422.488 251.528 424.096 249.416 425.536 247.352C426.976 245.24 428.104 243.32 428.92 241.592L439.072 248.504C438.208 249.608 437.08 250.952 435.688 252.536C434.296 254.072 432.76 255.728 431.08 257.504C429.448 259.28 427.792 261.056 426.112 262.832C424.48 264.56 422.92 266.192 421.432 267.728C419.944 269.216 418.696 270.464 417.688 271.472C417.208 271.952 416.968 272.456 416.968 272.984C417.016 273.512 417.352 274.088 417.976 274.712C418.888 275.576 420.088 276.872 421.576 278.6C423.112 280.28 424.768 282.176 426.544 284.288C428.32 286.4 430.072 288.536 431.8 290.696C433.576 292.856 435.184 294.872 436.624 296.744C438.064 298.616 439.192 300.152 440.008 301.352C438.952 301.784 437.752 302.36 436.408 303.08C435.064 303.8 433.768 304.568 432.52 305.384C431.272 306.2 430.264 306.992 429.496 307.76ZM496.384 288.392C496.192 286.472 496 284.24 495.808 281.696C495.616 279.152 495.424 276.512 495.232 273.776C495.04 270.992 494.848 268.304 494.656 265.712C494.512 263.072 494.392 260.696 494.296 258.584C494.2 256.472 494.152 254.816 494.152 253.616V243.104H506.968V253.616C506.968 254.816 506.92 256.472 506.824 258.584C506.728 260.696 506.584 263.072 506.392 265.712C506.248 268.304 506.08 270.992 505.888 273.776C505.696 276.512 505.504 279.152 505.312 281.696C505.12 284.24 504.928 286.472 504.736 288.392H496.384ZM500.56 307.04C498.64 307.04 496.984 306.344 495.592 304.952C494.2 303.56 493.504 301.904 493.504 299.984C493.504 298.016 494.2 296.36 495.592 295.016C496.984 293.672 498.64 293 500.56 293C502.528 293 504.184 293.672 505.528 295.016C506.92 296.36 507.616 298.016 507.616 299.984C507.616 301.904 506.92 303.56 505.528 304.952C504.184 306.344 502.528 307.04 500.56 307.04Z" fill="#214269"/>
</g>
<defs>
<filter id="filter0_d_383_11818" x="0.808594" y="0.872009" width="537.68" height="308.888" filterUnits="userSpaceOnUse" color-interpolation-filters="sRGB">
<feFlood flood-opacity="0" result="BackgroundImageFix"/>
<feColorMatrix in="SourceAlpha" type="matrix" values="0 0 0 0 0 0 0 0 0 0 0 0 0 0 0 0 0 0 127 0" result="hardAlpha"/>
<feOffset dx="2" dy="2"/>
<feComposite in2="hardAlpha" operator="out"/>
<feColorMatrix type="matrix" values="0 0 0 0 1 0 0 0 0 1 0 0 0 0 1 0 0 0 1 0"/>
<feBlend mode="normal" in2="BackgroundImageFix" result="effect1_dropShadow_383_11818"/>
<feBlend mode="normal" in="SourceGraphic" in2="effect1_dropShadow_383_11818" result="shape"/>
</filter>
</defs>
</svg>
