<svg width="539" height="311" viewBox="0 0 539 311" fill="none" xmlns="http://www.w3.org/2000/svg">
<g filter="url(#filter0_d_383_11818)">
<path d="M11.248 64.8C10.864 63.936 10.24 62.952 9.376 61.848C8.56 60.744 7.624 59.688 6.568 58.68C5.56 57.624 4.576 56.784 3.616 56.16C9.568 53.808 14.512 50.568 18.448 46.44C22.384 42.264 25.312 36.984 27.232 30.6L9.088 31.248L8.296 20.808C9.064 20.856 10.48 20.88 12.544 20.88C14.608 20.88 17.104 20.856 20.032 20.808C22.96 20.76 26.08 20.688 29.392 20.592C29.68 18.384 29.872 16.08 29.968 13.68C30.112 11.232 30.16 8.688 30.112 6.048L41.2 6.12C41.248 8.616 41.2 11.064 41.056 13.464C40.96 15.816 40.768 18.12 40.48 20.376C43.744 20.28 46.792 20.184 49.624 20.088C52.504 19.992 54.952 19.896 56.968 19.8C58.984 19.656 60.328 19.56 61 19.512C61 21.576 60.88 24.072 60.64 27C60.448 29.928 60.16 32.976 59.776 36.144C59.392 39.264 58.96 42.216 58.48 45C58.048 47.736 57.592 49.968 57.112 51.696C56.2 55.104 55.024 57.72 53.584 59.544C52.144 61.368 50.152 62.616 47.608 63.288C45.064 63.96 41.656 64.272 37.384 64.224C37.288 63.264 37.048 62.112 36.664 60.768C36.328 59.424 35.872 58.08 35.296 56.736C34.768 55.344 34.168 54.144 33.496 53.136C36.472 53.136 38.8 53.04 40.48 52.848C42.208 52.656 43.504 52.248 44.368 51.624C45.28 51 45.952 50.04 46.384 48.744C46.912 47.304 47.368 45.528 47.752 43.416C48.184 41.304 48.568 39.048 48.904 36.648C49.24 34.248 49.48 31.968 49.624 29.808L38.608 30.24C36.496 38.4 33.112 45.36 28.456 51.12C23.848 56.832 18.112 61.392 11.248 64.8ZM104.848 67.392C103.984 66.048 102.904 64.584 101.608 63C100.312 61.464 98.944 60.192 97.504 59.184C103.696 56.64 108.376 53.208 111.544 48.888C114.712 44.52 116.44 38.832 116.728 31.824H105.64V45.576H94.912V31.896C91.648 31.944 88.624 31.992 85.84 32.04C83.056 32.088 80.944 32.16 79.504 32.256V21.6C80.512 21.648 82.456 21.696 85.336 21.744C88.216 21.792 91.408 21.84 94.912 21.888C94.912 17.904 94.864 14.736 94.768 12.384C94.72 10.032 94.624 8.112 94.48 6.624H106.072C105.928 8.064 105.808 10.008 105.712 12.456C105.664 14.904 105.64 18.096 105.64 22.032H116.8C116.752 19.104 116.656 16.2 116.512 13.32C116.416 10.392 116.32 7.728 116.224 5.328H127.456V21.888C130.672 21.84 133.648 21.792 136.384 21.744C139.168 21.696 141.376 21.648 143.008 21.6V32.256C141.52 32.16 139.36 32.088 136.528 32.04C133.696 31.992 130.648 31.944 127.384 31.896C127.096 40.728 125.056 47.976 121.264 53.64C117.52 59.256 112.048 63.84 104.848 67.392ZM136.528 18.36C135.664 16.824 134.584 15.216 133.288 13.536C131.992 11.856 130.792 10.488 129.688 9.432L134.512 5.904C135.136 6.48 135.904 7.32 136.816 8.424C137.728 9.528 138.616 10.656 139.48 11.808C140.392 12.96 141.088 13.944 141.568 14.76L136.528 18.36ZM143.656 13.104C142.792 11.568 141.712 9.96 140.416 8.28C139.168 6.6 137.992 5.232 136.888 4.176L141.64 0.647996C142.264 1.224 143.032 2.064 143.944 3.168C144.856 4.272 145.744 5.4 146.608 6.552C147.52 7.704 148.216 8.688 148.696 9.504L143.656 13.104ZM166.552 63.072C165.688 61.68 164.656 60.12 163.456 58.392C162.256 56.664 160.96 55.224 159.568 54.072C163.12 52.536 166.648 50.64 170.152 48.384C173.656 46.08 176.992 43.512 180.16 40.68C183.376 37.848 186.328 34.848 189.016 31.68C191.704 28.512 194.008 25.272 195.928 21.96C193.48 22.104 190.864 22.272 188.08 22.464C185.296 22.608 182.584 22.776 179.944 22.968C177.304 23.16 174.928 23.352 172.816 23.544C170.704 23.688 169.12 23.808 168.064 23.904L166.84 12.6C168.088 12.648 169.936 12.648 172.384 12.6C174.88 12.552 177.64 12.48 180.664 12.384C183.688 12.24 186.712 12.096 189.736 11.952C192.76 11.76 195.496 11.568 197.944 11.376C200.392 11.136 202.216 10.896 203.416 10.656L210.616 15.336C209.416 18.744 207.928 22.08 206.152 25.344C204.424 28.56 202.456 31.68 200.248 34.704C201.976 36.048 203.776 37.536 205.648 39.168C207.52 40.8 209.368 42.48 211.192 44.208C213.016 45.888 214.696 47.52 216.232 49.104C217.768 50.64 219.016 52.008 219.976 53.208C218.344 54.264 216.76 55.488 215.224 56.88C213.736 58.272 212.296 59.736 210.904 61.272C209.656 59.496 208.024 57.504 206.008 55.296C204.04 53.04 201.952 50.808 199.744 48.6C197.536 46.344 195.448 44.376 193.48 42.696C189.496 46.92 185.176 50.784 180.52 54.288C175.912 57.744 171.256 60.672 166.552 63.072ZM257.92 65.736V6.624H268.792V28.584L272.248 23.616C273.4 24.432 274.936 25.488 276.856 26.784C278.824 28.032 280.912 29.328 283.12 30.672C285.376 31.968 287.512 33.168 289.528 34.272C291.592 35.376 293.296 36.168 294.64 36.648C293.872 37.368 293.032 38.328 292.12 39.528C291.256 40.728 290.44 41.952 289.672 43.2C288.904 44.448 288.28 45.528 287.8 46.44C286.744 45.864 285.4 45.096 283.768 44.136C282.184 43.128 280.48 42.048 278.656 40.896C276.88 39.696 275.128 38.52 273.4 37.368C271.672 36.168 270.136 35.064 268.792 34.056V65.736H257.92ZM361.672 66.672C356.44 66.048 351.832 64.56 347.848 62.208C343.912 59.808 340.84 56.664 338.632 52.776C336.424 48.888 335.32 44.424 335.32 39.384C335.32 36.024 336.04 32.736 337.48 29.52C338.968 26.256 341.056 23.256 343.744 20.52C340.048 21.144 336.424 21.792 332.872 22.464C329.368 23.088 326.2 23.688 323.368 24.264C320.584 24.84 318.376 25.368 316.744 25.848L314.44 14.4C315.976 14.352 318.16 14.184 320.992 13.896C323.872 13.608 327.136 13.224 330.784 12.744C334.432 12.216 338.2 11.664 342.088 11.088C346.024 10.464 349.816 9.84 353.464 9.216C357.112 8.544 360.376 7.896 363.256 7.272C366.136 6.648 368.368 6.096 369.952 5.616L372.832 16.344C372.016 16.392 371.008 16.512 369.808 16.704C368.656 16.848 367.36 17.016 365.92 17.208C363.472 17.496 361.072 18.24 358.72 19.44C356.368 20.592 354.232 22.152 352.312 24.12C350.44 26.04 348.952 28.296 347.848 30.888C346.744 33.432 346.192 36.264 346.192 39.384C346.192 42.936 347.104 45.84 348.928 48.096C350.752 50.352 353.272 52.104 356.488 53.352C359.704 54.6 363.376 55.464 367.504 55.944C366.64 56.856 365.776 57.984 364.912 59.328C364.096 60.672 363.4 61.992 362.824 63.288C362.248 64.632 361.864 65.76 361.672 66.672ZM367.72 38.16C366.808 36.624 365.656 35.064 364.264 33.48C362.92 31.896 361.696 30.576 360.592 29.52L365.2 25.776C365.872 26.352 366.688 27.168 367.648 28.224C368.608 29.28 369.544 30.36 370.456 31.464C371.368 32.568 372.088 33.504 372.616 34.272L367.72 38.16ZM374.632 32.544C373.72 31.056 372.568 29.52 371.176 27.936C369.784 26.304 368.536 24.984 367.432 23.976L372.112 20.232C372.784 20.808 373.6 21.624 374.56 22.68C375.52 23.736 376.456 24.816 377.368 25.92C378.28 27.024 378.976 27.96 379.456 28.728L374.632 32.544ZM7.864 188.256C6.952 186.624 5.896 185.04 4.696 183.504C3.496 181.968 2.2 180.6 0.808 179.4C4.504 177.48 7.984 175.248 11.248 172.704C14.56 170.112 17.488 167.208 20.032 163.992C22.624 160.728 24.64 157.176 26.08 153.336C27.568 149.496 28.312 145.368 28.312 140.952V123.672H39.256V137.928C39.256 142.872 40.024 147.432 41.56 151.608C43.144 155.784 45.28 159.552 47.968 162.912C50.656 166.272 53.704 169.248 57.112 171.84C60.52 174.384 64.072 176.52 67.768 178.248C66.52 179.592 65.272 181.176 64.024 183C62.776 184.824 61.744 186.528 60.928 188.112C57.04 186.048 53.344 183.48 49.84 180.408C46.384 177.336 43.312 174 40.624 170.4C37.984 166.8 35.896 163.128 34.36 159.384C32.824 163.368 30.664 167.184 27.88 170.832C25.096 174.432 21.976 177.72 18.52 180.696C15.064 183.672 11.512 186.192 7.864 188.256ZM134.08 184.584C129.328 185.4 124.72 185.928 120.256 186.168C115.792 186.408 111.64 186.312 107.8 185.88C103.96 185.448 100.6 184.608 97.72 183.36C94.84 182.112 92.584 180.384 90.952 178.176C89.32 175.968 88.504 173.232 88.504 169.968C88.504 165.552 89.896 161.856 92.68 158.88C95.512 155.904 99.4 153.336 104.344 151.176C103.624 149.016 102.976 146.4 102.4 143.328C101.872 140.256 101.512 136.992 101.32 133.536C101.128 130.08 101.128 126.72 101.32 123.456H112.768C112.48 125.952 112.36 128.664 112.408 131.592C112.504 134.52 112.72 137.4 113.056 140.232C113.392 143.016 113.776 145.44 114.208 147.504C116.608 146.736 119.128 146.016 121.768 145.344C124.456 144.624 127.24 143.904 130.12 143.184L131.992 154.272C127.912 154.656 123.928 155.304 120.04 156.216C116.2 157.128 112.72 158.256 109.6 159.6C106.528 160.896 104.08 162.384 102.256 164.064C100.432 165.696 99.52 167.424 99.52 169.248C99.52 170.976 100.456 172.416 102.328 173.568C104.248 174.672 106.864 175.416 110.176 175.8C113.536 176.184 117.376 176.16 121.696 175.728C126.064 175.296 130.672 174.432 135.52 173.136C135.184 174.096 134.896 175.272 134.656 176.664C134.416 178.056 134.248 179.448 134.152 180.84C134.056 182.232 134.032 183.48 134.08 184.584ZM195.424 184.584C195.232 183.624 194.8 182.52 194.128 181.272C193.504 179.976 192.76 178.704 191.896 177.456C191.08 176.208 190.24 175.224 189.376 174.504C196.144 173.448 201.16 171.384 204.424 168.312C207.688 165.24 209.416 161.544 209.608 157.224C209.8 153.96 209.224 151.056 207.88 148.512C206.536 145.968 204.712 143.904 202.408 142.32C200.152 140.688 197.68 139.656 194.992 139.224C194.608 143.496 193.888 147.912 192.832 152.472C191.824 156.984 190.408 161.28 188.584 165.36C186.76 169.392 184.504 172.848 181.816 175.728C179.56 178.176 177.424 179.568 175.408 179.904C173.392 180.192 171.256 179.88 169 178.968C166.792 178.056 164.872 176.616 163.24 174.648C161.608 172.632 160.36 170.28 159.496 167.592C158.68 164.856 158.344 161.976 158.488 158.952C158.728 154.44 159.784 150.312 161.656 146.568C163.576 142.824 166.12 139.632 169.288 136.992C172.456 134.304 176.08 132.288 180.16 130.944C184.288 129.552 188.68 128.976 193.336 129.216C197.224 129.408 200.848 130.272 204.208 131.808C207.568 133.296 210.496 135.336 212.992 137.928C215.536 140.52 217.48 143.52 218.824 146.928C220.168 150.336 220.72 154.032 220.48 158.016C220.144 164.976 217.744 170.736 213.28 175.296C208.816 179.808 202.864 182.904 195.424 184.584ZM174.472 167.952C176.104 166.416 177.592 164.184 178.936 161.256C180.328 158.28 181.504 154.944 182.464 151.248C183.424 147.504 184.072 143.712 184.408 139.872C181.432 140.736 178.792 142.128 176.488 144.048C174.232 145.92 172.456 148.176 171.16 150.816C169.864 153.456 169.12 156.36 168.928 159.528C168.832 161.4 169.024 163.032 169.504 164.424C170.032 165.816 170.776 166.968 171.736 167.88C172.648 168.792 173.56 168.816 174.472 167.952ZM236.824 185.736V159.312H247.84V175.368H261.664V156.144H239.128V128.64H250.504V145.992H261.664V123.312H272.824V145.992H283.84V128.64H295.288V156.144H272.824V175.368H286.72V159.312H297.736V185.736H236.824ZM366.28 189.336C365.752 188.28 365.056 187.104 364.192 185.808C363.328 184.56 362.344 183.288 361.24 181.992C358.984 182.328 356.368 182.688 353.392 183.072C350.416 183.504 347.296 183.912 344.032 184.296C340.768 184.728 337.552 185.112 334.384 185.448C331.216 185.784 328.288 186.072 325.6 186.312C322.912 186.552 320.704 186.72 318.976 186.816L316.96 176.304C317.92 176.352 319.192 176.352 320.776 176.304C322.408 176.208 324.208 176.112 326.176 176.016C327.088 174.528 328 172.872 328.912 171.048C329.872 169.224 330.736 167.448 331.504 165.72H315.52V156.216H374.704V165.72H359.944C361.72 167.208 363.592 168.96 365.56 170.976C367.576 172.944 369.448 174.936 371.176 176.952C372.904 178.92 374.248 180.648 375.208 182.136C374.392 182.664 373.384 183.36 372.184 184.224C371.032 185.088 369.904 185.976 368.8 186.888C367.744 187.8 366.904 188.616 366.28 189.336ZM316.024 153.336C315.352 151.944 314.368 150.408 313.072 148.728C311.824 147.048 310.552 145.632 309.256 144.48C312.184 143.376 315.208 141.936 318.328 140.16C321.448 138.336 324.424 136.368 327.256 134.256C330.136 132.096 332.704 129.912 334.96 127.704C337.216 125.496 338.968 123.432 340.216 121.512L350.296 122.88C351.88 124.944 353.896 127.008 356.344 129.072C358.792 131.088 361.432 133.008 364.264 134.832C367.144 136.656 370 138.288 372.832 139.728C375.712 141.12 378.376 142.248 380.824 143.112C379.864 143.88 378.88 144.864 377.872 146.064C376.864 147.216 375.952 148.416 375.136 149.664C374.32 150.864 373.672 151.944 373.192 152.904C369.976 151.416 366.472 149.52 362.68 147.216V152.976H327.256V147C323.128 149.64 319.384 151.752 316.024 153.336ZM332.44 143.472H357.136C354.784 141.792 352.552 140.016 350.44 138.144C348.328 136.272 346.528 134.424 345.04 132.6C343.648 134.28 341.824 136.056 339.568 137.928C337.36 139.8 334.984 141.648 332.44 143.472ZM339.064 175.08C341.608 174.84 344.128 174.6 346.624 174.36C349.12 174.12 351.448 173.88 353.608 173.64C352.744 172.824 351.928 172.104 351.16 171.48C350.392 170.808 349.696 170.256 349.072 169.824L353.968 165.72H343.888C343.216 167.208 342.448 168.768 341.584 170.4C340.768 171.984 339.928 173.544 339.064 175.08ZM417.256 176.304C414.472 177.792 411.952 178.392 409.696 178.104C407.44 177.768 405.496 176.424 403.864 174.072C402.28 171.768 400.816 169.008 399.472 165.792C398.176 162.576 397.048 159.144 396.088 155.496C395.128 151.848 394.408 148.2 393.928 144.552C393.448 140.856 393.232 137.424 393.28 134.256L404.152 134.328C404.008 136.536 404.08 139.032 404.368 141.816C404.656 144.552 405.088 147.312 405.664 150.096C406.288 152.88 407.008 155.448 407.824 157.8C408.64 160.152 409.48 162.048 410.344 163.488C411.592 165.312 413.08 165.672 414.808 164.568C415.912 163.848 417.088 162.864 418.336 161.616C419.584 160.368 420.664 159.096 421.576 157.8C421.864 158.664 422.32 159.672 422.944 160.824C423.616 161.976 424.336 163.08 425.104 164.136C425.92 165.192 426.64 166.056 427.264 166.728C425.776 168.936 424.192 170.832 422.512 172.416C420.832 174 419.08 175.296 417.256 176.304ZM443.248 162.408C442.768 160.968 442 159.192 440.944 157.08C439.936 154.92 438.76 152.712 437.416 150.456C436.072 148.152 434.728 146.04 433.384 144.12C432.04 142.2 430.792 140.76 429.64 139.8L438.064 134.328C439.36 135.528 440.776 137.16 442.312 139.224C443.896 141.24 445.432 143.424 446.92 145.776C448.408 148.128 449.728 150.432 450.88 152.688C452.032 154.896 452.848 156.792 453.328 158.376C451.504 158.712 449.68 159.264 447.856 160.032C446.032 160.8 444.496 161.592 443.248 162.408ZM476.656 185.52C476.08 184.944 475.24 184.296 474.136 183.576C473.032 182.856 471.88 182.184 470.68 181.56C469.528 180.888 468.52 180.432 467.656 180.192C470.632 176.928 473.44 172.8 476.08 167.808C478.72 162.768 481 157.488 482.92 151.968C480.616 152.256 478.384 152.592 476.224 152.976C474.112 153.312 472.312 153.696 470.824 154.128C470.776 153.312 470.632 152.28 470.392 151.032C470.2 149.736 469.96 148.488 469.672 147.288C469.432 146.04 469.168 145.08 468.88 144.408C469.936 144.312 471.352 144.192 473.128 144.048C474.904 143.904 476.872 143.76 479.032 143.616C481.24 143.424 483.448 143.256 485.656 143.112C486.472 140.184 487.12 137.328 487.6 134.544C488.128 131.76 488.488 129.12 488.68 126.624L499.192 128.496C498.616 132.816 497.632 137.448 496.24 142.392C497.008 142.344 497.68 142.32 498.256 142.32C498.88 142.32 499.432 142.32 499.912 142.32C501.928 142.32 503.728 142.632 505.312 143.256C506.944 143.88 508.24 144.96 509.2 146.496C510.208 148.032 510.808 150.168 511 152.904C511.24 155.592 510.976 159.024 510.208 163.2C509.44 167.568 508.6 171.168 507.688 174C506.776 176.784 505.696 178.968 504.448 180.552C503.248 182.088 501.808 183.168 500.128 183.792C498.448 184.416 496.456 184.728 494.152 184.728C491.272 184.728 488.752 184.296 486.592 183.432C486.64 182.52 486.64 181.464 486.592 180.264C486.592 179.016 486.544 177.792 486.448 176.592C486.352 175.344 486.184 174.288 485.944 173.424C487.048 173.76 488.272 174.048 489.616 174.288C490.96 174.528 492.112 174.648 493.072 174.648C493.792 174.648 494.44 174.504 495.016 174.216C495.64 173.928 496.24 173.352 496.816 172.488C497.392 171.624 497.968 170.304 498.544 168.528C499.12 166.752 499.696 164.352 500.272 161.328C500.896 158.304 501.136 156.072 500.992 154.632C500.896 153.144 500.512 152.16 499.84 151.68C499.168 151.2 498.28 150.96 497.176 150.96C496.696 150.96 496.144 150.96 495.52 150.96C494.896 150.96 494.224 150.984 493.504 151.032C492.016 155.496 490.312 159.888 488.392 164.208C486.52 168.48 484.576 172.464 482.56 176.16C480.544 179.808 478.576 182.928 476.656 185.52ZM527.92 167.232C527.2 165.936 526.168 164.376 524.824 162.552C523.528 160.68 522.064 158.808 520.432 156.936C518.848 155.016 517.312 153.288 515.824 151.752C514.336 150.168 513.088 148.992 512.08 148.224L520 141.672C521.008 142.536 522.28 143.736 523.816 145.272C525.352 146.808 526.936 148.464 528.568 150.24C530.2 152.016 531.712 153.768 533.104 155.496C534.544 157.224 535.672 158.736 536.488 160.032L527.92 167.232ZM526.264 143.04C525.064 141.792 523.6 140.568 521.872 139.368C520.144 138.12 518.584 137.136 517.192 136.416L520.792 131.664C521.56 132.048 522.544 132.648 523.744 133.464C524.944 134.232 526.12 135.048 527.272 135.912C528.472 136.728 529.408 137.448 530.08 138.072L526.264 143.04ZM531.592 135.912C530.392 134.664 528.928 133.44 527.2 132.24C525.472 131.04 523.912 130.08 522.52 129.36L526.12 124.608C526.888 124.992 527.872 125.568 529.072 126.336C530.272 127.104 531.448 127.92 532.6 128.784C533.8 129.648 534.736 130.392 535.408 131.016L531.592 135.912ZM44.944 307.392C40.768 307.584 36.76 307.416 32.92 306.888C29.08 306.408 25.624 305.472 22.552 304.08C19.528 302.688 17.128 300.792 15.352 298.392C13.576 295.992 12.688 292.992 12.688 289.392C12.688 286.128 13.72 283.32 15.784 280.968C17.848 278.616 20.632 276.864 24.136 275.712C27.688 274.56 31.648 274.176 36.016 274.56C35.104 273.168 34.24 271.752 33.424 270.312C32.608 268.824 31.84 267.312 31.12 265.776C26.512 266.112 22.048 266.376 17.728 266.568C13.408 266.76 9.76 266.832 6.784 266.784L5.56 256.488C8.104 256.776 11.344 256.92 15.28 256.92C19.216 256.872 23.392 256.728 27.808 256.488C27.28 254.376 26.848 252.264 26.512 250.152C26.224 248.04 26.08 245.976 26.08 243.96H36.664C36.664 245.928 36.784 247.896 37.024 249.864C37.264 251.832 37.624 253.776 38.104 255.696C42.664 255.264 46.912 254.736 50.848 254.112C54.784 253.44 57.928 252.72 60.28 251.952L61.576 262.032C59.416 262.512 56.56 262.992 53.008 263.472C49.456 263.952 45.616 264.408 41.488 264.84C42.928 267.672 44.68 270.36 46.744 272.904C48.856 275.448 51.304 277.776 54.088 279.888L47.68 287.016C45.808 285.72 43.768 284.736 41.56 284.064C39.4 283.344 37.24 282.96 35.08 282.912C32.968 282.816 31.024 283.008 29.248 283.488C27.52 283.968 26.128 284.712 25.072 285.72C24.016 286.68 23.488 287.904 23.488 289.392C23.488 291.456 24.616 293.04 26.872 294.144C29.128 295.248 32.2 295.968 36.088 296.304C40.024 296.64 44.488 296.688 49.48 296.448C48.808 297.36 48.136 298.512 47.464 299.904C46.792 301.248 46.24 302.592 45.808 303.936C45.376 305.328 45.088 306.48 44.944 307.392ZM105.856 307.824C105.664 306.864 105.304 305.712 104.776 304.368C104.296 303.072 103.696 301.776 102.976 300.48C102.304 299.136 101.584 298.032 100.816 297.168C108.448 297.504 114.304 296.736 118.384 294.864C122.512 292.992 124.576 290.304 124.576 286.8C124.576 285.024 123.832 283.584 122.344 282.48C120.856 281.376 118.84 280.824 116.296 280.824C114.184 280.824 111.928 281.112 109.528 281.688C107.176 282.264 104.944 283.272 102.832 284.712C100.72 286.104 98.968 288.024 97.576 290.472L88.072 286.368C89.032 284.64 89.848 282.528 90.52 280.032C91.192 277.488 91.744 274.848 92.176 272.112C92.656 269.376 92.968 266.784 93.112 264.336C93.256 261.888 93.256 259.872 93.112 258.288L104.272 259.656C104.32 261.96 104.152 264.528 103.768 267.36C103.384 270.192 102.808 273.024 102.04 275.856C104.488 274.368 106.984 273.24 109.528 272.472C112.12 271.656 114.52 271.248 116.728 271.248C120.664 271.248 124.096 271.944 127.024 273.336C130 274.68 132.304 276.552 133.936 278.952C135.568 281.304 136.384 283.992 136.384 287.016C136.384 290.76 135.304 294.168 133.144 297.24C130.984 300.312 127.648 302.784 123.136 304.656C118.624 306.576 112.864 307.632 105.856 307.824ZM117.736 261.528C116.056 260.232 113.992 258.912 111.544 257.568C109.144 256.224 106.672 255.048 104.128 254.04C101.632 253.032 99.424 252.36 97.504 252.024L102.832 242.88C104.128 243.216 105.688 243.744 107.512 244.464C109.336 245.136 111.232 245.928 113.2 246.84C115.168 247.704 117.016 248.592 118.744 249.504C120.472 250.416 121.912 251.256 123.064 252.024L117.736 261.528ZM163.672 304.08C163.336 302.016 163.048 299.52 162.808 296.592C162.616 293.616 162.472 290.4 162.376 286.944C162.328 283.44 162.328 279.864 162.376 276.216C162.472 272.52 162.616 268.92 162.808 265.416C163.048 261.864 163.336 258.6 163.672 255.624C164.056 252.6 164.512 250.008 165.04 247.848L175.408 250.008C174.832 251.736 174.352 253.992 173.968 256.776C173.584 259.56 173.272 262.632 173.032 265.992C172.792 269.304 172.624 272.736 172.528 276.288C172.48 279.792 172.504 283.2 172.6 286.512C172.696 289.824 172.864 292.848 173.104 295.584C173.392 298.272 173.752 300.432 174.184 302.064L163.672 304.08ZM196.432 300.48C191.584 300.48 187.768 299.712 184.984 298.176C182.2 296.64 180.568 294.264 180.088 291.048C179.704 288.36 180.16 285.144 181.456 281.4L190.672 283.632C190.096 285.024 189.904 286.152 190.096 287.016C190.576 288.936 193.36 289.896 198.448 289.896C200.56 289.896 202.768 289.752 205.072 289.464C207.424 289.176 209.704 288.816 211.912 288.384C214.12 287.952 216.088 287.52 217.816 287.088C217.672 288 217.528 289.128 217.384 290.472C217.24 291.816 217.144 293.184 217.096 294.576C217.048 295.968 217.048 297.192 217.096 298.248C214.984 298.824 212.68 299.28 210.184 299.616C207.688 299.952 205.24 300.192 202.84 300.336C200.44 300.432 198.304 300.48 196.432 300.48ZM184.192 265.272L183.688 254.4C185.56 254.688 187.84 254.856 190.528 254.904C193.264 254.952 196.096 254.928 199.024 254.832C201.952 254.688 204.736 254.448 207.376 254.112C210.016 253.776 212.2 253.368 213.928 252.888L213.496 263.544C211.576 263.928 209.32 264.264 206.728 264.552C204.136 264.792 201.448 264.984 198.664 265.128C195.928 265.272 193.288 265.368 190.744 265.416C188.2 265.416 186.016 265.368 184.192 265.272ZM261.88 308.472V293.568C259.864 295.44 257.56 297.288 254.968 299.112C252.376 300.888 249.736 302.52 247.048 304.008C244.408 305.496 241.96 306.72 239.704 307.68C238.36 304.656 236.392 301.896 233.8 299.4C235.672 298.776 237.736 297.936 239.992 296.88C242.296 295.824 244.6 294.624 246.904 293.28C249.208 291.936 251.296 290.568 253.168 289.176H234.664V280.68H261.88V278.232H253.312V248.352H259.288C259.672 247.536 260.128 246.456 260.656 245.112C261.184 243.768 261.616 242.448 261.952 241.152L272.824 242.88C272.728 243.216 272.392 243.96 271.816 245.112C271.288 246.216 270.76 247.296 270.232 248.352H281.248V254.184C282.256 253.368 283.384 252.384 284.632 251.232C285.88 250.08 287.08 248.904 288.232 247.704C289.432 246.456 290.416 245.376 291.184 244.464L298.96 250.296C298.096 251.4 296.968 252.648 295.576 254.04C294.232 255.432 292.84 256.776 291.4 258.072C289.96 259.368 288.64 260.496 287.44 261.456C286.864 260.64 285.952 259.584 284.704 258.288C283.456 256.992 282.304 255.96 281.248 255.192V269.016L286.36 262.536C287.32 263.112 288.424 263.832 289.672 264.696C290.968 265.56 292.288 266.472 293.632 267.432C295.024 268.392 296.296 269.352 297.448 270.312C298.648 271.224 299.608 272.04 300.328 272.76C299.272 273.672 298.096 274.872 296.8 276.36C295.504 277.8 294.52 279.048 293.848 280.104C292.936 279.144 291.712 278.064 290.176 276.864C288.688 275.664 287.128 274.512 285.496 273.408C283.912 272.256 282.496 271.296 281.248 270.528V278.232H272.608V280.68H300.184V289.176H281.68C283.6 290.568 285.688 291.912 287.944 293.208C290.2 294.504 292.456 295.68 294.712 296.736C296.968 297.744 299.008 298.56 300.832 299.184C299.584 300.384 298.432 301.728 297.376 303.216C296.368 304.752 295.528 306.24 294.856 307.68C292.6 306.72 290.128 305.496 287.44 304.008C284.752 302.52 282.112 300.864 279.52 299.04C276.928 297.168 274.624 295.248 272.608 293.28V308.472H261.88ZM238.12 279.672L233.872 271.104C235.36 270.528 237.184 269.76 239.344 268.8C241.504 267.792 243.64 266.736 245.752 265.632C247.912 264.48 249.712 263.424 251.152 262.464C251.248 263.28 251.392 264.288 251.584 265.488C251.776 266.688 251.968 267.864 252.16 269.016C252.352 270.168 252.52 271.152 252.664 271.968C251.272 272.832 249.64 273.792 247.768 274.848C245.896 275.856 244.096 276.792 242.368 277.656C240.64 278.52 239.224 279.192 238.12 279.672ZM245.176 262.608C244.408 261.504 243.448 260.28 242.296 258.936C241.144 257.592 239.92 256.272 238.624 254.976C237.376 253.68 236.152 252.576 234.952 251.664L242.008 245.256C243.112 246.072 244.36 247.176 245.752 248.568C247.144 249.96 248.464 251.352 249.712 252.744C251.008 254.136 251.992 255.288 252.664 256.2C251.608 256.968 250.312 257.976 248.776 259.224C247.288 260.472 246.088 261.6 245.176 262.608ZM263.176 270.096H271.312V266.568H263.176V270.096ZM263.176 259.728H271.312V256.344H263.176V259.728ZM342.952 305.664C338.824 305.664 335.488 305.256 332.944 304.44C330.4 303.624 328.552 302.256 327.4 300.336C326.296 298.416 325.744 295.8 325.744 292.488V244.824L337.264 245.472C337.168 246.336 337.072 247.728 336.976 249.648C336.88 251.52 336.808 253.512 336.76 255.624C336.712 257.4 336.664 259.368 336.616 261.528C336.616 263.688 336.616 266.064 336.616 268.656V290.256C336.616 292.128 337.144 293.4 338.2 294.072C339.256 294.696 341.056 295.008 343.6 295.008C348.544 295.008 353.08 294.144 357.208 292.416C361.384 290.64 365.08 288.36 368.296 285.576C368.344 286.776 368.44 288.144 368.584 289.68C368.776 291.168 368.992 292.608 369.232 294C369.52 295.344 369.76 296.4 369.952 297.168C366.544 299.712 362.488 301.752 357.784 303.288C353.128 304.872 348.184 305.664 342.952 305.664ZM429.496 308.76C428.584 306.936 427.36 304.872 425.824 302.568C424.336 300.216 422.68 297.816 420.856 295.368C419.032 292.92 417.184 290.568 415.312 288.312C413.44 286.008 411.712 283.968 410.128 282.192C408.544 280.416 407.224 279.072 406.168 278.16C404.488 276.624 403.648 275.208 403.648 273.912C403.648 272.616 404.392 271.368 405.88 270.168C407.032 269.208 408.424 267.936 410.056 266.352C411.688 264.72 413.416 262.92 415.24 260.952C417.112 258.936 418.936 256.848 420.712 254.688C422.488 252.528 424.096 250.416 425.536 248.352C426.976 246.24 428.104 244.32 428.92 242.592L439.072 249.504C438.208 250.608 437.08 251.952 435.688 253.536C434.296 255.072 432.76 256.728 431.08 258.504C429.448 260.28 427.792 262.056 426.112 263.832C424.48 265.56 422.92 267.192 421.432 268.728C419.944 270.216 418.696 271.464 417.688 272.472C417.208 272.952 416.968 273.456 416.968 273.984C417.016 274.512 417.352 275.088 417.976 275.712C418.888 276.576 420.088 277.872 421.576 279.6C423.112 281.28 424.768 283.176 426.544 285.288C428.32 287.4 430.072 289.536 431.8 291.696C433.576 293.856 435.184 295.872 436.624 297.744C438.064 299.616 439.192 301.152 440.008 302.352C438.952 302.784 437.752 303.36 436.408 304.08C435.064 304.8 433.768 305.568 432.52 306.384C431.272 307.2 430.264 307.992 429.496 308.76ZM496.384 289.392C496.192 287.472 496 285.24 495.808 282.696C495.616 280.152 495.424 277.512 495.232 274.776C495.04 271.992 494.848 269.304 494.656 266.712C494.512 264.072 494.392 261.696 494.296 259.584C494.2 257.472 494.152 255.816 494.152 254.616V244.104H506.968V254.616C506.968 255.816 506.92 257.472 506.824 259.584C506.728 261.696 506.584 264.072 506.392 266.712C506.248 269.304 506.08 271.992 505.888 274.776C505.696 277.512 505.504 280.152 505.312 282.696C505.12 285.24 504.928 287.472 504.736 289.392H496.384ZM500.56 308.04C498.64 308.04 496.984 307.344 495.592 305.952C494.2 304.56 493.504 302.904 493.504 300.984C493.504 299.016 494.2 297.36 495.592 296.016C496.984 294.672 498.64 294 500.56 294C502.528 294 504.184 294.672 505.528 296.016C506.92 297.36 507.616 299.016 507.616 300.984C507.616 302.904 506.92 304.56 505.528 305.952C504.184 307.344 502.528 308.04 500.56 308.04Z" fill="#214269"/>
</g>
<defs>
<filter id="filter0_d_383_11818" x="0.808594" y="0.64801" width="537.68" height="310.112" filterUnits="userSpaceOnUse" color-interpolation-filters="sRGB">
<feFlood flood-opacity="0" result="BackgroundImageFix"/>
<feColorMatrix in="SourceAlpha" type="matrix" values="0 0 0 0 0 0 0 0 0 0 0 0 0 0 0 0 0 0 127 0" result="hardAlpha"/>
<feOffset dx="2" dy="2"/>
<feComposite in2="hardAlpha" operator="out"/>
<feColorMatrix type="matrix" values="0 0 0 0 1 0 0 0 0 1 0 0 0 0 1 0 0 0 1 0"/>
<feBlend mode="normal" in2="BackgroundImageFix" result="effect1_dropShadow_383_11818"/>
<feBlend mode="normal" in="SourceGraphic" in2="effect1_dropShadow_383_11818" result="shape"/>
</filter>
</defs>
</svg>
