<svg width="219" height="61" viewBox="0 0 219 61" fill="none" xmlns="http://www.w3.org/2000/svg">
<g style="mix-blend-mode:multiply">
<path d="M30.76 60.8C26.3867 60.8 22.36 60.08 18.68 58.64C15 57.2 11.8 55.2 9.08 52.64C6.36 50.0267 4.25333 46.9867 2.76 43.52C1.26667 40 0.52 36.16 0.52 32C0.52 27.84 1.26667 24.0267 2.76 20.56C4.25333 17.04 6.36 14 9.08 11.44C11.8 8.82666 15 6.8 18.68 5.36C22.36 3.92 26.36 3.2 30.68 3.2C35.0533 3.2 39.0533 3.92 42.68 5.36C46.36 6.8 49.56 8.82666 52.28 11.44C55 14 57.1067 17.04 58.6 20.56C60.0933 24.0267 60.84 27.84 60.84 32C60.84 36.16 60.0933 40 58.6 43.52C57.1067 47.04 55 50.08 52.28 52.64C49.56 55.2 46.36 57.2 42.68 58.64C39.0533 60.08 35.08 60.8 30.76 60.8ZM30.68 51.68C33.5067 51.68 36.12 51.2 38.52 50.24C40.92 49.28 43 47.92 44.76 46.16C46.52 44.3467 47.88 42.2667 48.84 39.92C49.8533 37.52 50.36 34.88 50.36 32C50.36 29.12 49.8533 26.5067 48.84 24.16C47.88 21.76 46.52 19.68 44.76 17.92C43 16.1067 40.92 14.72 38.52 13.76C36.12 12.8 33.5067 12.32 30.68 12.32C27.8533 12.32 25.24 12.8 22.84 13.76C20.4933 14.72 18.4133 16.1067 16.6 17.92C14.84 19.68 13.4533 21.76 12.44 24.16C11.48 26.5067 11 29.12 11 32C11 34.8267 11.48 37.44 12.44 39.84C13.4533 42.24 14.84 44.3467 16.6 46.16C18.36 47.92 20.44 49.28 22.84 50.24C25.24 51.2 27.8533 51.68 30.68 51.68ZM67.3038 60V17.28H76.8238V29.04L75.7038 25.6C76.9838 22.72 78.9838 20.5333 81.7038 19.04C84.4771 17.5467 87.9171 16.8 92.0238 16.8V26.32C91.5971 26.2133 91.1971 26.16 90.8238 26.16C90.4504 26.1067 90.0771 26.08 89.7038 26.08C85.9171 26.08 82.9038 27.2 80.6638 29.44C78.4238 31.6267 77.3038 34.9067 77.3038 39.28V60H67.3038ZM114.596 60.56C110.49 60.56 106.783 59.6533 103.476 57.84C100.223 55.9733 97.6629 53.4133 95.7963 50.16C93.9296 46.9067 92.9963 43.0667 92.9963 38.64C92.9963 34.2133 93.9296 30.3733 95.7963 27.12C97.6629 23.8667 100.223 21.3333 103.476 19.52C106.783 17.7067 110.49 16.8 114.596 16.8C118.17 16.8 121.37 17.6 124.196 19.2C127.023 20.7467 129.263 23.12 130.916 26.32C132.57 29.52 133.396 33.6267 133.396 38.64C133.396 43.6 132.596 47.7067 130.996 50.96C129.396 54.16 127.183 56.56 124.356 58.16C121.53 59.76 118.276 60.56 114.596 60.56ZM115.796 52C118.196 52 120.33 51.4667 122.196 50.4C124.116 49.3333 125.636 47.7867 126.756 45.76C127.93 43.7333 128.516 41.36 128.516 38.64C128.516 35.8667 127.93 33.4933 126.756 31.52C125.636 29.4933 124.116 27.9467 122.196 26.88C120.33 25.8133 118.196 25.28 115.796 25.28C113.396 25.28 111.236 25.8133 109.316 26.88C107.45 27.9467 105.93 29.4933 104.756 31.52C103.636 33.4933 103.076 35.8667 103.076 38.64C103.076 41.36 103.636 43.7333 104.756 45.76C105.93 47.7867 107.45 49.3333 109.316 50.4C111.236 51.4667 113.396 52 115.796 52ZM128.756 60V49.92L129.156 38.56L128.356 27.2V0.639997H138.276V60H128.756ZM167.918 60.56C163.171 60.56 159.011 59.6267 155.438 57.76C151.918 55.84 149.171 53.2267 147.198 49.92C145.278 46.6133 144.318 42.8533 144.318 38.64C144.318 34.3733 145.251 30.6133 147.118 27.36C149.038 24.0533 151.651 21.4667 154.958 19.6C158.318 17.7333 162.131 16.8 166.398 16.8C170.558 16.8 174.265 17.7067 177.518 19.52C180.771 21.3333 183.331 23.8933 185.198 27.2C187.065 30.5067 187.998 34.4 187.998 38.88C187.998 39.3067 187.971 39.7867 187.918 40.32C187.918 40.8533 187.891 41.36 187.838 41.84H152.238V35.2H182.558L178.638 37.28C178.691 34.8267 178.185 32.6667 177.118 30.8C176.051 28.9333 174.585 27.4667 172.718 26.4C170.905 25.3333 168.798 24.8 166.398 24.8C163.945 24.8 161.785 25.3333 159.918 26.4C158.105 27.4667 156.665 28.96 155.598 30.88C154.585 32.7467 154.078 34.96 154.078 37.52V39.12C154.078 41.68 154.665 43.9467 155.838 45.92C157.011 47.8933 158.665 49.4133 160.798 50.48C162.931 51.5467 165.385 52.08 168.158 52.08C170.558 52.08 172.718 51.7067 174.638 50.96C176.558 50.2133 178.265 49.04 179.758 47.44L185.118 53.6C183.198 55.84 180.771 57.5733 177.838 58.8C174.958 59.9733 171.651 60.56 167.918 60.56ZM194.004 60V17.28H203.524V29.04L202.404 25.6C203.684 22.72 205.684 20.5333 208.404 19.04C211.177 17.5467 214.617 16.8 218.724 16.8V26.32C218.297 26.2133 217.897 26.16 217.524 26.16C217.15 26.1067 216.777 26.08 216.404 26.08C212.617 26.08 209.604 27.2 207.364 29.44C205.124 31.6267 204.004 34.9067 204.004 39.28V60H194.004Z" fill="#F5F5F5"/>
</g>
</svg>
