<svg width="1211" height="176" viewBox="0 0 1211 176" fill="none" xmlns="http://www.w3.org/2000/svg">
<g style="mix-blend-mode:multiply">
<path d="M0.640338 139V13H52.4803C63.6403 13 73.1803 14.8 81.1003 18.4C89.1403 22 95.3203 27.16 99.6403 33.88C103.96 40.6 106.12 48.58 106.12 57.82C106.12 67.06 103.96 75.04 99.6403 81.76C95.3203 88.48 89.1403 93.64 81.1003 97.24C73.1803 100.84 63.6403 102.64 52.4803 102.64H13.6003L24.0403 91.66V139H0.640338ZM24.0403 94.18L13.6003 82.84H51.4003C61.7203 82.84 69.4603 80.68 74.6203 76.36C79.9003 71.92 82.5403 65.74 82.5403 57.82C82.5403 49.78 79.9003 43.6 74.6203 39.28C69.4603 34.96 61.7203 32.8 51.4003 32.8H13.6003L24.0403 21.28V94.18ZM122.849 139V42.88H144.269V69.34L141.749 61.6C144.629 55.12 149.129 50.2 155.249 46.84C161.489 43.48 169.229 41.8 178.469 41.8V63.22C177.509 62.98 176.609 62.86 175.769 62.86C174.929 62.74 174.089 62.68 173.249 62.68C164.729 62.68 157.949 65.2 152.909 70.24C147.869 75.16 145.349 82.54 145.349 92.38V139H122.849ZM193.956 139V42.88H216.456V139H193.956ZM205.296 27.04C201.096 27.04 197.616 25.72 194.856 23.08C192.216 20.44 190.896 17.26 190.896 13.54C190.896 9.69999 192.216 6.51999 194.856 3.99999C197.616 1.35999 201.096 0.0399973 205.296 0.0399973C209.496 0.0399973 212.916 1.3 215.556 3.81999C218.316 6.22 219.696 9.28 219.696 13C219.696 16.96 218.376 20.32 215.736 23.08C213.096 25.72 209.616 27.04 205.296 27.04ZM267.947 139L226.727 42.88H250.127L285.587 127.66H274.067L310.787 42.88H332.387L291.167 139H267.947ZM399.082 139V119.56L397.822 115.42V81.4C397.822 74.8 395.842 69.7 391.882 66.1C387.922 62.38 381.922 60.52 373.882 60.52C368.482 60.52 363.142 61.36 357.862 63.04C352.702 64.72 348.322 67.06 344.722 70.06L335.902 53.68C341.062 49.72 347.182 46.78 354.262 44.86C361.462 42.82 368.902 41.8 376.582 41.8C390.502 41.8 401.242 45.16 408.802 51.88C416.482 58.48 420.322 68.74 420.322 82.66V139H399.082ZM368.842 140.26C361.642 140.26 355.342 139.06 349.942 136.66C344.542 134.14 340.342 130.72 337.342 126.4C334.462 121.96 333.022 116.98 333.022 111.46C333.022 106.06 334.282 101.2 336.802 96.88C339.442 92.56 343.702 89.14 349.582 86.62C355.462 84.1 363.262 82.84 372.982 82.84H400.882V97.78H374.602C366.922 97.78 361.762 99.04 359.122 101.56C356.482 103.96 355.162 106.96 355.162 110.56C355.162 114.64 356.782 117.88 360.022 120.28C363.262 122.68 367.762 123.88 373.522 123.88C379.042 123.88 383.962 122.62 388.282 120.1C392.722 117.58 395.902 113.86 397.822 108.94L401.602 122.44C399.442 128.08 395.542 132.46 389.902 135.58C384.382 138.7 377.362 140.26 368.842 140.26ZM489.873 140.26C479.793 140.26 470.793 138.16 462.873 133.96C455.073 129.64 448.953 123.76 444.513 116.32C440.073 108.88 437.853 100.42 437.853 90.94C437.853 81.34 440.073 72.88 444.513 65.56C448.953 58.12 455.073 52.3 462.873 48.1C470.793 43.9 479.793 41.8 489.873 41.8C499.233 41.8 507.453 43.72 514.533 47.56C521.733 51.28 527.193 56.8 530.913 64.12L513.633 74.2C510.753 69.64 507.213 66.28 503.013 64.12C498.933 61.96 494.493 60.88 489.693 60.88C484.173 60.88 479.193 62.08 474.753 64.48C470.313 66.88 466.833 70.36 464.313 74.92C461.793 79.36 460.533 84.7 460.533 90.94C460.533 97.18 461.793 102.58 464.313 107.14C466.833 111.58 470.313 115 474.753 117.4C479.193 119.8 484.173 121 489.693 121C494.493 121 498.933 119.92 503.013 117.76C507.213 115.6 510.753 112.24 513.633 107.68L530.913 117.76C527.193 124.96 521.733 130.54 514.533 134.5C507.453 138.34 499.233 140.26 489.873 140.26ZM553.453 175.18C548.773 175.18 544.093 174.4 539.413 172.84C534.733 171.28 530.833 169.12 527.713 166.36L536.713 149.8C538.993 151.84 541.573 153.46 544.453 154.66C547.333 155.86 550.273 156.46 553.273 156.46C557.353 156.46 560.653 155.44 563.173 153.4C565.693 151.36 568.033 147.94 570.193 143.14L575.773 130.54L577.573 127.84L613.933 42.88H635.533L590.533 146.74C587.533 153.94 584.173 159.64 580.453 163.84C576.853 168.04 572.773 170.98 568.213 172.66C563.773 174.34 558.853 175.18 553.453 175.18ZM573.253 142.42L529.873 42.88H553.273L588.553 125.86L573.253 142.42ZM745.421 140.26C737.621 140.26 730.481 138.46 724.001 134.86C717.641 131.26 712.541 125.86 708.701 118.66C704.981 111.34 703.121 102.1 703.121 90.94C703.121 79.66 704.921 70.42 708.521 63.22C712.241 56.02 717.281 50.68 723.641 47.2C730.001 43.6 737.261 41.8 745.421 41.8C754.901 41.8 763.241 43.84 770.441 47.92C777.761 52 783.521 57.7 787.721 65.02C792.041 72.34 794.201 80.98 794.201 90.94C794.201 100.9 792.041 109.6 787.721 117.04C783.521 124.36 777.761 130.06 770.441 134.14C763.241 138.22 754.901 140.26 745.421 140.26ZM692.141 173.92V42.88H713.561V65.56L712.841 91.12L714.641 116.68V173.92H692.141ZM742.901 121C748.301 121 753.101 119.8 757.301 117.4C761.621 115 765.041 111.52 767.561 106.96C770.081 102.4 771.341 97.06 771.341 90.94C771.341 84.7 770.081 79.36 767.561 74.92C765.041 70.36 761.621 66.88 757.301 64.48C753.101 62.08 748.301 60.88 742.901 60.88C737.501 60.88 732.641 62.08 728.321 64.48C724.001 66.88 720.581 70.36 718.061 74.92C715.541 79.36 714.281 84.7 714.281 90.94C714.281 97.06 715.541 102.4 718.061 106.96C720.581 111.52 724.001 115 728.321 117.4C732.641 119.8 737.501 121 742.901 121ZM855.14 140.26C845.3 140.26 836.54 138.16 828.86 133.96C821.18 129.64 815.12 123.76 810.68 116.32C806.24 108.88 804.02 100.42 804.02 90.94C804.02 81.34 806.24 72.88 810.68 65.56C815.12 58.12 821.18 52.3 828.86 48.1C836.54 43.9 845.3 41.8 855.14 41.8C865.1 41.8 873.92 43.9 881.6 48.1C889.4 52.3 895.46 58.06 899.78 65.38C904.22 72.7 906.44 81.22 906.44 90.94C906.44 100.42 904.22 108.88 899.78 116.32C895.46 123.76 889.4 129.64 881.6 133.96C873.92 138.16 865.1 140.26 855.14 140.26ZM855.14 121C860.66 121 865.58 119.8 869.9 117.4C874.22 115 877.58 111.52 879.98 106.96C882.5 102.4 883.76 97.06 883.76 90.94C883.76 84.7 882.5 79.36 879.98 74.92C877.58 70.36 874.22 66.88 869.9 64.48C865.58 62.08 860.72 60.88 855.32 60.88C849.8 60.88 844.88 62.08 840.56 64.48C836.36 66.88 833 70.36 830.48 74.92C827.96 79.36 826.7 84.7 826.7 90.94C826.7 97.06 827.96 102.4 830.48 106.96C833 111.52 836.36 115 840.56 117.4C844.88 119.8 849.74 121 855.14 121ZM924.355 139V5.43999H946.855V139H924.355ZM972.787 139V42.88H995.287V139H972.787ZM984.127 27.04C979.927 27.04 976.447 25.72 973.687 23.08C971.047 20.44 969.727 17.26 969.727 13.54C969.727 9.69999 971.047 6.51999 973.687 3.99999C976.447 1.35999 979.927 0.0399973 984.127 0.0399973C988.327 0.0399973 991.747 1.3 994.387 3.81999C997.147 6.22 998.527 9.28 998.527 13C998.527 16.96 997.207 20.32 994.567 23.08C991.927 25.72 988.447 27.04 984.127 27.04ZM1065.32 140.26C1055.24 140.26 1046.24 138.16 1038.32 133.96C1030.52 129.64 1024.4 123.76 1019.96 116.32C1015.52 108.88 1013.3 100.42 1013.3 90.94C1013.3 81.34 1015.52 72.88 1019.96 65.56C1024.4 58.12 1030.52 52.3 1038.32 48.1C1046.24 43.9 1055.24 41.8 1065.32 41.8C1074.68 41.8 1082.9 43.72 1089.98 47.56C1097.18 51.28 1102.64 56.8 1106.36 64.12L1089.08 74.2C1086.2 69.64 1082.66 66.28 1078.46 64.12C1074.38 61.96 1069.94 60.88 1065.14 60.88C1059.62 60.88 1054.64 62.08 1050.2 64.48C1045.76 66.88 1042.28 70.36 1039.76 74.92C1037.24 79.36 1035.98 84.7 1035.98 90.94C1035.98 97.18 1037.24 102.58 1039.76 107.14C1042.28 111.58 1045.76 115 1050.2 117.4C1054.64 119.8 1059.62 121 1065.14 121C1069.94 121 1074.38 119.92 1078.46 117.76C1082.66 115.6 1086.2 112.24 1089.08 107.68L1106.36 117.76C1102.64 124.96 1097.18 130.54 1089.98 134.5C1082.9 138.34 1074.68 140.26 1065.32 140.26ZM1128.9 175.18C1124.22 175.18 1119.54 174.4 1114.86 172.84C1110.18 171.28 1106.28 169.12 1103.16 166.36L1112.16 149.8C1114.44 151.84 1117.02 153.46 1119.9 154.66C1122.78 155.86 1125.72 156.46 1128.72 156.46C1132.8 156.46 1136.1 155.44 1138.62 153.4C1141.14 151.36 1143.48 147.94 1145.64 143.14L1151.22 130.54L1153.02 127.84L1189.38 42.88H1210.98L1165.98 146.74C1162.98 153.94 1159.62 159.64 1155.9 163.84C1152.3 168.04 1148.22 170.98 1143.66 172.66C1139.22 174.34 1134.3 175.18 1128.9 175.18ZM1148.7 142.42L1105.32 42.88H1128.72L1164 125.86L1148.7 142.42Z" fill="#F5F5F5"/>
</g>
</svg>
