<svg width="319" height="61" viewBox="0 0 319 61" fill="none" xmlns="http://www.w3.org/2000/svg">
<path d="M0.52 60V4H23.56C28.52 4 32.76 4.8 36.28 6.4C39.8533 8 42.6 10.2933 44.52 13.28C46.44 16.2667 47.4 19.8133 47.4 23.92C47.4 28.0267 46.44 31.5733 44.52 34.56C42.6 37.5467 39.8533 39.84 36.28 41.44C32.76 43.04 28.52 43.84 23.56 43.84H6.28L10.92 38.96V60H0.52ZM10.92 40.08L6.28 35.04H23.08C27.6667 35.04 31.1067 34.08 33.4 32.16C35.7467 30.1867 36.92 27.44 36.92 23.92C36.92 20.3467 35.7467 17.6 33.4 15.68C31.1067 13.76 27.6667 12.8 23.08 12.8H6.28L10.92 7.68V40.08ZM52.835 60V17.28H62.355V29.04L61.235 25.6C62.515 22.72 64.515 20.5333 67.235 19.04C70.0083 17.5467 73.4483 16.8 77.555 16.8V26.32C77.1283 26.2133 76.7283 26.16 76.355 26.16C75.9817 26.1067 75.6083 26.08 75.235 26.08C71.4483 26.08 68.435 27.2 66.195 29.44C63.955 31.6267 62.835 34.9067 62.835 39.28V60H52.835ZM101.248 60.56C96.8742 60.56 92.9808 59.6267 89.5675 57.76C86.1542 55.84 83.4608 53.2267 81.4875 49.92C79.5142 46.6133 78.5275 42.8533 78.5275 38.64C78.5275 34.3733 79.5142 30.6133 81.4875 27.36C83.4608 24.0533 86.1542 21.4667 89.5675 19.6C92.9808 17.7333 96.8742 16.8 101.248 16.8C105.674 16.8 109.594 17.7333 113.008 19.6C116.474 21.4667 119.168 24.0267 121.088 27.28C123.061 30.5333 124.048 34.32 124.048 38.64C124.048 42.8533 123.061 46.6133 121.088 49.92C119.168 53.2267 116.474 55.84 113.008 57.76C109.594 59.6267 105.674 60.56 101.248 60.56ZM101.248 52C103.701 52 105.888 51.4667 107.808 50.4C109.728 49.3333 111.221 47.7867 112.288 45.76C113.408 43.7333 113.968 41.36 113.968 38.64C113.968 35.8667 113.408 33.4933 112.288 31.52C111.221 29.4933 109.728 27.9467 107.808 26.88C105.888 25.8133 103.728 25.28 101.328 25.28C98.8742 25.28 96.6875 25.8133 94.7675 26.88C92.9008 27.9467 91.4075 29.4933 90.2875 31.52C89.1675 33.4933 88.6075 35.8667 88.6075 38.64C88.6075 41.36 89.1675 43.7333 90.2875 45.76C91.4075 47.7867 92.9008 49.3333 94.7675 50.4C96.6875 51.4667 98.8475 52 101.248 52ZM153.69 60.56C150.063 60.56 146.837 59.76 144.01 58.16C141.183 56.56 138.943 54.16 137.29 50.96C135.69 47.7067 134.89 43.6 134.89 38.64C134.89 33.6267 135.717 29.52 137.37 26.32C139.077 23.12 141.343 20.7467 144.17 19.2C147.05 17.6 150.223 16.8 153.69 16.8C157.903 16.8 161.61 17.7067 164.81 19.52C168.063 21.3333 170.623 23.8667 172.49 27.12C174.41 30.3733 175.37 34.2133 175.37 38.64C175.37 43.0667 174.41 46.9067 172.49 50.16C170.623 53.4133 168.063 55.9733 164.81 57.84C161.61 59.6533 157.903 60.56 153.69 60.56ZM130.01 60V0.639997H140.01V27.2L139.21 38.56L139.53 49.92V60H130.01ZM152.57 52C154.97 52 157.103 51.4667 158.97 50.4C160.89 49.3333 162.41 47.7867 163.53 45.76C164.65 43.7333 165.21 41.36 165.21 38.64C165.21 35.8667 164.65 33.4933 163.53 31.52C162.41 29.4933 160.89 27.9467 158.97 26.88C157.103 25.8133 154.97 25.28 152.57 25.28C150.17 25.28 148.01 25.8133 146.09 26.88C144.17 27.9467 142.65 29.4933 141.53 31.52C140.41 33.4933 139.85 35.8667 139.85 38.64C139.85 41.36 140.41 43.7333 141.53 45.76C142.65 47.7867 144.17 49.3333 146.09 50.4C148.01 51.4667 150.17 52 152.57 52ZM181.254 60V0.639997H191.254V60H181.254ZM220.859 60.56C216.112 60.56 211.952 59.6267 208.379 57.76C204.859 55.84 202.112 53.2267 200.139 49.92C198.219 46.6133 197.259 42.8533 197.259 38.64C197.259 34.3733 198.192 30.6133 200.059 27.36C201.979 24.0533 204.592 21.4667 207.899 19.6C211.259 17.7333 215.072 16.8 219.339 16.8C223.499 16.8 227.205 17.7067 230.459 19.52C233.712 21.3333 236.272 23.8933 238.139 27.2C240.005 30.5067 240.939 34.4 240.939 38.88C240.939 39.3067 240.912 39.7867 240.859 40.32C240.859 40.8533 240.832 41.36 240.779 41.84H205.179V35.2H235.499L231.579 37.28C231.632 34.8267 231.125 32.6667 230.059 30.8C228.992 28.9333 227.525 27.4667 225.659 26.4C223.845 25.3333 221.739 24.8 219.339 24.8C216.885 24.8 214.725 25.3333 212.859 26.4C211.045 27.4667 209.605 28.96 208.539 30.88C207.525 32.7467 207.019 34.96 207.019 37.52V39.12C207.019 41.68 207.605 43.9467 208.779 45.92C209.952 47.8933 211.605 49.4133 213.739 50.48C215.872 51.5467 218.325 52.08 221.099 52.08C223.499 52.08 225.659 51.7067 227.579 50.96C229.499 50.2133 231.205 49.04 232.699 47.44L238.059 53.6C236.139 55.84 233.712 57.5733 230.779 58.8C227.899 59.9733 224.592 60.56 220.859 60.56ZM300.864 16.8C304.278 16.8 307.291 17.4667 309.904 18.8C312.571 20.1333 314.651 22.1867 316.144 24.96C317.638 27.68 318.384 31.2 318.384 35.52V60H308.384V36.8C308.384 33.0133 307.558 30.1867 305.904 28.32C304.251 26.4533 301.878 25.52 298.784 25.52C296.598 25.52 294.651 26 292.944 26.96C291.291 27.92 289.984 29.3333 289.024 31.2C288.118 33.0667 287.664 35.44 287.664 38.32V60H277.664V36.8C277.664 33.0133 276.838 30.1867 275.184 28.32C273.531 26.4533 271.158 25.52 268.064 25.52C265.878 25.52 263.931 26 262.224 26.96C260.571 27.92 259.264 29.3333 258.304 31.2C257.398 33.0667 256.944 35.44 256.944 38.32V60H246.944V17.28H256.464V28.64L254.784 25.28C256.224 22.5067 258.304 20.4 261.024 18.96C263.798 17.52 266.944 16.8 270.464 16.8C274.464 16.8 277.931 17.7867 280.864 19.76C283.851 21.7333 285.824 24.72 286.784 28.72L282.864 27.36C284.251 24.16 286.544 21.6 289.744 19.68C292.944 17.76 296.651 16.8 300.864 16.8Z" fill="#E6EEF5"/>
</svg>
