<svg width="30" height="30" viewBox="0 0 30 30" fill="none" xmlns="http://www.w3.org/2000/svg">
<circle cx="15" cy="15" r="15" fill="#025DC7"/>
<path d="M14.3984 20.224C11.2464 20.224 9.10237 17.888 9.10237 14.032C9.10237 10.176 11.2464 7.952 14.3984 7.952C17.5344 7.952 19.6784 10.192 19.6784 14.032C19.6784 17.888 17.5344 20.224 14.3984 20.224ZM14.3984 18.288C16.1584 18.288 17.2784 16.704 17.2784 14.032C17.2784 11.504 16.1584 9.984 14.3984 9.984C12.6224 9.984 11.5184 11.504 11.5184 14.032C11.5184 16.704 12.6224 18.288 14.3984 18.288ZM18.2224 23.216C15.7104 23.216 13.9824 21.824 13.2304 19.936L15.6304 19.696C16.0784 20.848 17.2944 21.328 18.4784 21.328C19.0064 21.328 19.4384 21.248 19.7904 21.12L20.2224 22.864C19.7904 23.072 19.0864 23.216 18.2224 23.216Z" fill="white"/>
</svg>
