<svg width="342" height="75" viewBox="0 0 342 75" fill="none" xmlns="http://www.w3.org/2000/svg">
<path d="M30.76 62.8C26.3867 62.8 22.36 62.08 18.68 60.64C15 59.2 11.8 57.2 9.08 54.64C6.36 52.0267 4.25333 48.9867 2.76 45.52C1.26667 42 0.52 38.16 0.52 34C0.52 29.84 1.26667 26.0267 2.76 22.56C4.25333 19.04 6.36 16 9.08 13.44C11.8 10.8267 15 8.8 18.68 7.36C22.36 5.92 26.36 5.2 30.68 5.2C35.0533 5.2 39.0533 5.92 42.68 7.36C46.36 8.8 49.56 10.8 52.28 13.36C55 15.92 57.1067 18.96 58.6 22.48C60.0933 26 60.84 29.84 60.84 34C60.84 38.16 60.0933 42 58.6 45.52C57.1067 49.04 55 52.08 52.28 54.64C49.56 57.2 46.36 59.2 42.68 60.64C39.0533 62.08 35.08 62.8 30.76 62.8ZM49 74.24C47.0267 74.24 45.1067 74 43.24 73.52C41.4267 73.0933 39.6133 72.3467 37.8 71.28C36.04 70.2667 34.2 68.9067 32.28 67.2C30.36 65.5467 28.2533 63.4933 25.96 61.04L37 58.16C38.4933 60.1333 39.9067 61.7067 41.24 62.88C42.6267 64.1067 43.96 64.9867 45.24 65.52C46.52 66.0533 47.8533 66.32 49.24 66.32C52.92 66.32 56.12 64.8267 58.84 61.84L63.64 67.6C59.9067 72.0267 55.0267 74.24 49 74.24ZM30.68 53.68C33.5067 53.68 36.12 53.2 38.52 52.24C40.92 51.28 43 49.92 44.76 48.16C46.52 46.3467 47.88 44.24 48.84 41.84C49.8533 39.44 50.36 36.8267 50.36 34C50.36 31.12 49.8533 28.5067 48.84 26.16C47.88 23.76 46.52 21.68 44.76 19.92C43 18.1067 40.92 16.72 38.52 15.76C36.12 14.8 33.5067 14.32 30.68 14.32C27.8533 14.32 25.24 14.8 22.84 15.76C20.44 16.72 18.36 18.1067 16.6 19.92C14.84 21.68 13.4533 23.76 12.44 26.16C11.48 28.5067 11 31.12 11 34C11 36.8267 11.48 39.44 12.44 41.84C13.4533 44.24 14.84 46.3467 16.6 48.16C18.36 49.92 20.44 51.28 22.84 52.24C25.24 53.2 27.8533 53.68 30.68 53.68ZM85.3838 62.56C81.7571 62.56 78.5571 61.8933 75.7838 60.56C73.0104 59.1733 70.8504 57.0933 69.3038 54.32C67.7571 51.4933 66.9838 47.9467 66.9838 43.68V19.28H76.9838V42.32C76.9838 46.16 77.8371 49.04 79.5438 50.96C81.3038 52.8267 83.7838 53.76 86.9838 53.76C89.3304 53.76 91.3571 53.28 93.0638 52.32C94.8238 51.36 96.1838 49.92 97.1438 48C98.1571 46.08 98.6638 43.7067 98.6638 40.88V19.28H108.664V62H99.1438V50.48L100.824 54C99.3838 56.7733 97.2771 58.9067 94.5038 60.4C91.7304 61.84 88.6904 62.56 85.3838 62.56ZM138.237 62.56C133.49 62.56 129.33 61.6267 125.757 59.76C122.237 57.84 119.49 55.2267 117.517 51.92C115.597 48.6133 114.637 44.8533 114.637 40.64C114.637 36.3733 115.57 32.6133 117.437 29.36C119.357 26.0533 121.97 23.4667 125.277 21.6C128.637 19.7333 132.45 18.8 136.717 18.8C140.877 18.8 144.584 19.7067 147.837 21.52C151.09 23.3333 153.65 25.8933 155.517 29.2C157.384 32.5067 158.317 36.4 158.317 40.88C158.317 41.3067 158.29 41.7867 158.237 42.32C158.237 42.8533 158.21 43.36 158.157 43.84H122.557V37.2H152.877L148.957 39.28C149.01 36.8267 148.504 34.6667 147.437 32.8C146.37 30.9333 144.904 29.4667 143.037 28.4C141.224 27.3333 139.117 26.8 136.717 26.8C134.264 26.8 132.104 27.3333 130.237 28.4C128.424 29.4667 126.984 30.96 125.917 32.88C124.904 34.7467 124.397 36.96 124.397 39.52V41.12C124.397 43.68 124.984 45.9467 126.157 47.92C127.33 49.8933 128.984 51.4133 131.117 52.48C133.25 53.5467 135.704 54.08 138.477 54.08C140.877 54.08 143.037 53.7067 144.957 52.96C146.877 52.2133 148.584 51.04 150.077 49.44L155.437 55.6C153.517 57.84 151.09 59.5733 148.157 60.8C145.277 61.9733 141.97 62.56 138.237 62.56ZM177.522 62.56C173.949 62.56 170.509 62.1067 167.202 61.2C163.949 60.24 161.362 59.0933 159.442 57.76L163.282 50.16C165.202 51.3867 167.496 52.4 170.162 53.2C172.829 54 175.496 54.4 178.162 54.4C181.309 54.4 183.576 53.9733 184.962 53.12C186.402 52.2667 187.122 51.12 187.122 49.68C187.122 48.5067 186.642 47.6267 185.682 47.04C184.722 46.4 183.469 45.92 181.922 45.6C180.376 45.28 178.642 44.9867 176.722 44.72C174.856 44.4533 172.962 44.1067 171.042 43.68C169.176 43.2 167.469 42.5333 165.922 41.68C164.376 40.7733 163.122 39.5733 162.162 38.08C161.202 36.5867 160.722 34.6133 160.722 32.16C160.722 29.44 161.496 27.0933 163.042 25.12C164.589 23.0933 166.749 21.5467 169.522 20.48C172.349 19.36 175.682 18.8 179.522 18.8C182.402 18.8 185.309 19.12 188.242 19.76C191.176 20.4 193.602 21.3067 195.522 22.48L191.682 30.08C189.656 28.8533 187.602 28.0267 185.522 27.6C183.496 27.12 181.469 26.88 179.442 26.88C176.402 26.88 174.136 27.3333 172.642 28.24C171.202 29.1467 170.482 30.2933 170.482 31.68C170.482 32.96 170.962 33.92 171.922 34.56C172.882 35.2 174.136 35.7067 175.682 36.08C177.229 36.4533 178.936 36.7733 180.802 37.04C182.722 37.2533 184.616 37.6 186.482 38.08C188.349 38.56 190.056 39.2267 191.602 40.08C193.202 40.88 194.482 42.0267 195.442 43.52C196.402 45.0133 196.882 46.96 196.882 49.36C196.882 52.0267 196.082 54.3467 194.482 56.32C192.936 58.2933 190.722 59.84 187.842 60.96C184.962 62.0267 181.522 62.56 177.522 62.56ZM217.974 62.56C213.281 62.56 209.654 61.36 207.094 58.96C204.534 56.5067 203.254 52.9067 203.254 48.16V9.84H213.254V47.92C213.254 49.9467 213.761 51.52 214.774 52.64C215.841 53.76 217.308 54.32 219.174 54.32C221.414 54.32 223.281 53.7333 224.774 52.56L227.574 59.68C226.401 60.64 224.961 61.36 223.254 61.84C221.548 62.32 219.788 62.56 217.974 62.56ZM196.214 27.6V19.6H224.694V27.6H196.214ZM232.201 62V19.28H242.201V62H232.201ZM237.241 12.24C235.374 12.24 233.827 11.6533 232.601 10.48C231.427 9.30666 230.841 7.89333 230.841 6.24C230.841 4.53333 231.427 3.12 232.601 2C233.827 0.826664 235.374 0.239999 237.241 0.239999C239.107 0.239999 240.627 0.799998 241.801 1.92C243.027 2.98667 243.641 4.34667 243.641 6C243.641 7.76 243.054 9.25333 241.881 10.48C240.707 11.6533 239.161 12.24 237.241 12.24ZM270.926 62.56C266.552 62.56 262.659 61.6267 259.246 59.76C255.832 57.84 253.139 55.2267 251.166 51.92C249.192 48.6133 248.206 44.8533 248.206 40.64C248.206 36.3733 249.192 32.6133 251.166 29.36C253.139 26.0533 255.832 23.4667 259.246 21.6C262.659 19.7333 266.552 18.8 270.926 18.8C275.352 18.8 279.272 19.7333 282.686 21.6C286.152 23.4667 288.846 26.0267 290.766 29.28C292.739 32.5333 293.726 36.32 293.726 40.64C293.726 44.8533 292.739 48.6133 290.766 51.92C288.846 55.2267 286.152 57.84 282.686 59.76C279.272 61.6267 275.352 62.56 270.926 62.56ZM270.926 54C273.379 54 275.566 53.4667 277.486 52.4C279.406 51.3333 280.899 49.7867 281.966 47.76C283.086 45.7333 283.646 43.36 283.646 40.64C283.646 37.8667 283.086 35.4933 281.966 33.52C280.899 31.4933 279.406 29.9467 277.486 28.88C275.566 27.8133 273.406 27.28 271.006 27.28C268.552 27.28 266.366 27.8133 264.446 28.88C262.579 29.9467 261.086 31.4933 259.966 33.52C258.846 35.4933 258.286 37.8667 258.286 40.64C258.286 43.36 258.846 45.7333 259.966 47.76C261.086 49.7867 262.579 51.3333 264.446 52.4C266.366 53.4667 268.526 54 270.926 54ZM323.928 18.8C327.341 18.8 330.381 19.4667 333.048 20.8C335.768 22.1333 337.901 24.1867 339.448 26.96C340.995 29.68 341.768 33.2 341.768 37.52V62H331.768V38.8C331.768 35.0133 330.861 32.1867 329.048 30.32C327.288 28.4533 324.808 27.52 321.608 27.52C319.261 27.52 317.181 28 315.368 28.96C313.555 29.92 312.141 31.36 311.128 33.28C310.168 35.1467 309.688 37.52 309.688 40.4V62H299.688V19.28H309.208V30.8L307.528 27.28C309.021 24.56 311.181 22.48 314.008 21.04C316.888 19.5467 320.195 18.8 323.928 18.8Z" fill="#E6EEF5"/>
</svg>
