<svg width="473" height="54" viewBox="0 0 473 54" fill="none" xmlns="http://www.w3.org/2000/svg">
<path d="M54.5797 13.952C53.9387 11.5551 52.0496 9.66615 49.6526 9.02513C45.3045 7.85767 27.8721 7.85767 27.8721 7.85767C27.8721 7.85767 10.4396 7.85767 6.09469 9.02203C3.6977 9.66305 1.80859 11.552 1.16753 13.9489C0 18.2967 0 27.367 0 27.367C0 27.367 0 36.4372 1.16443 40.7819C1.80549 43.1788 3.6946 45.0678 6.0916 45.7088C10.4396 46.8732 27.869 46.8732 27.869 46.8732C27.869 46.8732 45.3014 46.8732 49.6464 45.7088C52.0434 45.0678 53.9325 43.1788 54.5735 40.7819C55.738 36.4341 55.738 27.367 55.738 27.367C55.738 27.367 55.738 18.2967 54.5735 13.952H54.5797Z" fill="#868686"/>
<path d="M22.3047 35.7281L36.7858 27.367L22.3047 19.0059V35.7281Z" fill="white"/>
<path d="M125.13 0.617188H110.256C99.6213 0.617188 91 9.23803 91 19.8724V34.7448C91 45.3792 99.6213 54 110.256 54H125.13C135.765 54 144.386 45.3792 144.386 34.7448V19.8724C144.386 9.23803 135.765 0.617188 125.13 0.617188Z" fill="#868686"/>
<path d="M135.484 24.7943C135.484 16.8296 127.501 10.3516 117.686 10.3516C107.871 10.3516 99.8867 16.8322 99.8867 24.7943C99.8867 31.9342 106.218 37.9131 114.773 39.0448C115.353 39.1703 116.143 39.4265 116.34 39.923C116.519 40.3741 116.458 41.0787 116.399 41.5325C116.399 41.5325 116.191 42.7896 116.145 43.0565C116.068 43.505 115.788 44.8155 117.688 44.0148C119.589 43.214 127.938 37.9798 131.673 33.6825C134.251 30.8532 135.487 27.9839 135.487 24.797L135.484 24.7943Z" fill="white"/>
<path d="M129.561 29.3934H124.562C124.375 29.3934 124.223 29.2413 124.223 29.0544V29.0491V21.2952V21.2872C124.223 21.1004 124.375 20.9482 124.562 20.9482H129.561C129.748 20.9482 129.9 21.1004 129.9 21.2872V22.5497C129.9 22.7366 129.748 22.8887 129.561 22.8887H126.163V24.1993H129.561C129.748 24.1993 129.9 24.3514 129.9 24.5382V25.8007C129.9 25.9876 129.748 26.1397 129.561 26.1397H126.163V27.4503H129.561C129.748 27.4503 129.9 27.6024 129.9 27.7893V29.0518C129.9 29.2386 129.748 29.3907 129.561 29.3907V29.3934Z" fill="#868686"/>
<path d="M111.063 29.3932C111.25 29.3932 111.402 29.241 111.402 29.0542V27.7917C111.402 27.6048 111.25 27.4527 111.063 27.4527H107.665V21.287C107.665 21.1001 107.513 20.948 107.326 20.948H106.064C105.877 20.948 105.725 21.1001 105.725 21.287V29.0488V29.0542C105.725 29.241 105.877 29.3932 106.064 29.3932H111.063Z" fill="#868686"/>
<path d="M114.079 20.9453H112.814C112.626 20.9453 112.475 21.0971 112.475 21.2843V29.0542C112.475 29.2414 112.626 29.3931 112.814 29.3931H114.079C114.266 29.3931 114.418 29.2414 114.418 29.0542V21.2843C114.418 21.0971 114.266 20.9453 114.079 20.9453Z" fill="#868686"/>
<path d="M122.666 20.9453H121.404C121.217 20.9453 121.065 21.0975 121.065 21.2843V25.8966L117.512 21.0975C117.512 21.0975 117.493 21.0734 117.485 21.0628C117.48 21.0547 117.472 21.0494 117.464 21.0414C117.464 21.0414 117.459 21.0387 117.459 21.0361C117.453 21.0307 117.445 21.0254 117.44 21.02C117.437 21.02 117.435 21.0147 117.432 21.012C117.427 21.0067 117.421 21.004 117.413 20.9987C117.411 20.9987 117.405 20.9934 117.403 20.9934C117.397 20.9907 117.389 20.9853 117.384 20.9827C117.381 20.9827 117.376 20.98 117.373 20.9773C117.368 20.9747 117.36 20.972 117.355 20.9693C117.352 20.9693 117.347 20.9667 117.344 20.964C117.336 20.964 117.33 20.9587 117.322 20.9587C117.32 20.9587 117.314 20.9587 117.309 20.956C117.301 20.956 117.296 20.9533 117.288 20.9506C117.282 20.9506 117.277 20.9506 117.274 20.9506C117.269 20.9506 117.261 20.9506 117.256 20.9506C117.25 20.9506 117.242 20.9506 117.237 20.9506C117.234 20.9506 117.229 20.9506 117.226 20.9506H115.972C115.785 20.9506 115.633 21.1028 115.633 21.2896V29.0568C115.633 29.2437 115.785 29.3958 115.972 29.3958H117.234C117.421 29.3958 117.573 29.2437 117.573 29.0568V24.4446L121.132 29.249C121.156 29.2837 121.185 29.3131 121.22 29.3344C121.22 29.3344 121.22 29.3344 121.222 29.3371C121.23 29.3424 121.236 29.3451 121.244 29.3504C121.246 29.3504 121.249 29.3531 121.254 29.3558C121.26 29.3584 121.265 29.3611 121.27 29.3638C121.276 29.3638 121.281 29.3691 121.286 29.3718C121.289 29.3718 121.294 29.3718 121.297 29.3745C121.305 29.3771 121.313 29.3798 121.321 29.3825C121.321 29.3825 121.324 29.3825 121.326 29.3825C121.356 29.3905 121.385 29.3931 121.415 29.3931H122.669C122.856 29.3931 123.008 29.241 123.008 29.0542V21.287C123.008 21.1001 122.856 20.948 122.669 20.948L122.666 20.9453Z" fill="#868686"/>
<path d="M206.692 5.42722C213.819 5.42722 214.663 5.45391 217.479 5.58204C220.082 5.69949 221.496 6.13458 222.436 6.50027C223.683 6.98608 224.572 7.56264 225.506 8.49689C226.44 9.43113 227.019 10.32 227.503 11.5666C227.868 12.5061 228.303 13.9209 228.421 16.5234C228.549 19.3395 228.576 20.183 228.576 27.3099C228.576 34.4369 228.549 35.2804 228.421 38.0965C228.303 40.699 227.868 42.1137 227.503 43.0533C227.017 44.2999 226.44 45.1887 225.506 46.123C224.572 47.0572 223.683 47.6365 222.436 48.1196C221.496 48.4853 220.082 48.9204 217.479 49.0378C214.665 49.166 213.819 49.1926 206.692 49.1926C199.564 49.1926 198.721 49.166 195.904 49.0378C193.302 48.9204 191.887 48.4853 190.947 48.1196C189.701 47.6338 188.812 47.0572 187.877 46.123C186.943 45.1887 186.364 44.2999 185.881 43.0533C185.515 42.1137 185.08 40.699 184.962 38.0965C184.834 35.2831 184.808 34.4369 184.808 27.3099C184.808 20.183 184.834 19.3395 184.962 16.5234C185.08 13.9209 185.515 12.5061 185.881 11.5666C186.367 10.32 186.943 9.43113 187.877 8.49689C188.812 7.56264 189.701 6.98341 190.947 6.50027C191.887 6.13458 193.302 5.69949 195.904 5.58204C198.718 5.45391 199.564 5.42722 206.692 5.42722ZM206.692 0.617188C199.441 0.617188 198.534 0.649219 195.686 0.777344C192.843 0.908138 190.905 1.35925 189.207 2.01856C187.45 2.70189 185.964 3.61478 184.479 5.09623C182.995 6.58035 182.082 8.06713 181.401 9.82352C180.742 11.5212 180.291 13.4617 180.16 16.3018C180.032 19.15 180 20.0575 180 27.3073C180 34.557 180.032 35.4672 180.16 38.3127C180.291 41.1555 180.742 43.0934 181.401 44.791C182.085 46.5474 182.998 48.0342 184.479 49.5183C185.964 51.0024 187.453 51.9153 189.207 52.5986C190.905 53.258 192.845 53.7091 195.686 53.8399C198.534 53.968 199.441 54 206.692 54C213.942 54 214.852 53.968 217.698 53.8399C220.541 53.7091 222.479 53.258 224.176 52.5986C225.933 51.9153 227.42 51.0024 228.904 49.5183C230.388 48.0342 231.301 46.5447 231.985 44.791C232.644 43.0934 233.095 41.1528 233.226 38.3127C233.354 35.4646 233.386 34.557 233.386 27.3073C233.386 20.0575 233.354 19.15 233.226 16.3018C233.095 13.4591 232.644 11.5212 231.985 9.82352C231.301 8.06713 230.388 6.58035 228.904 5.09623C227.42 3.61211 225.93 2.69922 224.176 2.01856C222.479 1.35925 220.538 0.908138 217.698 0.777344C214.849 0.649219 213.942 0.617188 206.692 0.617188ZM206.692 13.6032C199.121 13.6032 192.984 19.7399 192.984 27.3099C192.984 34.88 199.121 41.0167 206.692 41.0167C214.262 41.0167 220.399 34.88 220.399 27.3099C220.399 19.7399 214.262 13.6032 206.692 13.6032ZM206.692 36.2093C201.777 36.2093 197.794 32.2267 197.794 27.3099C197.794 22.3931 201.78 18.4132 206.692 18.4132C211.603 18.4132 215.592 22.3958 215.592 27.3099C215.592 32.2241 211.606 36.2093 206.692 36.2093ZM220.941 9.86089C219.171 9.86089 217.738 11.2943 217.738 13.064C217.738 14.8337 219.171 16.2671 220.941 16.2671C222.711 16.2671 224.144 14.8337 224.144 13.064C224.144 11.2943 222.711 9.86089 220.941 9.86089Z" fill="#868686"/>
<path d="M296.097 24.5747L313.046 4.96143H309.031L294.315 21.9921L282.559 4.96143H269L286.775 30.7114L269 51.2789H273.018L288.561 33.294L300.973 51.2789H314.532L296.097 24.5747ZM290.596 30.9396L288.793 28.3743L274.463 7.97273H280.631L292.197 24.4399L293.999 27.0052L309.031 48.4093H302.863L290.596 30.943V30.9396Z" fill="#868686"/>
<path d="M384.058 14.1635C381.585 12.5508 379.8 9.97142 379.243 6.96435C379.123 6.31434 379.057 5.64593 379.057 4.96143H371.163L371.15 36.5928C371.018 40.1349 368.103 42.9779 364.528 42.9779C363.417 42.9779 362.371 42.7005 361.45 42.2152C359.338 41.1038 357.893 38.8901 357.893 36.3429C357.893 32.6843 360.87 29.7079 364.528 29.7079C365.211 29.7079 365.866 29.8206 366.486 30.0145V21.9568C365.844 21.8694 365.193 21.815 364.528 21.815C356.517 21.815 350 28.332 350 36.3421C350 41.2571 352.456 45.6063 356.202 48.2363C358.562 49.8927 361.433 50.8693 364.528 50.8693C372.539 50.8693 379.056 44.3523 379.056 36.3421V20.3026C382.151 22.5248 385.944 23.834 390.037 23.834V15.9411C387.832 15.9411 385.779 15.2857 384.057 14.1628L384.058 14.1635Z" fill="#868686"/>
<path d="M449.155 4.96143C436.367 4.96143 426 15.3871 426 28.2472C426 39.9218 434.546 49.5642 445.692 51.2471V34.4179H439.967V28.3001H445.692V24.2251C445.692 17.4828 448.955 14.5192 454.533 14.5192C457.206 14.5192 458.617 14.7203 459.28 14.8049V20.1501H455.48C453.112 20.1501 452.291 22.4046 452.291 24.9448V28.2895H459.227L458.29 34.4073H452.302V51.2789C463.606 49.7336 472.32 40.0171 472.32 28.226C472.31 15.3871 461.943 4.96143 449.155 4.96143Z" fill="#868686"/>
</svg>
